M48
;Layer_Color=9474304
;FILE_FORMAT=2:5
INCH,LZ
;TYPE=PLATED
T1F00S00C0.01181
T2F00S00C0.03543
%
T01
X0012Y0025
X0007Y00345
X0034508Y0027795
X00405Y004
X005872Y0025
X00565Y00145
X0064035Y004748
X008372
X0093563Y0067165
X00625Y00745
X0064035Y008685
X0017Y0077
X00195Y0072
X0024Y0068
X0005
X00065Y0051
X0016
X000498Y008685
T02
X00115Y0006
X00215
X00315
X00415
X00515
X00615
X00715
X00815
X00915
X01015
X0101Y00225
Y00325
Y00425
X003Y004
Y003
Y005
X00315Y0082
X00215
X00115
Y0094
X00215
X00315
X00415
X00515
X00615
X00715
X00815
X00915
X01015
X0101Y00725
Y00625
Y00525
X00515Y0082
X00415
M30
