G04 Layer_Color=8388736*
%FSLAX25Y25*%
%MOIN*%
G70*
G01*
G75*
%ADD16C,0.00394*%
%ADD23R,0.03950X0.04737*%
%ADD24O,0.02572X0.07887*%
%ADD25R,0.06312X0.03556*%
%ADD26R,0.04737X0.03950*%
%ADD27C,0.06706*%
%ADD28R,0.06706X0.06706*%
%ADD29R,0.06706X0.06706*%
D16*
X0Y0D02*
Y100000D01*
X110000D01*
Y0D02*
Y100000D01*
X0Y0D02*
X110000D01*
D23*
X11468Y72000D02*
D03*
X17531D02*
D03*
X17469Y66000D02*
D03*
X23531D02*
D03*
X39469Y23000D02*
D03*
X45531D02*
D03*
X20488Y20012D02*
D03*
X14425D02*
D03*
X75032Y85000D02*
D03*
X68968D02*
D03*
X69532Y78500D02*
D03*
X63468D02*
D03*
X54469Y72000D02*
D03*
X60532D02*
D03*
X11531Y66000D02*
D03*
X5469D02*
D03*
D24*
X48484Y31114D02*
D03*
X51043Y31114D02*
D03*
X53602Y31114D02*
D03*
X56161D02*
D03*
X58720D02*
D03*
X61279D02*
D03*
X63839D02*
D03*
X66398Y31114D02*
D03*
X68957D02*
D03*
X71516Y31114D02*
D03*
X48484Y57886D02*
D03*
X51043D02*
D03*
X53602D02*
D03*
X56161D02*
D03*
X58720D02*
D03*
X61279D02*
D03*
X63839D02*
D03*
X66398D02*
D03*
X68957D02*
D03*
X71516D02*
D03*
D25*
X9669Y38240D02*
D03*
Y34500D02*
D03*
Y30760D02*
D03*
X18331D02*
D03*
Y38240D02*
D03*
D26*
X8500Y44969D02*
D03*
Y51032D02*
D03*
X18000Y44969D02*
D03*
Y51032D02*
D03*
X58000Y22532D02*
D03*
Y16468D02*
D03*
D27*
X30000Y50000D02*
D03*
Y40000D02*
D03*
X41500Y82000D02*
D03*
X31500D02*
D03*
X21500D02*
D03*
X11500D02*
D03*
X101000Y72500D02*
D03*
Y62500D02*
D03*
Y52500D02*
D03*
Y42500D02*
D03*
Y32500D02*
D03*
X31500Y94000D02*
D03*
X101500D02*
D03*
X91500D02*
D03*
X81500D02*
D03*
X71500D02*
D03*
X61500D02*
D03*
X51500D02*
D03*
X41500D02*
D03*
X21500D02*
D03*
X31500Y6000D02*
D03*
X101500D02*
D03*
X91500D02*
D03*
X81500D02*
D03*
X71500D02*
D03*
X61500D02*
D03*
X51500D02*
D03*
X41500D02*
D03*
X21500D02*
D03*
D28*
X30000Y30000D02*
D03*
X101000Y22500D02*
D03*
D29*
X51500Y82000D02*
D03*
X11500Y94000D02*
D03*
Y6000D02*
D03*
M02*
