G04 Layer_Color=8421504*
%FSLAX25Y25*%
%MOIN*%
G70*
G01*
G75*
%ADD10R,0.03150X0.03937*%
%ADD11O,0.01772X0.07087*%
%ADD12R,0.05512X0.02756*%
%ADD13R,0.03937X0.03150*%
%ADD16C,0.00394*%
D10*
X11468Y72000D02*
D03*
X17531D02*
D03*
X17469Y66000D02*
D03*
X23531D02*
D03*
X39469Y23000D02*
D03*
X45531D02*
D03*
X20488Y20012D02*
D03*
X14425D02*
D03*
X75032Y85000D02*
D03*
X68968D02*
D03*
X69532Y78500D02*
D03*
X63468D02*
D03*
X54469Y72000D02*
D03*
X60532D02*
D03*
X11531Y66000D02*
D03*
X5469D02*
D03*
D11*
X48484Y31114D02*
D03*
X51043Y31114D02*
D03*
X53602Y31114D02*
D03*
X56161D02*
D03*
X58720D02*
D03*
X61279D02*
D03*
X63839D02*
D03*
X66398Y31114D02*
D03*
X68957D02*
D03*
X71516Y31114D02*
D03*
X48484Y57886D02*
D03*
X51043D02*
D03*
X53602D02*
D03*
X56161D02*
D03*
X58720D02*
D03*
X61279D02*
D03*
X63839D02*
D03*
X66398D02*
D03*
X68957D02*
D03*
X71516D02*
D03*
D12*
X9669Y38240D02*
D03*
Y34500D02*
D03*
Y30760D02*
D03*
X18331D02*
D03*
Y38240D02*
D03*
D13*
X8500Y44969D02*
D03*
Y51032D02*
D03*
X18000Y44969D02*
D03*
Y51032D02*
D03*
X58000Y22532D02*
D03*
Y16468D02*
D03*
D16*
X0Y0D02*
Y100000D01*
X110000D01*
Y0D02*
Y100000D01*
X0Y0D02*
X110000D01*
M02*
