G04 Layer_Color=65535*
%FSLAX25Y25*%
%MOIN*%
G70*
G01*
G75*
%ADD16C,0.00394*%
%ADD22C,0.00787*%
G36*
X94500Y63953D02*
X90971D01*
Y66508D01*
X91389D01*
Y64422D01*
X92465D01*
Y66375D01*
X92883D01*
Y64422D01*
X94082D01*
Y66589D01*
X94500D01*
Y63953D01*
D02*
G37*
G36*
X93613Y63295D02*
X93684Y63285D01*
X93766Y63264D01*
X93852Y63239D01*
X93944Y63198D01*
X94041Y63142D01*
X94046D01*
X94051Y63137D01*
X94082Y63111D01*
X94128Y63076D01*
X94179Y63024D01*
X94240Y62958D01*
X94306Y62877D01*
X94367Y62785D01*
X94424Y62678D01*
Y62673D01*
X94429Y62662D01*
X94434Y62647D01*
X94444Y62627D01*
X94454Y62596D01*
X94469Y62560D01*
X94490Y62479D01*
X94515Y62382D01*
X94541Y62265D01*
X94556Y62137D01*
X94561Y61999D01*
Y61994D01*
Y61979D01*
Y61954D01*
Y61918D01*
X94556Y61877D01*
Y61831D01*
X94551Y61780D01*
X94546Y61719D01*
X94525Y61591D01*
X94505Y61459D01*
X94469Y61326D01*
X94424Y61199D01*
Y61194D01*
X94418Y61183D01*
X94408Y61168D01*
X94398Y61148D01*
X94367Y61086D01*
X94322Y61015D01*
X94260Y60934D01*
X94189Y60847D01*
X94102Y60765D01*
X94005Y60689D01*
X94000D01*
X93990Y60678D01*
X93975Y60673D01*
X93954Y60658D01*
X93929Y60648D01*
X93898Y60633D01*
X93822Y60597D01*
X93725Y60561D01*
X93618Y60531D01*
X93495Y60510D01*
X93368Y60500D01*
X93327Y60939D01*
X93337D01*
X93353Y60944D01*
X93373D01*
X93419Y60954D01*
X93485Y60969D01*
X93551Y60990D01*
X93628Y61010D01*
X93699Y61046D01*
X93766Y61081D01*
X93771Y61086D01*
X93791Y61102D01*
X93827Y61127D01*
X93862Y61168D01*
X93908Y61219D01*
X93954Y61275D01*
X94000Y61352D01*
X94041Y61433D01*
Y61438D01*
X94046Y61444D01*
X94051Y61459D01*
X94056Y61474D01*
X94072Y61525D01*
X94092Y61591D01*
X94112Y61673D01*
X94128Y61765D01*
X94138Y61867D01*
X94143Y61979D01*
Y61984D01*
Y61989D01*
Y62005D01*
Y62025D01*
X94138Y62076D01*
X94133Y62137D01*
X94123Y62208D01*
X94112Y62290D01*
X94092Y62372D01*
X94067Y62448D01*
X94061Y62458D01*
X94051Y62484D01*
X94031Y62520D01*
X94010Y62565D01*
X93975Y62611D01*
X93939Y62662D01*
X93898Y62713D01*
X93847Y62754D01*
X93842Y62759D01*
X93822Y62770D01*
X93796Y62785D01*
X93755Y62805D01*
X93715Y62826D01*
X93664Y62841D01*
X93607Y62851D01*
X93546Y62856D01*
X93516D01*
X93485Y62851D01*
X93444Y62846D01*
X93404Y62831D01*
X93353Y62815D01*
X93301Y62790D01*
X93256Y62754D01*
X93251Y62749D01*
X93235Y62734D01*
X93215Y62713D01*
X93184Y62678D01*
X93154Y62637D01*
X93118Y62581D01*
X93082Y62515D01*
X93052Y62438D01*
X93046Y62433D01*
X93041Y62407D01*
X93026Y62367D01*
X93021Y62341D01*
X93011Y62305D01*
X92996Y62270D01*
X92985Y62224D01*
X92970Y62173D01*
X92955Y62112D01*
X92939Y62050D01*
X92919Y61979D01*
X92899Y61897D01*
X92878Y61811D01*
Y61806D01*
X92873Y61790D01*
X92868Y61765D01*
X92858Y61734D01*
X92848Y61693D01*
X92837Y61647D01*
X92807Y61545D01*
X92771Y61433D01*
X92735Y61316D01*
X92700Y61214D01*
X92679Y61168D01*
X92659Y61127D01*
Y61122D01*
X92654Y61117D01*
X92633Y61086D01*
X92608Y61041D01*
X92567Y60990D01*
X92521Y60928D01*
X92465Y60867D01*
X92399Y60806D01*
X92327Y60755D01*
X92317Y60750D01*
X92292Y60735D01*
X92251Y60714D01*
X92200Y60694D01*
X92134Y60673D01*
X92057Y60653D01*
X91975Y60638D01*
X91889Y60633D01*
X91843D01*
X91792Y60643D01*
X91726Y60653D01*
X91649Y60668D01*
X91562Y60694D01*
X91476Y60729D01*
X91389Y60781D01*
X91384D01*
X91379Y60786D01*
X91348Y60811D01*
X91307Y60847D01*
X91256Y60893D01*
X91200Y60954D01*
X91139Y61030D01*
X91083Y61122D01*
X91032Y61224D01*
Y61229D01*
X91027Y61239D01*
X91022Y61255D01*
X91012Y61275D01*
X91001Y61301D01*
X90991Y61336D01*
X90971Y61413D01*
X90950Y61510D01*
X90930Y61622D01*
X90915Y61739D01*
X90910Y61872D01*
Y61877D01*
Y61887D01*
Y61913D01*
Y61938D01*
X90915Y61974D01*
Y62010D01*
X90925Y62107D01*
X90940Y62214D01*
X90966Y62326D01*
X90996Y62448D01*
X91037Y62560D01*
Y62565D01*
X91042Y62576D01*
X91052Y62591D01*
X91063Y62611D01*
X91088Y62662D01*
X91134Y62729D01*
X91185Y62805D01*
X91251Y62882D01*
X91328Y62953D01*
X91414Y63019D01*
X91420D01*
X91425Y63024D01*
X91440Y63035D01*
X91455Y63045D01*
X91506Y63070D01*
X91573Y63101D01*
X91654Y63137D01*
X91751Y63162D01*
X91853Y63188D01*
X91965Y63198D01*
X92001Y62749D01*
X91986D01*
X91970Y62744D01*
X91945Y62739D01*
X91889Y62724D01*
X91812Y62703D01*
X91731Y62673D01*
X91649Y62627D01*
X91573Y62571D01*
X91501Y62499D01*
X91496Y62489D01*
X91476Y62463D01*
X91445Y62413D01*
X91414Y62346D01*
X91384Y62260D01*
X91353Y62157D01*
X91333Y62030D01*
X91328Y61887D01*
Y61882D01*
Y61867D01*
Y61846D01*
Y61816D01*
X91333Y61785D01*
X91338Y61744D01*
X91348Y61653D01*
X91369Y61551D01*
X91394Y61449D01*
X91435Y61352D01*
X91460Y61311D01*
X91486Y61270D01*
X91491Y61260D01*
X91511Y61239D01*
X91547Y61209D01*
X91588Y61178D01*
X91644Y61143D01*
X91705Y61112D01*
X91777Y61092D01*
X91858Y61081D01*
X91889D01*
X91925Y61086D01*
X91965Y61097D01*
X92016Y61112D01*
X92067Y61137D01*
X92118Y61168D01*
X92169Y61214D01*
X92174Y61219D01*
X92190Y61245D01*
X92205Y61265D01*
X92215Y61285D01*
X92230Y61316D01*
X92251Y61352D01*
X92266Y61398D01*
X92287Y61449D01*
X92307Y61505D01*
X92333Y61571D01*
X92353Y61642D01*
X92378Y61724D01*
X92399Y61816D01*
X92424Y61918D01*
Y61923D01*
X92429Y61943D01*
X92435Y61974D01*
X92445Y62010D01*
X92455Y62055D01*
X92470Y62112D01*
X92485Y62168D01*
X92501Y62229D01*
X92536Y62362D01*
X92572Y62489D01*
X92593Y62550D01*
X92613Y62606D01*
X92628Y62657D01*
X92649Y62698D01*
Y62703D01*
X92654Y62713D01*
X92664Y62729D01*
X92674Y62749D01*
X92705Y62805D01*
X92746Y62871D01*
X92802Y62948D01*
X92863Y63024D01*
X92934Y63096D01*
X93011Y63157D01*
X93021Y63162D01*
X93046Y63183D01*
X93092Y63203D01*
X93154Y63234D01*
X93225Y63259D01*
X93312Y63285D01*
X93409Y63300D01*
X93511Y63305D01*
X93556D01*
X93613Y63295D01*
D02*
G37*
G36*
X3834Y87492D02*
X3875D01*
X3972Y87487D01*
X4084Y87472D01*
X4201Y87457D01*
X4324Y87431D01*
X4446Y87401D01*
X4451D01*
X4461Y87396D01*
X4476Y87390D01*
X4497Y87385D01*
X4553Y87365D01*
X4624Y87334D01*
X4706Y87304D01*
X4788Y87263D01*
X4874Y87212D01*
X4956Y87161D01*
X4966Y87156D01*
X4992Y87135D01*
X5027Y87105D01*
X5073Y87064D01*
X5124Y87018D01*
X5175Y86962D01*
X5231Y86906D01*
X5277Y86840D01*
X5282Y86829D01*
X5298Y86809D01*
X5318Y86773D01*
X5344Y86722D01*
X5374Y86661D01*
X5400Y86590D01*
X5430Y86508D01*
X5456Y86416D01*
Y86411D01*
Y86406D01*
X5461Y86391D01*
X5466Y86375D01*
X5471Y86325D01*
X5481Y86253D01*
X5491Y86172D01*
X5502Y86075D01*
X5507Y85967D01*
X5512Y85850D01*
Y84580D01*
X1983D01*
Y85794D01*
Y85799D01*
Y85814D01*
Y85835D01*
Y85860D01*
Y85896D01*
Y85937D01*
X1988Y86029D01*
X1993Y86131D01*
X2003Y86233D01*
X2018Y86335D01*
X2034Y86421D01*
Y86427D01*
X2039Y86437D01*
Y86452D01*
X2049Y86472D01*
X2064Y86528D01*
X2090Y86600D01*
X2125Y86681D01*
X2171Y86768D01*
X2222Y86855D01*
X2289Y86936D01*
X2294Y86942D01*
X2299Y86947D01*
X2314Y86962D01*
X2329Y86982D01*
X2380Y87033D01*
X2452Y87095D01*
X2538Y87161D01*
X2640Y87232D01*
X2758Y87299D01*
X2890Y87355D01*
X2895D01*
X2906Y87360D01*
X2926Y87370D01*
X2957Y87375D01*
X2992Y87390D01*
X3033Y87401D01*
X3079Y87411D01*
X3135Y87426D01*
X3191Y87441D01*
X3258Y87452D01*
X3400Y87477D01*
X3559Y87492D01*
X3732Y87498D01*
X3798D01*
X3834Y87492D01*
D02*
G37*
G36*
X94500Y74550D02*
X93429Y74137D01*
Y72658D01*
X94500Y72276D01*
Y71781D01*
X90971Y73128D01*
Y73638D01*
X94500Y75081D01*
Y74550D01*
D02*
G37*
G36*
Y70873D02*
X90971D01*
Y71343D01*
X94500D01*
Y70873D01*
D02*
G37*
G36*
Y69762D02*
X93766Y69297D01*
X93761D01*
X93750Y69287D01*
X93735Y69277D01*
X93715Y69262D01*
X93659Y69226D01*
X93587Y69180D01*
X93511Y69124D01*
X93429Y69068D01*
X93353Y69012D01*
X93281Y68961D01*
X93276Y68956D01*
X93256Y68941D01*
X93225Y68915D01*
X93189Y68879D01*
X93113Y68803D01*
X93077Y68762D01*
X93046Y68721D01*
X93041Y68716D01*
X93036Y68706D01*
X93026Y68686D01*
X93011Y68655D01*
X92996Y68624D01*
X92980Y68589D01*
X92955Y68507D01*
Y68502D01*
X92950Y68492D01*
Y68471D01*
X92945Y68446D01*
X92939Y68410D01*
Y68369D01*
X92934Y68313D01*
Y68252D01*
Y67711D01*
X94500D01*
Y67242D01*
X90971D01*
Y68803D01*
Y68808D01*
Y68823D01*
Y68849D01*
Y68879D01*
X90976Y68920D01*
Y68966D01*
X90981Y69073D01*
X90996Y69185D01*
X91012Y69308D01*
X91037Y69420D01*
X91052Y69476D01*
X91068Y69522D01*
Y69527D01*
X91073Y69532D01*
X91088Y69563D01*
X91109Y69609D01*
X91144Y69665D01*
X91190Y69726D01*
X91251Y69792D01*
X91323Y69853D01*
X91404Y69915D01*
X91409D01*
X91414Y69920D01*
X91445Y69940D01*
X91496Y69960D01*
X91562Y69991D01*
X91639Y70017D01*
X91731Y70042D01*
X91828Y70057D01*
X91935Y70063D01*
X91970D01*
X91996Y70057D01*
X92032D01*
X92067Y70052D01*
X92154Y70032D01*
X92256Y70001D01*
X92363Y69960D01*
X92470Y69899D01*
X92521Y69858D01*
X92572Y69818D01*
X92577Y69813D01*
X92582Y69807D01*
X92598Y69792D01*
X92613Y69772D01*
X92633Y69746D01*
X92654Y69716D01*
X92679Y69675D01*
X92710Y69634D01*
X92735Y69583D01*
X92761Y69527D01*
X92791Y69466D01*
X92817Y69399D01*
X92837Y69323D01*
X92863Y69247D01*
X92878Y69160D01*
X92893Y69068D01*
X92899Y69078D01*
X92909Y69099D01*
X92929Y69129D01*
X92950Y69170D01*
X93006Y69262D01*
X93041Y69308D01*
X93072Y69349D01*
X93082Y69359D01*
X93108Y69384D01*
X93148Y69425D01*
X93199Y69476D01*
X93271Y69532D01*
X93347Y69598D01*
X93439Y69665D01*
X93541Y69736D01*
X94500Y70343D01*
Y69762D01*
D02*
G37*
G36*
X42143Y59769D02*
X42194D01*
X42256Y59764D01*
X42317Y59759D01*
X42454Y59744D01*
X42597Y59723D01*
X42735Y59693D01*
X42801Y59672D01*
X42862Y59652D01*
X42868D01*
X42878Y59647D01*
X42893Y59637D01*
X42913Y59627D01*
X42970Y59596D01*
X43041Y59550D01*
X43123Y59489D01*
X43204Y59417D01*
X43291Y59326D01*
X43367Y59213D01*
Y59208D01*
X43378Y59198D01*
X43383Y59183D01*
X43398Y59157D01*
X43413Y59127D01*
X43429Y59086D01*
X43444Y59045D01*
X43464Y58994D01*
X43485Y58938D01*
X43500Y58877D01*
X43515Y58811D01*
X43531Y58734D01*
X43541Y58657D01*
X43551Y58576D01*
X43561Y58392D01*
Y58387D01*
Y58372D01*
Y58346D01*
X43556Y58311D01*
Y58270D01*
X43551Y58219D01*
X43546Y58163D01*
X43541Y58107D01*
X43520Y57979D01*
X43490Y57841D01*
X43449Y57709D01*
X43393Y57581D01*
Y57576D01*
X43383Y57566D01*
X43372Y57551D01*
X43362Y57530D01*
X43321Y57474D01*
X43265Y57408D01*
X43194Y57332D01*
X43112Y57260D01*
X43010Y57189D01*
X42898Y57133D01*
X42893D01*
X42883Y57127D01*
X42862Y57122D01*
X42837Y57112D01*
X42806Y57102D01*
X42766Y57092D01*
X42720Y57077D01*
X42664Y57066D01*
X42602Y57056D01*
X42536Y57041D01*
X42465Y57031D01*
X42388Y57020D01*
X42301Y57010D01*
X42210Y57005D01*
X42113Y57000D01*
X39971D01*
Y57469D01*
X42087D01*
X42123Y57474D01*
X42169D01*
X42266Y57479D01*
X42378Y57490D01*
X42490Y57505D01*
X42597Y57525D01*
X42643Y57535D01*
X42689Y57551D01*
X42699Y57556D01*
X42725Y57566D01*
X42761Y57592D01*
X42812Y57622D01*
X42862Y57658D01*
X42919Y57709D01*
X42975Y57770D01*
X43021Y57841D01*
X43026Y57852D01*
X43041Y57877D01*
X43056Y57923D01*
X43077Y57984D01*
X43102Y58056D01*
X43117Y58148D01*
X43133Y58244D01*
X43138Y58351D01*
Y58357D01*
Y58372D01*
Y58403D01*
X43133Y58433D01*
Y58479D01*
X43128Y58525D01*
X43107Y58637D01*
X43082Y58759D01*
X43041Y58877D01*
X42985Y58989D01*
X42949Y59040D01*
X42908Y59086D01*
X42903Y59091D01*
X42898Y59096D01*
X42883Y59106D01*
X42862Y59122D01*
X42832Y59137D01*
X42801Y59157D01*
X42755Y59178D01*
X42709Y59198D01*
X42653Y59219D01*
X42587Y59234D01*
X42511Y59254D01*
X42429Y59269D01*
X42337Y59285D01*
X42240Y59295D01*
X42128Y59305D01*
X39971D01*
Y59774D01*
X42097D01*
X42143Y59769D01*
D02*
G37*
G36*
X5000Y30315D02*
X4944D01*
X4903Y30320D01*
X4857Y30325D01*
X4806Y30335D01*
X4755Y30346D01*
X4699Y30366D01*
X4694D01*
X4689Y30371D01*
X4658Y30381D01*
X4612Y30402D01*
X4551Y30432D01*
X4480Y30473D01*
X4398Y30524D01*
X4317Y30580D01*
X4230Y30652D01*
X4225D01*
X4220Y30662D01*
X4189Y30687D01*
X4143Y30733D01*
X4077Y30799D01*
X4000Y30876D01*
X3909Y30973D01*
X3807Y31090D01*
X3700Y31218D01*
X3694Y31223D01*
X3679Y31243D01*
X3654Y31274D01*
X3623Y31310D01*
X3582Y31355D01*
X3536Y31411D01*
X3485Y31468D01*
X3429Y31534D01*
X3307Y31661D01*
X3184Y31789D01*
X3123Y31850D01*
X3062Y31906D01*
X3006Y31957D01*
X2950Y31998D01*
X2945D01*
X2940Y32008D01*
X2924Y32018D01*
X2904Y32029D01*
X2848Y32064D01*
X2781Y32105D01*
X2700Y32141D01*
X2613Y32177D01*
X2516Y32197D01*
X2424Y32207D01*
X2414D01*
X2384Y32202D01*
X2333Y32197D01*
X2277Y32182D01*
X2205Y32161D01*
X2134Y32125D01*
X2062Y32080D01*
X1991Y32018D01*
X1981Y32008D01*
X1960Y31983D01*
X1935Y31947D01*
X1899Y31891D01*
X1869Y31819D01*
X1838Y31738D01*
X1818Y31641D01*
X1812Y31534D01*
Y31529D01*
Y31519D01*
Y31503D01*
X1818Y31483D01*
X1823Y31422D01*
X1838Y31350D01*
X1858Y31274D01*
X1894Y31187D01*
X1940Y31106D01*
X2001Y31029D01*
X2011Y31019D01*
X2037Y30998D01*
X2078Y30968D01*
X2139Y30937D01*
X2210Y30902D01*
X2302Y30871D01*
X2404Y30850D01*
X2521Y30840D01*
X2475Y30397D01*
X2470D01*
X2455Y30402D01*
X2430D01*
X2394Y30407D01*
X2353Y30417D01*
X2307Y30427D01*
X2251Y30443D01*
X2195Y30458D01*
X2073Y30499D01*
X1950Y30560D01*
X1889Y30595D01*
X1828Y30641D01*
X1772Y30687D01*
X1721Y30738D01*
X1716Y30743D01*
X1711Y30754D01*
X1695Y30769D01*
X1680Y30794D01*
X1660Y30825D01*
X1639Y30861D01*
X1614Y30902D01*
X1588Y30953D01*
X1563Y31009D01*
X1537Y31070D01*
X1517Y31136D01*
X1496Y31207D01*
X1481Y31284D01*
X1466Y31366D01*
X1461Y31452D01*
X1455Y31544D01*
Y31549D01*
Y31565D01*
Y31595D01*
X1461Y31631D01*
X1466Y31672D01*
X1471Y31723D01*
X1481Y31779D01*
X1491Y31835D01*
X1527Y31967D01*
X1578Y32100D01*
X1609Y32166D01*
X1644Y32233D01*
X1690Y32294D01*
X1741Y32350D01*
X1746Y32355D01*
X1751Y32365D01*
X1772Y32375D01*
X1792Y32396D01*
X1818Y32421D01*
X1853Y32447D01*
X1889Y32472D01*
X1935Y32503D01*
X2032Y32554D01*
X2154Y32605D01*
X2215Y32625D01*
X2287Y32636D01*
X2358Y32646D01*
X2435Y32651D01*
X2470D01*
X2511Y32646D01*
X2567Y32641D01*
X2629Y32630D01*
X2700Y32610D01*
X2776Y32590D01*
X2853Y32559D01*
X2863Y32554D01*
X2889Y32544D01*
X2929Y32523D01*
X2985Y32493D01*
X3047Y32452D01*
X3123Y32401D01*
X3200Y32340D01*
X3286Y32268D01*
X3297Y32258D01*
X3327Y32233D01*
X3353Y32207D01*
X3378Y32182D01*
X3409Y32151D01*
X3450Y32110D01*
X3490Y32069D01*
X3536Y32018D01*
X3587Y31967D01*
X3643Y31906D01*
X3700Y31840D01*
X3766Y31769D01*
X3832Y31687D01*
X3903Y31605D01*
X3909Y31600D01*
X3919Y31590D01*
X3934Y31570D01*
X3954Y31544D01*
X3985Y31514D01*
X4016Y31478D01*
X4082Y31396D01*
X4158Y31310D01*
X4235Y31228D01*
X4301Y31157D01*
X4327Y31126D01*
X4352Y31100D01*
X4357Y31095D01*
X4373Y31080D01*
X4393Y31060D01*
X4424Y31034D01*
X4459Y31009D01*
X4495Y30978D01*
X4582Y30917D01*
Y32656D01*
X5000D01*
Y30315D01*
D02*
G37*
G36*
X3643Y29769D02*
X3694D01*
X3756Y29764D01*
X3817Y29759D01*
X3954Y29744D01*
X4097Y29723D01*
X4235Y29693D01*
X4301Y29672D01*
X4363Y29652D01*
X4368D01*
X4378Y29647D01*
X4393Y29637D01*
X4414Y29627D01*
X4470Y29596D01*
X4541Y29550D01*
X4623Y29489D01*
X4704Y29417D01*
X4791Y29326D01*
X4867Y29213D01*
Y29208D01*
X4878Y29198D01*
X4883Y29183D01*
X4898Y29157D01*
X4913Y29127D01*
X4929Y29086D01*
X4944Y29045D01*
X4964Y28994D01*
X4985Y28938D01*
X5000Y28877D01*
X5015Y28811D01*
X5031Y28734D01*
X5041Y28657D01*
X5051Y28576D01*
X5061Y28392D01*
Y28387D01*
Y28372D01*
Y28346D01*
X5056Y28311D01*
Y28270D01*
X5051Y28219D01*
X5046Y28163D01*
X5041Y28107D01*
X5020Y27979D01*
X4990Y27841D01*
X4949Y27709D01*
X4893Y27581D01*
Y27576D01*
X4883Y27566D01*
X4873Y27551D01*
X4862Y27530D01*
X4822Y27474D01*
X4765Y27408D01*
X4694Y27332D01*
X4612Y27260D01*
X4510Y27189D01*
X4398Y27133D01*
X4393D01*
X4383Y27128D01*
X4363Y27122D01*
X4337Y27112D01*
X4306Y27102D01*
X4266Y27092D01*
X4220Y27077D01*
X4164Y27066D01*
X4102Y27056D01*
X4036Y27041D01*
X3965Y27031D01*
X3888Y27020D01*
X3802Y27010D01*
X3710Y27005D01*
X3613Y27000D01*
X1471D01*
Y27469D01*
X3587D01*
X3623Y27474D01*
X3669D01*
X3766Y27479D01*
X3878Y27490D01*
X3990Y27505D01*
X4097Y27525D01*
X4143Y27536D01*
X4189Y27551D01*
X4199Y27556D01*
X4225Y27566D01*
X4261Y27592D01*
X4312Y27622D01*
X4363Y27658D01*
X4419Y27709D01*
X4475Y27770D01*
X4521Y27841D01*
X4526Y27852D01*
X4541Y27877D01*
X4556Y27923D01*
X4577Y27984D01*
X4602Y28056D01*
X4617Y28148D01*
X4633Y28244D01*
X4638Y28352D01*
Y28357D01*
Y28372D01*
Y28403D01*
X4633Y28433D01*
Y28479D01*
X4628Y28525D01*
X4607Y28637D01*
X4582Y28760D01*
X4541Y28877D01*
X4485Y28989D01*
X4449Y29040D01*
X4408Y29086D01*
X4403Y29091D01*
X4398Y29096D01*
X4383Y29106D01*
X4363Y29122D01*
X4332Y29137D01*
X4301Y29157D01*
X4255Y29178D01*
X4210Y29198D01*
X4153Y29219D01*
X4087Y29234D01*
X4011Y29254D01*
X3929Y29269D01*
X3837Y29285D01*
X3740Y29295D01*
X3628Y29305D01*
X1471D01*
Y29774D01*
X3598D01*
X3643Y29769D01*
D02*
G37*
G36*
X5512Y83173D02*
Y82714D01*
X2824Y81974D01*
X2819D01*
X2809Y81969D01*
X2794Y81964D01*
X2768Y81959D01*
X2712Y81944D01*
X2646Y81928D01*
X2574Y81908D01*
X2508Y81888D01*
X2452Y81872D01*
X2426Y81867D01*
X2411Y81862D01*
X2416D01*
X2421Y81857D01*
X2452Y81852D01*
X2498Y81842D01*
X2554Y81826D01*
X2615Y81811D01*
X2686Y81791D01*
X2758Y81775D01*
X2824Y81755D01*
X5512Y81010D01*
Y80521D01*
X1983Y79598D01*
Y80082D01*
X4298Y80607D01*
X4303D01*
X4313Y80612D01*
X4334Y80618D01*
X4359Y80623D01*
X4395Y80628D01*
X4431Y80638D01*
X4476Y80648D01*
X4527Y80658D01*
X4635Y80684D01*
X4757Y80709D01*
X4890Y80735D01*
X5022Y80760D01*
X5017D01*
X4997Y80765D01*
X4971Y80776D01*
X4930Y80781D01*
X4890Y80791D01*
X4839Y80806D01*
X4726Y80832D01*
X4614Y80862D01*
X4558Y80873D01*
X4507Y80888D01*
X4461Y80898D01*
X4420Y80908D01*
X4390Y80919D01*
X4369Y80924D01*
X1983Y81592D01*
Y82158D01*
X3773Y82658D01*
X3778D01*
X3803Y82668D01*
X3839Y82678D01*
X3885Y82688D01*
X3946Y82704D01*
X4012Y82724D01*
X4089Y82744D01*
X4176Y82765D01*
X4273Y82790D01*
X4369Y82811D01*
X4578Y82857D01*
X4798Y82902D01*
X5022Y82938D01*
X5017D01*
X5007Y82943D01*
X4986D01*
X4961Y82953D01*
X4930Y82959D01*
X4895Y82969D01*
X4849Y82974D01*
X4798Y82989D01*
X4686Y83015D01*
X4553Y83045D01*
X4410Y83076D01*
X4252Y83117D01*
X1983Y83667D01*
Y84142D01*
X5512Y83173D01*
D02*
G37*
G36*
X4624Y79271D02*
X4696Y79261D01*
X4777Y79241D01*
X4864Y79215D01*
X4956Y79174D01*
X5053Y79118D01*
X5058D01*
X5063Y79113D01*
X5094Y79088D01*
X5139Y79052D01*
X5190Y79001D01*
X5252Y78935D01*
X5318Y78853D01*
X5379Y78761D01*
X5435Y78654D01*
Y78649D01*
X5440Y78639D01*
X5446Y78623D01*
X5456Y78603D01*
X5466Y78572D01*
X5481Y78537D01*
X5502Y78455D01*
X5527Y78358D01*
X5553Y78241D01*
X5568Y78114D01*
X5573Y77976D01*
Y77971D01*
Y77955D01*
Y77930D01*
Y77894D01*
X5568Y77853D01*
Y77807D01*
X5563Y77757D01*
X5558Y77695D01*
X5537Y77568D01*
X5517Y77435D01*
X5481Y77303D01*
X5435Y77175D01*
Y77170D01*
X5430Y77160D01*
X5420Y77144D01*
X5410Y77124D01*
X5379Y77063D01*
X5333Y76991D01*
X5272Y76910D01*
X5201Y76823D01*
X5114Y76742D01*
X5017Y76665D01*
X5012D01*
X5002Y76655D01*
X4986Y76650D01*
X4966Y76635D01*
X4941Y76624D01*
X4910Y76609D01*
X4834Y76573D01*
X4737Y76538D01*
X4629Y76507D01*
X4507Y76487D01*
X4380Y76476D01*
X4339Y76915D01*
X4349D01*
X4364Y76920D01*
X4385D01*
X4431Y76930D01*
X4497Y76946D01*
X4563Y76966D01*
X4640Y76986D01*
X4711Y77022D01*
X4777Y77058D01*
X4783Y77063D01*
X4803Y77078D01*
X4839Y77104D01*
X4874Y77144D01*
X4920Y77196D01*
X4966Y77252D01*
X5012Y77328D01*
X5053Y77410D01*
Y77415D01*
X5058Y77420D01*
X5063Y77435D01*
X5068Y77451D01*
X5083Y77501D01*
X5104Y77568D01*
X5124Y77649D01*
X5139Y77741D01*
X5150Y77843D01*
X5155Y77955D01*
Y77960D01*
Y77966D01*
Y77981D01*
Y78001D01*
X5150Y78052D01*
X5145Y78114D01*
X5134Y78185D01*
X5124Y78267D01*
X5104Y78348D01*
X5078Y78425D01*
X5073Y78435D01*
X5063Y78460D01*
X5043Y78496D01*
X5022Y78542D01*
X4986Y78588D01*
X4951Y78639D01*
X4910Y78690D01*
X4859Y78731D01*
X4854Y78736D01*
X4834Y78746D01*
X4808Y78761D01*
X4767Y78782D01*
X4726Y78802D01*
X4675Y78817D01*
X4619Y78828D01*
X4558Y78833D01*
X4527D01*
X4497Y78828D01*
X4456Y78822D01*
X4415Y78807D01*
X4364Y78792D01*
X4313Y78766D01*
X4267Y78731D01*
X4262Y78725D01*
X4247Y78710D01*
X4227Y78690D01*
X4196Y78654D01*
X4165Y78613D01*
X4130Y78557D01*
X4094Y78491D01*
X4063Y78414D01*
X4058Y78409D01*
X4053Y78384D01*
X4038Y78343D01*
X4033Y78317D01*
X4023Y78282D01*
X4007Y78246D01*
X3997Y78200D01*
X3982Y78149D01*
X3966Y78088D01*
X3951Y78027D01*
X3931Y77955D01*
X3910Y77874D01*
X3890Y77787D01*
Y77782D01*
X3885Y77767D01*
X3880Y77741D01*
X3870Y77711D01*
X3859Y77670D01*
X3849Y77624D01*
X3819Y77522D01*
X3783Y77410D01*
X3747Y77292D01*
X3712Y77190D01*
X3691Y77144D01*
X3671Y77104D01*
Y77099D01*
X3666Y77093D01*
X3645Y77063D01*
X3620Y77017D01*
X3579Y76966D01*
X3533Y76905D01*
X3477Y76844D01*
X3411Y76782D01*
X3339Y76731D01*
X3329Y76726D01*
X3303Y76711D01*
X3263Y76691D01*
X3212Y76670D01*
X3145Y76650D01*
X3069Y76629D01*
X2987Y76614D01*
X2901Y76609D01*
X2855D01*
X2804Y76619D01*
X2737Y76629D01*
X2661Y76645D01*
X2574Y76670D01*
X2488Y76706D01*
X2401Y76757D01*
X2396D01*
X2391Y76762D01*
X2360Y76788D01*
X2319Y76823D01*
X2268Y76869D01*
X2212Y76930D01*
X2151Y77007D01*
X2095Y77099D01*
X2044Y77201D01*
Y77206D01*
X2039Y77216D01*
X2034Y77231D01*
X2023Y77252D01*
X2013Y77277D01*
X2003Y77313D01*
X1983Y77389D01*
X1962Y77486D01*
X1942Y77598D01*
X1926Y77716D01*
X1921Y77848D01*
Y77853D01*
Y77864D01*
Y77889D01*
Y77915D01*
X1926Y77950D01*
Y77986D01*
X1937Y78083D01*
X1952Y78190D01*
X1977Y78302D01*
X2008Y78425D01*
X2049Y78537D01*
Y78542D01*
X2054Y78552D01*
X2064Y78567D01*
X2074Y78588D01*
X2100Y78639D01*
X2146Y78705D01*
X2197Y78782D01*
X2263Y78858D01*
X2340Y78930D01*
X2426Y78996D01*
X2431D01*
X2437Y79001D01*
X2452Y79011D01*
X2467Y79021D01*
X2518Y79047D01*
X2584Y79077D01*
X2666Y79113D01*
X2763Y79139D01*
X2865Y79164D01*
X2977Y79174D01*
X3013Y78725D01*
X2998D01*
X2982Y78720D01*
X2957Y78715D01*
X2901Y78700D01*
X2824Y78680D01*
X2743Y78649D01*
X2661Y78603D01*
X2584Y78547D01*
X2513Y78476D01*
X2508Y78465D01*
X2488Y78440D01*
X2457Y78389D01*
X2426Y78323D01*
X2396Y78236D01*
X2365Y78134D01*
X2345Y78006D01*
X2340Y77864D01*
Y77859D01*
Y77843D01*
Y77823D01*
Y77792D01*
X2345Y77762D01*
X2350Y77721D01*
X2360Y77629D01*
X2380Y77527D01*
X2406Y77425D01*
X2447Y77328D01*
X2472Y77287D01*
X2498Y77246D01*
X2503Y77236D01*
X2523Y77216D01*
X2559Y77185D01*
X2600Y77155D01*
X2656Y77119D01*
X2717Y77088D01*
X2788Y77068D01*
X2870Y77058D01*
X2901D01*
X2936Y77063D01*
X2977Y77073D01*
X3028Y77088D01*
X3079Y77114D01*
X3130Y77144D01*
X3181Y77190D01*
X3186Y77196D01*
X3201Y77221D01*
X3217Y77241D01*
X3227Y77262D01*
X3242Y77292D01*
X3263Y77328D01*
X3278Y77374D01*
X3298Y77425D01*
X3319Y77481D01*
X3344Y77547D01*
X3365Y77619D01*
X3390Y77700D01*
X3411Y77792D01*
X3436Y77894D01*
Y77899D01*
X3441Y77920D01*
X3446Y77950D01*
X3457Y77986D01*
X3467Y78032D01*
X3482Y78088D01*
X3497Y78144D01*
X3513Y78205D01*
X3548Y78338D01*
X3584Y78465D01*
X3604Y78527D01*
X3625Y78583D01*
X3640Y78634D01*
X3661Y78675D01*
Y78680D01*
X3666Y78690D01*
X3676Y78705D01*
X3686Y78725D01*
X3717Y78782D01*
X3757Y78848D01*
X3813Y78924D01*
X3875Y79001D01*
X3946Y79072D01*
X4023Y79133D01*
X4033Y79139D01*
X4058Y79159D01*
X4104Y79179D01*
X4165Y79210D01*
X4237Y79236D01*
X4324Y79261D01*
X4420Y79276D01*
X4522Y79281D01*
X4568D01*
X4624Y79271D01*
D02*
G37*
G36*
X43500Y61575D02*
X40741D01*
X40746Y61570D01*
X40766Y61544D01*
X40797Y61514D01*
X40833Y61462D01*
X40879Y61406D01*
X40930Y61335D01*
X40986Y61253D01*
X41042Y61162D01*
Y61156D01*
X41047Y61151D01*
X41067Y61121D01*
X41093Y61070D01*
X41123Y61009D01*
X41159Y60937D01*
X41195Y60861D01*
X41230Y60784D01*
X41261Y60708D01*
X40843D01*
Y60713D01*
X40833Y60723D01*
X40828Y60743D01*
X40812Y60769D01*
X40797Y60799D01*
X40777Y60835D01*
X40726Y60922D01*
X40670Y61024D01*
X40598Y61126D01*
X40516Y61233D01*
X40430Y61340D01*
X40425Y61345D01*
X40420Y61350D01*
X40404Y61366D01*
X40389Y61386D01*
X40338Y61432D01*
X40277Y61493D01*
X40205Y61554D01*
X40124Y61621D01*
X40042Y61677D01*
X39955Y61728D01*
Y62008D01*
X43500D01*
Y61575D01*
D02*
G37*
G36*
X78824Y79611D02*
X76739D01*
Y78535D01*
X78692D01*
Y78117D01*
X76739D01*
Y76918D01*
X78906D01*
Y76500D01*
X76269D01*
Y80029D01*
X78824D01*
Y79611D01*
D02*
G37*
G36*
X73969Y76918D02*
X75708D01*
Y76500D01*
X73500D01*
Y80029D01*
X73969D01*
Y76918D01*
D02*
G37*
G36*
X41508Y27000D02*
X41075D01*
Y29759D01*
X41070Y29754D01*
X41044Y29734D01*
X41014Y29703D01*
X40962Y29667D01*
X40906Y29621D01*
X40835Y29570D01*
X40753Y29514D01*
X40662Y29458D01*
X40657D01*
X40651Y29453D01*
X40621Y29433D01*
X40570Y29407D01*
X40509Y29377D01*
X40437Y29341D01*
X40361Y29305D01*
X40284Y29269D01*
X40208Y29239D01*
Y29657D01*
X40213D01*
X40223Y29667D01*
X40243Y29672D01*
X40269Y29688D01*
X40299Y29703D01*
X40335Y29723D01*
X40422Y29774D01*
X40524Y29831D01*
X40626Y29902D01*
X40733Y29983D01*
X40840Y30070D01*
X40845Y30075D01*
X40850Y30080D01*
X40866Y30096D01*
X40886Y30111D01*
X40932Y30162D01*
X40993Y30223D01*
X41054Y30295D01*
X41121Y30376D01*
X41177Y30458D01*
X41228Y30544D01*
X41508D01*
Y27000D01*
D02*
G37*
G36*
X105900Y85744D02*
X106379D01*
Y85347D01*
X105900D01*
Y84500D01*
X105466D01*
Y85347D01*
X103931D01*
Y85744D01*
X105548Y88029D01*
X105900D01*
Y85744D01*
D02*
G37*
G36*
X84567Y76500D02*
X84133D01*
Y79259D01*
X84128Y79254D01*
X84103Y79234D01*
X84072Y79203D01*
X84021Y79167D01*
X83965Y79121D01*
X83894Y79070D01*
X83812Y79014D01*
X83720Y78958D01*
X83715D01*
X83710Y78953D01*
X83680Y78933D01*
X83629Y78907D01*
X83567Y78877D01*
X83496Y78841D01*
X83420Y78805D01*
X83343Y78769D01*
X83267Y78739D01*
Y79157D01*
X83272D01*
X83282Y79167D01*
X83302Y79172D01*
X83328Y79188D01*
X83358Y79203D01*
X83394Y79223D01*
X83481Y79274D01*
X83583Y79330D01*
X83685Y79402D01*
X83792Y79483D01*
X83899Y79570D01*
X83904Y79575D01*
X83909Y79580D01*
X83924Y79596D01*
X83945Y79611D01*
X83991Y79662D01*
X84052Y79723D01*
X84113Y79795D01*
X84179Y79876D01*
X84236Y79958D01*
X84286Y80045D01*
X84567D01*
Y76500D01*
D02*
G37*
G36*
X81002Y80024D02*
X81104Y80019D01*
X81206Y80009D01*
X81308Y79993D01*
X81395Y79978D01*
X81400D01*
X81410Y79973D01*
X81425D01*
X81446Y79963D01*
X81502Y79948D01*
X81573Y79922D01*
X81655Y79886D01*
X81742Y79840D01*
X81828Y79790D01*
X81910Y79723D01*
X81915Y79718D01*
X81920Y79713D01*
X81935Y79698D01*
X81956Y79682D01*
X82007Y79631D01*
X82068Y79560D01*
X82134Y79473D01*
X82206Y79371D01*
X82272Y79254D01*
X82328Y79121D01*
Y79116D01*
X82333Y79106D01*
X82343Y79086D01*
X82349Y79055D01*
X82364Y79019D01*
X82374Y78979D01*
X82384Y78933D01*
X82399Y78877D01*
X82415Y78821D01*
X82425Y78754D01*
X82450Y78611D01*
X82466Y78453D01*
X82471Y78280D01*
Y78275D01*
Y78265D01*
Y78239D01*
Y78214D01*
X82466Y78178D01*
Y78137D01*
X82461Y78040D01*
X82445Y77928D01*
X82430Y77811D01*
X82405Y77688D01*
X82374Y77566D01*
Y77561D01*
X82369Y77551D01*
X82364Y77535D01*
X82359Y77515D01*
X82338Y77459D01*
X82308Y77387D01*
X82277Y77306D01*
X82236Y77224D01*
X82185Y77138D01*
X82134Y77056D01*
X82129Y77046D01*
X82109Y77020D01*
X82078Y76985D01*
X82037Y76939D01*
X81991Y76888D01*
X81935Y76837D01*
X81879Y76780D01*
X81813Y76735D01*
X81803Y76730D01*
X81782Y76714D01*
X81747Y76694D01*
X81696Y76668D01*
X81634Y76638D01*
X81563Y76612D01*
X81481Y76582D01*
X81390Y76556D01*
X81379D01*
X81364Y76551D01*
X81349Y76546D01*
X81298Y76541D01*
X81226Y76531D01*
X81145Y76520D01*
X81048Y76510D01*
X80941Y76505D01*
X80824Y76500D01*
X79554D01*
Y80029D01*
X80910D01*
X81002Y80024D01*
D02*
G37*
G36*
X83090Y87039D02*
X83156Y87029D01*
X83238Y87014D01*
X83330Y86988D01*
X83421Y86958D01*
X83513Y86917D01*
X83518D01*
X83523Y86912D01*
X83554Y86897D01*
X83600Y86866D01*
X83651Y86830D01*
X83712Y86779D01*
X83773Y86723D01*
X83835Y86657D01*
X83886Y86580D01*
X83891Y86570D01*
X83906Y86545D01*
X83926Y86499D01*
X83952Y86443D01*
X83977Y86376D01*
X83998Y86300D01*
X84013Y86213D01*
X84018Y86127D01*
Y86116D01*
Y86086D01*
X84013Y86045D01*
X84003Y85989D01*
X83988Y85922D01*
X83962Y85851D01*
X83931Y85780D01*
X83891Y85708D01*
X83886Y85698D01*
X83870Y85678D01*
X83840Y85642D01*
X83799Y85601D01*
X83748Y85555D01*
X83687Y85504D01*
X83615Y85458D01*
X83529Y85413D01*
X83534D01*
X83544Y85407D01*
X83559Y85402D01*
X83580Y85397D01*
X83636Y85377D01*
X83707Y85346D01*
X83789Y85305D01*
X83870Y85254D01*
X83947Y85188D01*
X84018Y85112D01*
X84023Y85101D01*
X84044Y85071D01*
X84074Y85020D01*
X84105Y84953D01*
X84136Y84872D01*
X84166Y84775D01*
X84187Y84663D01*
X84192Y84540D01*
Y84535D01*
Y84520D01*
Y84495D01*
X84187Y84464D01*
X84181Y84423D01*
X84171Y84377D01*
X84161Y84326D01*
X84151Y84270D01*
X84110Y84148D01*
X84079Y84081D01*
X84049Y84020D01*
X84008Y83954D01*
X83962Y83888D01*
X83911Y83821D01*
X83850Y83760D01*
X83845Y83755D01*
X83835Y83745D01*
X83814Y83729D01*
X83789Y83709D01*
X83758Y83684D01*
X83717Y83658D01*
X83671Y83627D01*
X83615Y83602D01*
X83559Y83571D01*
X83493Y83541D01*
X83427Y83515D01*
X83350Y83490D01*
X83268Y83469D01*
X83182Y83454D01*
X83095Y83444D01*
X82998Y83439D01*
X82952D01*
X82922Y83444D01*
X82881Y83449D01*
X82835Y83454D01*
X82784Y83464D01*
X82728Y83474D01*
X82605Y83505D01*
X82478Y83556D01*
X82412Y83587D01*
X82350Y83622D01*
X82289Y83668D01*
X82228Y83714D01*
X82223Y83719D01*
X82213Y83729D01*
X82197Y83745D01*
X82182Y83765D01*
X82157Y83791D01*
X82131Y83826D01*
X82101Y83862D01*
X82070Y83908D01*
X82039Y83959D01*
X82009Y84010D01*
X81953Y84132D01*
X81907Y84275D01*
X81892Y84352D01*
X81881Y84433D01*
X82315Y84489D01*
Y84484D01*
X82320Y84474D01*
X82325Y84454D01*
X82330Y84428D01*
X82335Y84398D01*
X82345Y84362D01*
X82371Y84285D01*
X82407Y84194D01*
X82452Y84107D01*
X82503Y84025D01*
X82565Y83954D01*
X82575Y83949D01*
X82595Y83928D01*
X82636Y83903D01*
X82687Y83877D01*
X82748Y83847D01*
X82825Y83821D01*
X82911Y83801D01*
X83003Y83796D01*
X83034D01*
X83054Y83801D01*
X83110Y83806D01*
X83182Y83821D01*
X83263Y83847D01*
X83350Y83882D01*
X83437Y83934D01*
X83518Y84005D01*
X83529Y84015D01*
X83554Y84046D01*
X83585Y84092D01*
X83626Y84153D01*
X83666Y84229D01*
X83697Y84316D01*
X83722Y84418D01*
X83733Y84530D01*
Y84535D01*
Y84545D01*
Y84561D01*
X83728Y84581D01*
X83722Y84637D01*
X83707Y84704D01*
X83687Y84785D01*
X83651Y84867D01*
X83600Y84948D01*
X83534Y85025D01*
X83523Y85035D01*
X83498Y85056D01*
X83457Y85086D01*
X83401Y85122D01*
X83330Y85158D01*
X83243Y85188D01*
X83146Y85208D01*
X83039Y85219D01*
X82993D01*
X82957Y85214D01*
X82911Y85208D01*
X82860Y85198D01*
X82799Y85188D01*
X82733Y85173D01*
X82784Y85555D01*
X82810D01*
X82830Y85550D01*
X82896D01*
X82952Y85560D01*
X83019Y85571D01*
X83095Y85586D01*
X83182Y85611D01*
X83263Y85647D01*
X83350Y85693D01*
X83355D01*
X83360Y85698D01*
X83386Y85719D01*
X83421Y85754D01*
X83462Y85800D01*
X83503Y85866D01*
X83539Y85943D01*
X83564Y86030D01*
X83574Y86081D01*
Y86137D01*
Y86142D01*
Y86147D01*
Y86177D01*
X83564Y86218D01*
X83554Y86274D01*
X83534Y86336D01*
X83508Y86402D01*
X83467Y86468D01*
X83411Y86529D01*
X83406Y86535D01*
X83381Y86555D01*
X83345Y86580D01*
X83299Y86611D01*
X83238Y86637D01*
X83166Y86662D01*
X83085Y86682D01*
X82993Y86687D01*
X82952D01*
X82906Y86677D01*
X82845Y86667D01*
X82779Y86647D01*
X82713Y86621D01*
X82641Y86580D01*
X82575Y86529D01*
X82570Y86524D01*
X82549Y86499D01*
X82519Y86463D01*
X82483Y86412D01*
X82447Y86346D01*
X82412Y86264D01*
X82381Y86167D01*
X82361Y86055D01*
X81927Y86132D01*
Y86137D01*
X81932Y86152D01*
X81937Y86172D01*
X81942Y86203D01*
X81953Y86239D01*
X81968Y86279D01*
X81999Y86376D01*
X82050Y86489D01*
X82111Y86601D01*
X82187Y86708D01*
X82284Y86805D01*
X82289Y86810D01*
X82300Y86815D01*
X82315Y86825D01*
X82335Y86840D01*
X82361Y86861D01*
X82396Y86881D01*
X82432Y86902D01*
X82478Y86927D01*
X82580Y86968D01*
X82697Y87009D01*
X82835Y87034D01*
X82906Y87045D01*
X83034D01*
X83090Y87039D01*
D02*
G37*
G36*
X80178Y87024D02*
X80224D01*
X80331Y87019D01*
X80443Y87004D01*
X80566Y86988D01*
X80678Y86963D01*
X80734Y86948D01*
X80780Y86932D01*
X80785D01*
X80790Y86927D01*
X80821Y86912D01*
X80866Y86892D01*
X80923Y86856D01*
X80984Y86810D01*
X81050Y86749D01*
X81111Y86677D01*
X81172Y86596D01*
Y86591D01*
X81178Y86585D01*
X81198Y86555D01*
X81218Y86504D01*
X81249Y86438D01*
X81274Y86361D01*
X81300Y86269D01*
X81315Y86172D01*
X81320Y86065D01*
Y86060D01*
Y86050D01*
Y86030D01*
X81315Y86004D01*
Y85968D01*
X81310Y85933D01*
X81290Y85846D01*
X81259Y85744D01*
X81218Y85637D01*
X81157Y85530D01*
X81116Y85479D01*
X81076Y85428D01*
X81070Y85423D01*
X81065Y85418D01*
X81050Y85402D01*
X81030Y85387D01*
X81004Y85367D01*
X80974Y85346D01*
X80933Y85321D01*
X80892Y85290D01*
X80841Y85265D01*
X80785Y85239D01*
X80724Y85208D01*
X80657Y85183D01*
X80581Y85163D01*
X80504Y85137D01*
X80418Y85122D01*
X80326Y85106D01*
X80336Y85101D01*
X80356Y85091D01*
X80387Y85071D01*
X80428Y85050D01*
X80520Y84994D01*
X80566Y84959D01*
X80606Y84928D01*
X80616Y84918D01*
X80642Y84892D01*
X80683Y84851D01*
X80734Y84800D01*
X80790Y84729D01*
X80856Y84653D01*
X80923Y84561D01*
X80994Y84459D01*
X81601Y83500D01*
X81019D01*
X80555Y84234D01*
Y84240D01*
X80545Y84250D01*
X80535Y84265D01*
X80520Y84285D01*
X80484Y84342D01*
X80438Y84413D01*
X80382Y84489D01*
X80326Y84571D01*
X80270Y84648D01*
X80219Y84719D01*
X80214Y84724D01*
X80198Y84744D01*
X80173Y84775D01*
X80137Y84811D01*
X80061Y84887D01*
X80020Y84923D01*
X79979Y84953D01*
X79974Y84959D01*
X79964Y84964D01*
X79943Y84974D01*
X79913Y84989D01*
X79882Y85005D01*
X79846Y85020D01*
X79765Y85045D01*
X79760D01*
X79750Y85050D01*
X79729D01*
X79704Y85056D01*
X79668Y85061D01*
X79627D01*
X79571Y85066D01*
X78969D01*
Y83500D01*
X78500D01*
Y87029D01*
X80137D01*
X80178Y87024D01*
D02*
G37*
G36*
X94500Y75438D02*
X90971D01*
Y75907D01*
X94082D01*
Y77646D01*
X94500D01*
Y75438D01*
D02*
G37*
G36*
X38178Y30524D02*
X38224D01*
X38331Y30519D01*
X38443Y30504D01*
X38565Y30488D01*
X38678Y30463D01*
X38734Y30448D01*
X38780Y30432D01*
X38785D01*
X38790Y30427D01*
X38820Y30412D01*
X38866Y30391D01*
X38923Y30356D01*
X38984Y30310D01*
X39050Y30249D01*
X39111Y30177D01*
X39172Y30096D01*
Y30091D01*
X39178Y30086D01*
X39198Y30055D01*
X39218Y30004D01*
X39249Y29938D01*
X39274Y29861D01*
X39300Y29769D01*
X39315Y29672D01*
X39320Y29565D01*
Y29560D01*
Y29550D01*
Y29530D01*
X39315Y29504D01*
Y29468D01*
X39310Y29433D01*
X39290Y29346D01*
X39259Y29244D01*
X39218Y29137D01*
X39157Y29030D01*
X39116Y28979D01*
X39075Y28928D01*
X39070Y28923D01*
X39065Y28918D01*
X39050Y28902D01*
X39030Y28887D01*
X39004Y28867D01*
X38974Y28846D01*
X38933Y28821D01*
X38892Y28790D01*
X38841Y28765D01*
X38785Y28739D01*
X38724Y28708D01*
X38657Y28683D01*
X38581Y28663D01*
X38504Y28637D01*
X38418Y28622D01*
X38326Y28607D01*
X38336Y28601D01*
X38356Y28591D01*
X38387Y28571D01*
X38428Y28550D01*
X38520Y28494D01*
X38565Y28459D01*
X38606Y28428D01*
X38616Y28418D01*
X38642Y28392D01*
X38683Y28352D01*
X38734Y28300D01*
X38790Y28229D01*
X38856Y28153D01*
X38923Y28061D01*
X38994Y27959D01*
X39601Y27000D01*
X39019D01*
X38555Y27734D01*
Y27740D01*
X38545Y27750D01*
X38535Y27765D01*
X38520Y27785D01*
X38484Y27841D01*
X38438Y27913D01*
X38382Y27989D01*
X38326Y28071D01*
X38270Y28148D01*
X38219Y28219D01*
X38214Y28224D01*
X38198Y28244D01*
X38173Y28275D01*
X38137Y28311D01*
X38061Y28387D01*
X38020Y28423D01*
X37979Y28453D01*
X37974Y28459D01*
X37964Y28464D01*
X37943Y28474D01*
X37913Y28489D01*
X37882Y28504D01*
X37846Y28520D01*
X37765Y28545D01*
X37760D01*
X37749Y28550D01*
X37729D01*
X37704Y28556D01*
X37668Y28561D01*
X37627D01*
X37571Y28566D01*
X36969D01*
Y27000D01*
X36500D01*
Y30529D01*
X38137D01*
X38178Y30524D01*
D02*
G37*
G36*
X25631Y74039D02*
X25672Y74034D01*
X25723Y74029D01*
X25779Y74019D01*
X25835Y74009D01*
X25967Y73973D01*
X26100Y73922D01*
X26166Y73892D01*
X26233Y73856D01*
X26294Y73810D01*
X26350Y73759D01*
X26355Y73754D01*
X26365Y73749D01*
X26375Y73728D01*
X26396Y73708D01*
X26421Y73682D01*
X26447Y73647D01*
X26472Y73611D01*
X26503Y73565D01*
X26554Y73468D01*
X26605Y73346D01*
X26625Y73285D01*
X26636Y73213D01*
X26646Y73142D01*
X26651Y73065D01*
Y73055D01*
Y73030D01*
X26646Y72989D01*
X26641Y72933D01*
X26630Y72872D01*
X26610Y72800D01*
X26590Y72724D01*
X26559Y72647D01*
X26554Y72637D01*
X26544Y72611D01*
X26523Y72571D01*
X26493Y72514D01*
X26452Y72453D01*
X26401Y72377D01*
X26340Y72300D01*
X26268Y72214D01*
X26258Y72203D01*
X26233Y72173D01*
X26207Y72147D01*
X26182Y72122D01*
X26151Y72091D01*
X26110Y72050D01*
X26069Y72010D01*
X26018Y71964D01*
X25967Y71913D01*
X25906Y71857D01*
X25840Y71801D01*
X25769Y71734D01*
X25687Y71668D01*
X25605Y71596D01*
X25600Y71591D01*
X25590Y71581D01*
X25570Y71566D01*
X25544Y71545D01*
X25513Y71515D01*
X25478Y71484D01*
X25396Y71418D01*
X25310Y71342D01*
X25228Y71265D01*
X25157Y71199D01*
X25126Y71173D01*
X25100Y71148D01*
X25095Y71143D01*
X25080Y71127D01*
X25060Y71107D01*
X25034Y71076D01*
X25009Y71041D01*
X24978Y71005D01*
X24917Y70918D01*
X26656D01*
Y70500D01*
X24315D01*
Y70505D01*
Y70525D01*
Y70556D01*
X24320Y70597D01*
X24325Y70643D01*
X24335Y70694D01*
X24346Y70745D01*
X24366Y70801D01*
Y70806D01*
X24371Y70811D01*
X24381Y70842D01*
X24402Y70888D01*
X24432Y70949D01*
X24473Y71020D01*
X24524Y71102D01*
X24580Y71183D01*
X24652Y71270D01*
Y71275D01*
X24662Y71280D01*
X24687Y71311D01*
X24733Y71357D01*
X24800Y71423D01*
X24876Y71500D01*
X24973Y71591D01*
X25090Y71693D01*
X25218Y71801D01*
X25223Y71806D01*
X25243Y71821D01*
X25274Y71846D01*
X25310Y71877D01*
X25355Y71918D01*
X25411Y71964D01*
X25468Y72015D01*
X25534Y72071D01*
X25661Y72193D01*
X25789Y72316D01*
X25850Y72377D01*
X25906Y72438D01*
X25957Y72494D01*
X25998Y72550D01*
Y72555D01*
X26008Y72560D01*
X26018Y72576D01*
X26029Y72596D01*
X26064Y72652D01*
X26105Y72719D01*
X26141Y72800D01*
X26177Y72887D01*
X26197Y72984D01*
X26207Y73075D01*
Y73081D01*
Y73086D01*
X26202Y73116D01*
X26197Y73167D01*
X26182Y73223D01*
X26161Y73295D01*
X26125Y73366D01*
X26080Y73438D01*
X26018Y73509D01*
X26008Y73519D01*
X25983Y73540D01*
X25947Y73565D01*
X25891Y73601D01*
X25820Y73631D01*
X25738Y73662D01*
X25641Y73682D01*
X25534Y73687D01*
X25503D01*
X25483Y73682D01*
X25422Y73677D01*
X25350Y73662D01*
X25274Y73642D01*
X25187Y73606D01*
X25106Y73560D01*
X25029Y73499D01*
X25019Y73489D01*
X24998Y73463D01*
X24968Y73422D01*
X24937Y73361D01*
X24902Y73290D01*
X24871Y73198D01*
X24850Y73096D01*
X24840Y72979D01*
X24397Y73024D01*
Y73030D01*
X24402Y73045D01*
Y73070D01*
X24407Y73106D01*
X24417Y73147D01*
X24427Y73193D01*
X24442Y73249D01*
X24458Y73305D01*
X24499Y73427D01*
X24560Y73550D01*
X24596Y73611D01*
X24641Y73672D01*
X24687Y73728D01*
X24738Y73779D01*
X24743Y73784D01*
X24754Y73790D01*
X24769Y73805D01*
X24794Y73820D01*
X24825Y73840D01*
X24861Y73861D01*
X24902Y73886D01*
X24952Y73912D01*
X25009Y73937D01*
X25070Y73963D01*
X25136Y73983D01*
X25207Y74004D01*
X25284Y74019D01*
X25366Y74034D01*
X25452Y74039D01*
X25544Y74045D01*
X25595D01*
X25631Y74039D01*
D02*
G37*
G36*
X22678Y74024D02*
X22724D01*
X22831Y74019D01*
X22943Y74004D01*
X23065Y73988D01*
X23178Y73963D01*
X23234Y73948D01*
X23280Y73932D01*
X23285D01*
X23290Y73927D01*
X23321Y73912D01*
X23366Y73892D01*
X23423Y73856D01*
X23484Y73810D01*
X23550Y73749D01*
X23611Y73677D01*
X23672Y73596D01*
Y73591D01*
X23677Y73585D01*
X23698Y73555D01*
X23718Y73504D01*
X23749Y73438D01*
X23774Y73361D01*
X23800Y73269D01*
X23815Y73172D01*
X23820Y73065D01*
Y73060D01*
Y73050D01*
Y73030D01*
X23815Y73004D01*
Y72968D01*
X23810Y72933D01*
X23790Y72846D01*
X23759Y72744D01*
X23718Y72637D01*
X23657Y72530D01*
X23616Y72479D01*
X23575Y72428D01*
X23570Y72423D01*
X23565Y72418D01*
X23550Y72402D01*
X23530Y72387D01*
X23504Y72367D01*
X23473Y72346D01*
X23433Y72321D01*
X23392Y72290D01*
X23341Y72265D01*
X23285Y72239D01*
X23224Y72208D01*
X23157Y72183D01*
X23081Y72163D01*
X23004Y72137D01*
X22918Y72122D01*
X22826Y72106D01*
X22836Y72101D01*
X22856Y72091D01*
X22887Y72071D01*
X22928Y72050D01*
X23020Y71994D01*
X23065Y71959D01*
X23106Y71928D01*
X23117Y71918D01*
X23142Y71892D01*
X23183Y71851D01*
X23234Y71801D01*
X23290Y71729D01*
X23356Y71653D01*
X23423Y71561D01*
X23494Y71459D01*
X24101Y70500D01*
X23519D01*
X23055Y71234D01*
Y71240D01*
X23045Y71250D01*
X23035Y71265D01*
X23020Y71285D01*
X22984Y71342D01*
X22938Y71413D01*
X22882Y71489D01*
X22826Y71571D01*
X22770Y71648D01*
X22719Y71719D01*
X22714Y71724D01*
X22698Y71744D01*
X22673Y71775D01*
X22637Y71811D01*
X22561Y71887D01*
X22520Y71923D01*
X22479Y71953D01*
X22474Y71959D01*
X22464Y71964D01*
X22443Y71974D01*
X22413Y71989D01*
X22382Y72004D01*
X22346Y72020D01*
X22265Y72045D01*
X22260D01*
X22250Y72050D01*
X22229D01*
X22204Y72056D01*
X22168Y72061D01*
X22127D01*
X22071Y72066D01*
X21469D01*
Y70500D01*
X21000D01*
Y74029D01*
X22637D01*
X22678Y74024D01*
D02*
G37*
G36*
X31952Y23310D02*
X28998D01*
X29003Y23305D01*
X29025Y23277D01*
X29058Y23245D01*
X29096Y23190D01*
X29145Y23130D01*
X29200Y23054D01*
X29260Y22966D01*
X29320Y22868D01*
Y22862D01*
X29325Y22857D01*
X29347Y22824D01*
X29375Y22770D01*
X29407Y22704D01*
X29445Y22628D01*
X29484Y22546D01*
X29522Y22464D01*
X29555Y22382D01*
X29107D01*
Y22387D01*
X29096Y22398D01*
X29090Y22420D01*
X29074Y22447D01*
X29058Y22480D01*
X29036Y22518D01*
X28981Y22611D01*
X28921Y22720D01*
X28845Y22830D01*
X28758Y22944D01*
X28665Y23059D01*
X28659Y23064D01*
X28654Y23070D01*
X28637Y23086D01*
X28621Y23108D01*
X28566Y23157D01*
X28501Y23223D01*
X28424Y23288D01*
X28337Y23359D01*
X28250Y23419D01*
X28157Y23474D01*
Y23774D01*
X31952D01*
Y23310D01*
D02*
G37*
G36*
X63097Y66886D02*
X61010D01*
Y65698D01*
X62814D01*
Y65243D01*
X61010D01*
Y63500D01*
X60499D01*
Y67341D01*
X63097D01*
Y66886D01*
D02*
G37*
G36*
X58662Y67352D02*
X58706Y67346D01*
X58762Y67341D01*
X58823Y67330D01*
X58884Y67318D01*
X59028Y67279D01*
X59173Y67224D01*
X59245Y67191D01*
X59317Y67152D01*
X59384Y67102D01*
X59445Y67046D01*
X59450Y67041D01*
X59461Y67035D01*
X59472Y67013D01*
X59495Y66991D01*
X59522Y66963D01*
X59550Y66924D01*
X59578Y66886D01*
X59611Y66836D01*
X59667Y66730D01*
X59722Y66597D01*
X59744Y66530D01*
X59755Y66453D01*
X59767Y66375D01*
X59772Y66292D01*
Y66281D01*
Y66253D01*
X59767Y66208D01*
X59761Y66147D01*
X59750Y66081D01*
X59728Y66003D01*
X59706Y65920D01*
X59672Y65837D01*
X59667Y65825D01*
X59656Y65798D01*
X59633Y65753D01*
X59600Y65692D01*
X59556Y65626D01*
X59500Y65542D01*
X59434Y65459D01*
X59356Y65365D01*
X59345Y65354D01*
X59317Y65320D01*
X59289Y65293D01*
X59262Y65265D01*
X59228Y65232D01*
X59184Y65187D01*
X59139Y65143D01*
X59084Y65093D01*
X59028Y65037D01*
X58962Y64976D01*
X58890Y64915D01*
X58812Y64843D01*
X58723Y64771D01*
X58634Y64693D01*
X58629Y64688D01*
X58618Y64677D01*
X58596Y64660D01*
X58568Y64638D01*
X58534Y64604D01*
X58496Y64571D01*
X58407Y64499D01*
X58312Y64416D01*
X58224Y64332D01*
X58146Y64260D01*
X58113Y64233D01*
X58085Y64205D01*
X58079Y64199D01*
X58063Y64183D01*
X58040Y64161D01*
X58013Y64127D01*
X57985Y64088D01*
X57952Y64050D01*
X57885Y63955D01*
X59778D01*
Y63500D01*
X57230D01*
Y63506D01*
Y63528D01*
Y63561D01*
X57236Y63605D01*
X57241Y63655D01*
X57252Y63711D01*
X57263Y63766D01*
X57286Y63827D01*
Y63833D01*
X57291Y63838D01*
X57302Y63872D01*
X57324Y63922D01*
X57358Y63988D01*
X57402Y64066D01*
X57458Y64155D01*
X57519Y64244D01*
X57596Y64338D01*
Y64344D01*
X57608Y64349D01*
X57635Y64382D01*
X57685Y64432D01*
X57757Y64504D01*
X57841Y64588D01*
X57946Y64688D01*
X58074Y64799D01*
X58213Y64915D01*
X58218Y64921D01*
X58240Y64938D01*
X58274Y64965D01*
X58312Y64999D01*
X58362Y65043D01*
X58424Y65093D01*
X58485Y65148D01*
X58557Y65209D01*
X58695Y65343D01*
X58834Y65476D01*
X58901Y65542D01*
X58962Y65609D01*
X59017Y65670D01*
X59062Y65731D01*
Y65737D01*
X59073Y65742D01*
X59084Y65759D01*
X59095Y65781D01*
X59134Y65842D01*
X59178Y65914D01*
X59217Y66003D01*
X59256Y66097D01*
X59278Y66203D01*
X59289Y66303D01*
Y66308D01*
Y66314D01*
X59284Y66347D01*
X59278Y66403D01*
X59262Y66464D01*
X59239Y66541D01*
X59201Y66619D01*
X59150Y66697D01*
X59084Y66774D01*
X59073Y66786D01*
X59045Y66808D01*
X59006Y66836D01*
X58945Y66874D01*
X58867Y66908D01*
X58779Y66941D01*
X58673Y66963D01*
X58557Y66969D01*
X58523D01*
X58501Y66963D01*
X58435Y66958D01*
X58357Y66941D01*
X58274Y66919D01*
X58179Y66880D01*
X58090Y66830D01*
X58007Y66763D01*
X57996Y66752D01*
X57974Y66724D01*
X57941Y66680D01*
X57907Y66614D01*
X57868Y66536D01*
X57835Y66436D01*
X57813Y66325D01*
X57802Y66197D01*
X57319Y66247D01*
Y66253D01*
X57324Y66269D01*
Y66297D01*
X57330Y66336D01*
X57341Y66380D01*
X57352Y66430D01*
X57369Y66491D01*
X57386Y66553D01*
X57430Y66686D01*
X57497Y66819D01*
X57535Y66886D01*
X57585Y66952D01*
X57635Y67013D01*
X57691Y67069D01*
X57696Y67074D01*
X57708Y67080D01*
X57724Y67096D01*
X57752Y67113D01*
X57785Y67135D01*
X57824Y67157D01*
X57868Y67185D01*
X57924Y67213D01*
X57985Y67241D01*
X58052Y67268D01*
X58124Y67291D01*
X58201Y67313D01*
X58285Y67330D01*
X58373Y67346D01*
X58468Y67352D01*
X58568Y67357D01*
X58623D01*
X58662Y67352D01*
D02*
G37*
G36*
X49505Y66886D02*
X48239D01*
Y63500D01*
X47729D01*
Y66886D01*
X46463D01*
Y67341D01*
X49505D01*
Y66886D01*
D02*
G37*
G36*
X53678Y63500D02*
X53190D01*
Y66714D01*
X52069Y63500D01*
X51614D01*
X50504Y66769D01*
Y63500D01*
X50015D01*
Y67341D01*
X50775D01*
X51686Y64615D01*
Y64610D01*
X51691Y64599D01*
X51697Y64582D01*
X51708Y64555D01*
X51730Y64488D01*
X51758Y64405D01*
X51786Y64310D01*
X51819Y64216D01*
X51847Y64127D01*
X51869Y64050D01*
X51875Y64061D01*
X51880Y64088D01*
X51897Y64138D01*
X51919Y64205D01*
X51947Y64294D01*
X51986Y64399D01*
X52024Y64521D01*
X52074Y64666D01*
X52996Y67341D01*
X53678D01*
Y63500D01*
D02*
G37*
G36*
X77782Y64854D02*
X78303D01*
Y64421D01*
X77782D01*
Y63500D01*
X77310D01*
Y64421D01*
X75639D01*
Y64854D01*
X77399Y67341D01*
X77782D01*
Y64854D01*
D02*
G37*
G36*
X75334Y66886D02*
X73247D01*
Y65698D01*
X75051D01*
Y65243D01*
X73247D01*
Y63500D01*
X72737D01*
Y67341D01*
X75334D01*
Y66886D01*
D02*
G37*
G36*
X108867Y8280D02*
X108889Y8272D01*
X108918Y8261D01*
X108950Y8250D01*
X108991Y8236D01*
X109034Y8218D01*
X109081Y8196D01*
X109183Y8145D01*
X109285Y8079D01*
X109336Y8039D01*
X109387Y7999D01*
X109431Y7956D01*
X109475Y7905D01*
X109478Y7901D01*
X109485Y7894D01*
X109493Y7875D01*
X109507Y7857D01*
X109526Y7828D01*
X109544Y7799D01*
X109562Y7759D01*
X109580Y7719D01*
X109602Y7672D01*
X109620Y7621D01*
X109638Y7566D01*
X109657Y7508D01*
X109671Y7446D01*
X109678Y7380D01*
X109686Y7311D01*
X109689Y7238D01*
Y7235D01*
Y7220D01*
Y7198D01*
X109686Y7169D01*
Y7137D01*
X109682Y7096D01*
X109675Y7053D01*
X109668Y7002D01*
X109649Y6896D01*
X109620Y6787D01*
X109580Y6678D01*
X109555Y6627D01*
X109526Y6576D01*
X109522Y6572D01*
X109518Y6565D01*
X109507Y6550D01*
X109493Y6536D01*
X109478Y6514D01*
X109456Y6489D01*
X109431Y6459D01*
X109402Y6430D01*
X109369Y6401D01*
X109336Y6368D01*
X109253Y6303D01*
X109154Y6241D01*
X109045Y6186D01*
X109041D01*
X109030Y6179D01*
X109012Y6176D01*
X108991Y6165D01*
X108961Y6157D01*
X108925Y6146D01*
X108885Y6132D01*
X108841Y6121D01*
X108794Y6110D01*
X108739Y6095D01*
X108626Y6077D01*
X108499Y6063D01*
X108368Y6055D01*
X108328D01*
X108302Y6059D01*
X108266D01*
X108230Y6063D01*
X108182Y6066D01*
X108135Y6074D01*
X108029Y6092D01*
X107913Y6117D01*
X107797Y6154D01*
X107684Y6205D01*
X107680Y6208D01*
X107669Y6212D01*
X107655Y6219D01*
X107636Y6234D01*
X107611Y6248D01*
X107582Y6267D01*
X107516Y6314D01*
X107443Y6376D01*
X107371Y6449D01*
X107298Y6532D01*
X107236Y6631D01*
X107232Y6634D01*
X107229Y6645D01*
X107221Y6660D01*
X107211Y6678D01*
X107200Y6707D01*
X107189Y6736D01*
X107174Y6773D01*
X107159Y6813D01*
X107145Y6856D01*
X107130Y6904D01*
X107109Y7006D01*
X107090Y7122D01*
X107083Y7242D01*
Y7246D01*
Y7260D01*
Y7278D01*
X107087Y7304D01*
X107090Y7337D01*
X107094Y7377D01*
X107098Y7417D01*
X107109Y7464D01*
X107130Y7563D01*
X107163Y7672D01*
X107185Y7726D01*
X107211Y7777D01*
X107243Y7828D01*
X107276Y7879D01*
X107280Y7883D01*
X107283Y7890D01*
X107294Y7905D01*
X107312Y7923D01*
X107331Y7941D01*
X107356Y7966D01*
X107385Y7992D01*
X107414Y8021D01*
X107451Y8050D01*
X107494Y8079D01*
X107538Y8112D01*
X107585Y8141D01*
X107640Y8167D01*
X107695Y8196D01*
X107753Y8218D01*
X107818Y8240D01*
X107895Y7912D01*
X107891D01*
X107884Y7908D01*
X107869Y7901D01*
X107851Y7894D01*
X107829Y7886D01*
X107800Y7875D01*
X107742Y7846D01*
X107676Y7810D01*
X107611Y7766D01*
X107549Y7712D01*
X107494Y7654D01*
X107487Y7646D01*
X107473Y7624D01*
X107454Y7588D01*
X107429Y7541D01*
X107407Y7479D01*
X107385Y7410D01*
X107371Y7326D01*
X107367Y7235D01*
Y7231D01*
Y7220D01*
Y7206D01*
X107371Y7187D01*
Y7162D01*
X107374Y7133D01*
X107385Y7064D01*
X107400Y6987D01*
X107425Y6907D01*
X107462Y6824D01*
X107509Y6747D01*
Y6743D01*
X107516Y6740D01*
X107535Y6714D01*
X107564Y6682D01*
X107607Y6641D01*
X107662Y6594D01*
X107724Y6550D01*
X107800Y6510D01*
X107884Y6474D01*
X107888D01*
X107895Y6470D01*
X107906Y6467D01*
X107924Y6463D01*
X107946Y6456D01*
X107971Y6449D01*
X108033Y6438D01*
X108106Y6423D01*
X108186Y6409D01*
X108273Y6401D01*
X108368Y6398D01*
X108423D01*
X108448Y6401D01*
X108481D01*
X108517Y6405D01*
X108557Y6409D01*
X108645Y6419D01*
X108739Y6438D01*
X108834Y6459D01*
X108929Y6489D01*
X108932D01*
X108940Y6492D01*
X108950Y6500D01*
X108969Y6507D01*
X109012Y6529D01*
X109063Y6561D01*
X109122Y6601D01*
X109183Y6652D01*
X109238Y6711D01*
X109289Y6780D01*
Y6784D01*
X109293Y6791D01*
X109300Y6802D01*
X109307Y6816D01*
X109314Y6835D01*
X109325Y6856D01*
X109347Y6907D01*
X109369Y6973D01*
X109387Y7046D01*
X109402Y7126D01*
X109405Y7209D01*
Y7213D01*
Y7220D01*
Y7235D01*
X109402Y7257D01*
Y7282D01*
X109398Y7308D01*
X109384Y7373D01*
X109365Y7450D01*
X109336Y7526D01*
X109296Y7606D01*
X109274Y7646D01*
X109245Y7683D01*
X109242Y7686D01*
X109238Y7690D01*
X109227Y7701D01*
X109216Y7715D01*
X109198Y7730D01*
X109176Y7748D01*
X109154Y7770D01*
X109125Y7788D01*
X109092Y7810D01*
X109056Y7835D01*
X109020Y7857D01*
X108976Y7879D01*
X108929Y7897D01*
X108878Y7915D01*
X108823Y7934D01*
X108765Y7948D01*
X108849Y8283D01*
X108852D01*
X108867Y8280D01*
D02*
G37*
G36*
X109646Y5247D02*
X107669Y3930D01*
X109646D01*
Y3609D01*
X107127D01*
Y3952D01*
X109107Y5273D01*
X107127D01*
Y5593D01*
X109646D01*
Y5247D01*
D02*
G37*
G36*
X107425Y1811D02*
X108204D01*
Y2994D01*
X108503D01*
Y1811D01*
X109646D01*
Y1476D01*
X107127D01*
Y3180D01*
X107425D01*
Y1811D01*
D02*
G37*
G36*
X70900Y67352D02*
X70972Y67341D01*
X71055Y67324D01*
X71144Y67302D01*
X71238Y67274D01*
X71327Y67230D01*
X71333D01*
X71338Y67224D01*
X71366Y67207D01*
X71411Y67180D01*
X71466Y67141D01*
X71527Y67085D01*
X71594Y67024D01*
X71655Y66952D01*
X71716Y66869D01*
X71721Y66858D01*
X71743Y66830D01*
X71766Y66780D01*
X71804Y66708D01*
X71838Y66625D01*
X71882Y66530D01*
X71921Y66419D01*
X71954Y66297D01*
Y66292D01*
X71960Y66281D01*
X71965Y66264D01*
X71971Y66236D01*
X71977Y66203D01*
X71982Y66164D01*
X71993Y66114D01*
X71999Y66059D01*
X72010Y65997D01*
X72015Y65931D01*
X72021Y65853D01*
X72032Y65776D01*
X72038Y65687D01*
Y65598D01*
X72043Y65498D01*
Y65393D01*
Y65387D01*
Y65365D01*
Y65326D01*
Y65282D01*
X72038Y65220D01*
Y65154D01*
X72032Y65082D01*
X72026Y65004D01*
X72010Y64826D01*
X71982Y64643D01*
X71949Y64466D01*
X71927Y64382D01*
X71899Y64299D01*
Y64294D01*
X71893Y64283D01*
X71882Y64260D01*
X71871Y64233D01*
X71860Y64194D01*
X71838Y64155D01*
X71793Y64061D01*
X71738Y63961D01*
X71666Y63850D01*
X71583Y63750D01*
X71483Y63655D01*
X71477D01*
X71472Y63644D01*
X71455Y63633D01*
X71433Y63622D01*
X71405Y63605D01*
X71377Y63583D01*
X71294Y63544D01*
X71194Y63506D01*
X71077Y63467D01*
X70939Y63445D01*
X70789Y63433D01*
X70733D01*
X70695Y63439D01*
X70650Y63445D01*
X70595Y63456D01*
X70534Y63467D01*
X70467Y63483D01*
X70400Y63506D01*
X70328Y63528D01*
X70256Y63561D01*
X70184Y63600D01*
X70112Y63644D01*
X70040Y63700D01*
X69973Y63761D01*
X69912Y63827D01*
X69906Y63833D01*
X69895Y63850D01*
X69879Y63877D01*
X69851Y63922D01*
X69823Y63972D01*
X69795Y64038D01*
X69757Y64116D01*
X69723Y64205D01*
X69690Y64305D01*
X69657Y64421D01*
X69623Y64549D01*
X69596Y64693D01*
X69568Y64849D01*
X69551Y65015D01*
X69540Y65198D01*
X69535Y65393D01*
Y65398D01*
Y65420D01*
Y65459D01*
Y65504D01*
X69540Y65565D01*
Y65631D01*
X69546Y65703D01*
X69551Y65787D01*
X69568Y65959D01*
X69596Y66142D01*
X69629Y66325D01*
X69651Y66408D01*
X69673Y66491D01*
Y66497D01*
X69679Y66508D01*
X69690Y66530D01*
X69701Y66558D01*
X69712Y66597D01*
X69734Y66636D01*
X69779Y66730D01*
X69834Y66830D01*
X69906Y66935D01*
X69990Y67041D01*
X70090Y67130D01*
X70095D01*
X70101Y67141D01*
X70117Y67152D01*
X70139Y67163D01*
X70167Y67185D01*
X70201Y67202D01*
X70284Y67246D01*
X70384Y67285D01*
X70500Y67324D01*
X70639Y67346D01*
X70789Y67357D01*
X70839D01*
X70900Y67352D01*
D02*
G37*
G36*
X64928D02*
X65000Y67341D01*
X65083Y67324D01*
X65172Y67302D01*
X65267Y67274D01*
X65355Y67230D01*
X65361D01*
X65367Y67224D01*
X65394Y67207D01*
X65439Y67180D01*
X65494Y67141D01*
X65555Y67085D01*
X65622Y67024D01*
X65683Y66952D01*
X65744Y66869D01*
X65750Y66858D01*
X65772Y66830D01*
X65794Y66780D01*
X65833Y66708D01*
X65866Y66625D01*
X65910Y66530D01*
X65949Y66419D01*
X65983Y66297D01*
Y66292D01*
X65988Y66281D01*
X65994Y66264D01*
X65999Y66236D01*
X66005Y66203D01*
X66010Y66164D01*
X66021Y66114D01*
X66027Y66059D01*
X66038Y65997D01*
X66044Y65931D01*
X66049Y65853D01*
X66060Y65776D01*
X66066Y65687D01*
Y65598D01*
X66071Y65498D01*
Y65393D01*
Y65387D01*
Y65365D01*
Y65326D01*
Y65282D01*
X66066Y65220D01*
Y65154D01*
X66060Y65082D01*
X66055Y65004D01*
X66038Y64826D01*
X66010Y64643D01*
X65977Y64466D01*
X65955Y64382D01*
X65927Y64299D01*
Y64294D01*
X65921Y64283D01*
X65910Y64260D01*
X65899Y64233D01*
X65888Y64194D01*
X65866Y64155D01*
X65822Y64061D01*
X65766Y63961D01*
X65694Y63850D01*
X65611Y63750D01*
X65511Y63655D01*
X65505D01*
X65500Y63644D01*
X65483Y63633D01*
X65461Y63622D01*
X65433Y63605D01*
X65405Y63583D01*
X65322Y63544D01*
X65222Y63506D01*
X65106Y63467D01*
X64967Y63445D01*
X64817Y63433D01*
X64762D01*
X64723Y63439D01*
X64678Y63445D01*
X64623Y63456D01*
X64562Y63467D01*
X64495Y63483D01*
X64429Y63506D01*
X64356Y63528D01*
X64284Y63561D01*
X64212Y63600D01*
X64140Y63644D01*
X64068Y63700D01*
X64001Y63761D01*
X63940Y63827D01*
X63935Y63833D01*
X63924Y63850D01*
X63907Y63877D01*
X63879Y63922D01*
X63851Y63972D01*
X63824Y64038D01*
X63785Y64116D01*
X63751Y64205D01*
X63718Y64305D01*
X63685Y64421D01*
X63652Y64549D01*
X63624Y64693D01*
X63596Y64849D01*
X63579Y65015D01*
X63568Y65198D01*
X63563Y65393D01*
Y65398D01*
Y65420D01*
Y65459D01*
Y65504D01*
X63568Y65565D01*
Y65631D01*
X63574Y65703D01*
X63579Y65787D01*
X63596Y65959D01*
X63624Y66142D01*
X63657Y66325D01*
X63679Y66408D01*
X63701Y66491D01*
Y66497D01*
X63707Y66508D01*
X63718Y66530D01*
X63729Y66558D01*
X63740Y66597D01*
X63762Y66636D01*
X63807Y66730D01*
X63863Y66830D01*
X63935Y66935D01*
X64018Y67041D01*
X64118Y67130D01*
X64123D01*
X64129Y67141D01*
X64145Y67152D01*
X64168Y67163D01*
X64196Y67185D01*
X64229Y67202D01*
X64312Y67246D01*
X64412Y67285D01*
X64528Y67324D01*
X64667Y67346D01*
X64817Y67357D01*
X64867D01*
X64928Y67352D01*
D02*
G37*
G36*
X108867Y10820D02*
X108889Y10813D01*
X108918Y10802D01*
X108950Y10791D01*
X108991Y10777D01*
X109034Y10758D01*
X109081Y10736D01*
X109183Y10686D01*
X109285Y10620D01*
X109336Y10580D01*
X109387Y10540D01*
X109431Y10496D01*
X109475Y10445D01*
X109478Y10442D01*
X109485Y10434D01*
X109493Y10416D01*
X109507Y10398D01*
X109526Y10369D01*
X109544Y10340D01*
X109562Y10300D01*
X109580Y10260D01*
X109602Y10212D01*
X109620Y10161D01*
X109638Y10107D01*
X109657Y10049D01*
X109671Y9987D01*
X109678Y9921D01*
X109686Y9852D01*
X109689Y9779D01*
Y9776D01*
Y9761D01*
Y9739D01*
X109686Y9710D01*
Y9677D01*
X109682Y9637D01*
X109675Y9594D01*
X109668Y9543D01*
X109649Y9437D01*
X109620Y9328D01*
X109580Y9219D01*
X109555Y9168D01*
X109526Y9117D01*
X109522Y9113D01*
X109518Y9106D01*
X109507Y9091D01*
X109493Y9077D01*
X109478Y9055D01*
X109456Y9029D01*
X109431Y9000D01*
X109402Y8971D01*
X109369Y8942D01*
X109336Y8909D01*
X109253Y8844D01*
X109154Y8782D01*
X109045Y8727D01*
X109041D01*
X109030Y8720D01*
X109012Y8716D01*
X108991Y8705D01*
X108961Y8698D01*
X108925Y8687D01*
X108885Y8673D01*
X108841Y8662D01*
X108794Y8651D01*
X108739Y8636D01*
X108626Y8618D01*
X108499Y8603D01*
X108368Y8596D01*
X108328D01*
X108302Y8600D01*
X108266D01*
X108230Y8603D01*
X108182Y8607D01*
X108135Y8614D01*
X108029Y8633D01*
X107913Y8658D01*
X107797Y8694D01*
X107684Y8745D01*
X107680Y8749D01*
X107669Y8753D01*
X107655Y8760D01*
X107636Y8775D01*
X107611Y8789D01*
X107582Y8807D01*
X107516Y8855D01*
X107443Y8917D01*
X107371Y8989D01*
X107298Y9073D01*
X107236Y9171D01*
X107232Y9175D01*
X107229Y9186D01*
X107221Y9200D01*
X107211Y9219D01*
X107200Y9248D01*
X107189Y9277D01*
X107174Y9313D01*
X107159Y9353D01*
X107145Y9397D01*
X107130Y9444D01*
X107109Y9546D01*
X107090Y9663D01*
X107083Y9783D01*
Y9787D01*
Y9801D01*
Y9819D01*
X107087Y9845D01*
X107090Y9877D01*
X107094Y9917D01*
X107098Y9958D01*
X107109Y10005D01*
X107130Y10103D01*
X107163Y10212D01*
X107185Y10267D01*
X107211Y10318D01*
X107243Y10369D01*
X107276Y10420D01*
X107280Y10424D01*
X107283Y10431D01*
X107294Y10445D01*
X107312Y10464D01*
X107331Y10482D01*
X107356Y10507D01*
X107385Y10533D01*
X107414Y10562D01*
X107451Y10591D01*
X107494Y10620D01*
X107538Y10653D01*
X107585Y10682D01*
X107640Y10707D01*
X107695Y10736D01*
X107753Y10758D01*
X107818Y10780D01*
X107895Y10453D01*
X107891D01*
X107884Y10449D01*
X107869Y10442D01*
X107851Y10434D01*
X107829Y10427D01*
X107800Y10416D01*
X107742Y10387D01*
X107676Y10351D01*
X107611Y10307D01*
X107549Y10252D01*
X107494Y10194D01*
X107487Y10187D01*
X107473Y10165D01*
X107454Y10129D01*
X107429Y10081D01*
X107407Y10019D01*
X107385Y9950D01*
X107371Y9867D01*
X107367Y9776D01*
Y9772D01*
Y9761D01*
Y9747D01*
X107371Y9728D01*
Y9703D01*
X107374Y9674D01*
X107385Y9605D01*
X107400Y9528D01*
X107425Y9448D01*
X107462Y9364D01*
X107509Y9288D01*
Y9284D01*
X107516Y9280D01*
X107535Y9255D01*
X107564Y9222D01*
X107607Y9182D01*
X107662Y9135D01*
X107724Y9091D01*
X107800Y9051D01*
X107884Y9015D01*
X107888D01*
X107895Y9011D01*
X107906Y9008D01*
X107924Y9004D01*
X107946Y8997D01*
X107971Y8989D01*
X108033Y8978D01*
X108106Y8964D01*
X108186Y8949D01*
X108273Y8942D01*
X108368Y8938D01*
X108423D01*
X108448Y8942D01*
X108481D01*
X108517Y8946D01*
X108557Y8949D01*
X108645Y8960D01*
X108739Y8978D01*
X108834Y9000D01*
X108929Y9029D01*
X108932D01*
X108940Y9033D01*
X108950Y9040D01*
X108969Y9048D01*
X109012Y9069D01*
X109063Y9102D01*
X109122Y9142D01*
X109183Y9193D01*
X109238Y9251D01*
X109289Y9321D01*
Y9324D01*
X109293Y9331D01*
X109300Y9342D01*
X109307Y9357D01*
X109314Y9375D01*
X109325Y9397D01*
X109347Y9448D01*
X109369Y9514D01*
X109387Y9586D01*
X109402Y9666D01*
X109405Y9750D01*
Y9754D01*
Y9761D01*
Y9776D01*
X109402Y9797D01*
Y9823D01*
X109398Y9848D01*
X109384Y9914D01*
X109365Y9990D01*
X109336Y10067D01*
X109296Y10147D01*
X109274Y10187D01*
X109245Y10223D01*
X109242Y10227D01*
X109238Y10231D01*
X109227Y10242D01*
X109216Y10256D01*
X109198Y10271D01*
X109176Y10289D01*
X109154Y10311D01*
X109125Y10329D01*
X109092Y10351D01*
X109056Y10376D01*
X109020Y10398D01*
X108976Y10420D01*
X108929Y10438D01*
X108878Y10456D01*
X108823Y10475D01*
X108765Y10489D01*
X108849Y10824D01*
X108852D01*
X108867Y10820D01*
D02*
G37*
G36*
X5274Y4048D02*
X4810D01*
Y7002D01*
X4805Y6997D01*
X4777Y6975D01*
X4745Y6942D01*
X4690Y6904D01*
X4630Y6855D01*
X4553Y6800D01*
X4466Y6740D01*
X4368Y6680D01*
X4362D01*
X4357Y6675D01*
X4324Y6653D01*
X4270Y6626D01*
X4204Y6593D01*
X4128Y6555D01*
X4046Y6516D01*
X3964Y6478D01*
X3882Y6445D01*
Y6893D01*
X3887D01*
X3898Y6904D01*
X3920Y6910D01*
X3947Y6926D01*
X3980Y6942D01*
X4018Y6964D01*
X4111Y7019D01*
X4220Y7079D01*
X4330Y7155D01*
X4444Y7243D01*
X4559Y7335D01*
X4564Y7341D01*
X4570Y7346D01*
X4586Y7363D01*
X4608Y7379D01*
X4657Y7434D01*
X4723Y7499D01*
X4788Y7576D01*
X4859Y7663D01*
X4919Y7750D01*
X4974Y7843D01*
X5274D01*
Y4048D01*
D02*
G37*
G36*
X85000Y50482D02*
X78077Y45867D01*
X85000D01*
Y44745D01*
X76177D01*
Y45943D01*
X83113Y50572D01*
X76177D01*
Y51693D01*
X85000D01*
Y50482D01*
D02*
G37*
G36*
Y42169D02*
X83164Y41009D01*
X83151D01*
X83126Y40984D01*
X83087Y40958D01*
X83037Y40920D01*
X82896Y40830D01*
X82718Y40716D01*
X82526Y40576D01*
X82323Y40435D01*
X82131Y40295D01*
X81953Y40167D01*
X81940Y40155D01*
X81889Y40117D01*
X81813Y40053D01*
X81723Y39963D01*
X81532Y39772D01*
X81443Y39670D01*
X81366Y39568D01*
X81353Y39555D01*
X81341Y39530D01*
X81315Y39479D01*
X81277Y39402D01*
X81239Y39326D01*
X81200Y39237D01*
X81137Y39033D01*
Y39020D01*
X81124Y38995D01*
Y38943D01*
X81111Y38880D01*
X81099Y38791D01*
Y38688D01*
X81086Y38548D01*
Y38395D01*
Y37044D01*
X85000D01*
Y35871D01*
X76177D01*
Y39772D01*
Y39785D01*
Y39823D01*
Y39887D01*
Y39963D01*
X76190Y40066D01*
Y40180D01*
X76202Y40448D01*
X76241Y40729D01*
X76279Y41034D01*
X76343Y41315D01*
X76381Y41455D01*
X76419Y41570D01*
Y41583D01*
X76432Y41596D01*
X76470Y41672D01*
X76521Y41787D01*
X76610Y41927D01*
X76725Y42080D01*
X76878Y42246D01*
X77057Y42399D01*
X77261Y42552D01*
X77273D01*
X77286Y42564D01*
X77363Y42616D01*
X77490Y42667D01*
X77656Y42743D01*
X77847Y42807D01*
X78077Y42871D01*
X78319Y42909D01*
X78587Y42922D01*
X78676D01*
X78740Y42909D01*
X78829D01*
X78918Y42896D01*
X79135Y42845D01*
X79390Y42768D01*
X79658Y42667D01*
X79926Y42513D01*
X80053Y42412D01*
X80181Y42309D01*
X80193Y42297D01*
X80206Y42284D01*
X80244Y42246D01*
X80282Y42195D01*
X80334Y42131D01*
X80384Y42055D01*
X80448Y41952D01*
X80525Y41851D01*
X80589Y41723D01*
X80652Y41583D01*
X80729Y41430D01*
X80792Y41264D01*
X80844Y41073D01*
X80907Y40881D01*
X80945Y40665D01*
X80984Y40435D01*
X80997Y40461D01*
X81022Y40512D01*
X81073Y40588D01*
X81124Y40690D01*
X81264Y40920D01*
X81353Y41034D01*
X81430Y41137D01*
X81455Y41162D01*
X81519Y41226D01*
X81621Y41328D01*
X81749Y41455D01*
X81927Y41596D01*
X82118Y41761D01*
X82348Y41927D01*
X82603Y42105D01*
X85000Y43623D01*
Y42169D01*
D02*
G37*
G36*
X59392Y80000D02*
X58928D01*
Y82954D01*
X58923Y82948D01*
X58895Y82927D01*
X58863Y82894D01*
X58808Y82856D01*
X58748Y82806D01*
X58672Y82752D01*
X58584Y82692D01*
X58486Y82632D01*
X58481D01*
X58475Y82626D01*
X58442Y82604D01*
X58388Y82577D01*
X58322Y82544D01*
X58246Y82506D01*
X58164Y82468D01*
X58082Y82430D01*
X58000Y82397D01*
Y82845D01*
X58005D01*
X58016Y82856D01*
X58038Y82861D01*
X58065Y82877D01*
X58098Y82894D01*
X58136Y82916D01*
X58229Y82970D01*
X58338Y83030D01*
X58448Y83107D01*
X58562Y83194D01*
X58677Y83287D01*
X58683Y83292D01*
X58688Y83298D01*
X58704Y83314D01*
X58726Y83331D01*
X58775Y83385D01*
X58841Y83451D01*
X58906Y83527D01*
X58977Y83614D01*
X59037Y83702D01*
X59092Y83795D01*
X59392D01*
Y80000D01*
D02*
G37*
G36*
X102952Y15810D02*
X99998D01*
X100003Y15805D01*
X100025Y15777D01*
X100058Y15745D01*
X100096Y15690D01*
X100145Y15630D01*
X100200Y15553D01*
X100260Y15466D01*
X100320Y15368D01*
Y15362D01*
X100325Y15357D01*
X100347Y15324D01*
X100374Y15270D01*
X100407Y15204D01*
X100445Y15128D01*
X100484Y15046D01*
X100522Y14964D01*
X100555Y14882D01*
X100107D01*
Y14887D01*
X100096Y14898D01*
X100091Y14920D01*
X100074Y14947D01*
X100058Y14980D01*
X100036Y15018D01*
X99981Y15111D01*
X99921Y15220D01*
X99845Y15330D01*
X99757Y15444D01*
X99665Y15559D01*
X99659Y15564D01*
X99654Y15570D01*
X99637Y15586D01*
X99621Y15608D01*
X99566Y15657D01*
X99501Y15723D01*
X99424Y15788D01*
X99337Y15859D01*
X99250Y15919D01*
X99157Y15974D01*
Y16274D01*
X102952D01*
Y15810D01*
D02*
G37*
G36*
X5274Y92048D02*
X4810D01*
Y95002D01*
X4805Y94997D01*
X4777Y94975D01*
X4745Y94942D01*
X4690Y94904D01*
X4630Y94855D01*
X4553Y94800D01*
X4466Y94740D01*
X4368Y94680D01*
X4362D01*
X4357Y94675D01*
X4324Y94653D01*
X4270Y94626D01*
X4204Y94593D01*
X4128Y94555D01*
X4046Y94516D01*
X3964Y94478D01*
X3882Y94445D01*
Y94893D01*
X3887D01*
X3898Y94904D01*
X3920Y94910D01*
X3947Y94926D01*
X3980Y94942D01*
X4018Y94964D01*
X4111Y95019D01*
X4220Y95079D01*
X4330Y95155D01*
X4444Y95243D01*
X4559Y95335D01*
X4564Y95341D01*
X4570Y95346D01*
X4586Y95363D01*
X4608Y95379D01*
X4657Y95434D01*
X4723Y95499D01*
X4788Y95576D01*
X4859Y95663D01*
X4919Y95750D01*
X4974Y95843D01*
X5274D01*
Y92048D01*
D02*
G37*
G36*
X44604Y67402D02*
X44643D01*
X44748Y67391D01*
X44865Y67374D01*
X44987Y67346D01*
X45120Y67313D01*
X45242Y67268D01*
X45248D01*
X45259Y67263D01*
X45276Y67252D01*
X45298Y67241D01*
X45353Y67213D01*
X45425Y67163D01*
X45509Y67107D01*
X45592Y67035D01*
X45669Y66952D01*
X45742Y66858D01*
Y66852D01*
X45747Y66847D01*
X45758Y66830D01*
X45770Y66813D01*
X45797Y66758D01*
X45831Y66686D01*
X45869Y66597D01*
X45897Y66491D01*
X45925Y66380D01*
X45936Y66258D01*
X45448Y66220D01*
Y66225D01*
Y66236D01*
X45442Y66253D01*
X45436Y66281D01*
X45420Y66342D01*
X45398Y66425D01*
X45364Y66514D01*
X45314Y66602D01*
X45253Y66686D01*
X45176Y66763D01*
X45164Y66769D01*
X45137Y66791D01*
X45081Y66825D01*
X45009Y66858D01*
X44915Y66891D01*
X44804Y66924D01*
X44665Y66947D01*
X44510Y66952D01*
X44432D01*
X44399Y66947D01*
X44354Y66941D01*
X44254Y66930D01*
X44143Y66908D01*
X44032Y66880D01*
X43927Y66836D01*
X43883Y66808D01*
X43838Y66780D01*
X43827Y66774D01*
X43805Y66752D01*
X43771Y66714D01*
X43738Y66669D01*
X43699Y66608D01*
X43666Y66541D01*
X43644Y66464D01*
X43633Y66375D01*
Y66364D01*
Y66342D01*
X43638Y66303D01*
X43649Y66258D01*
X43666Y66203D01*
X43694Y66147D01*
X43727Y66092D01*
X43777Y66036D01*
X43782Y66031D01*
X43810Y66014D01*
X43832Y65997D01*
X43855Y65986D01*
X43888Y65970D01*
X43927Y65948D01*
X43977Y65931D01*
X44032Y65909D01*
X44093Y65886D01*
X44166Y65859D01*
X44243Y65837D01*
X44332Y65809D01*
X44432Y65787D01*
X44543Y65759D01*
X44548D01*
X44571Y65753D01*
X44604Y65748D01*
X44643Y65737D01*
X44693Y65725D01*
X44754Y65709D01*
X44815Y65692D01*
X44881Y65676D01*
X45026Y65637D01*
X45164Y65598D01*
X45231Y65576D01*
X45292Y65553D01*
X45348Y65537D01*
X45392Y65515D01*
X45398D01*
X45409Y65509D01*
X45425Y65498D01*
X45448Y65487D01*
X45509Y65454D01*
X45581Y65409D01*
X45664Y65348D01*
X45747Y65282D01*
X45825Y65204D01*
X45892Y65121D01*
X45897Y65109D01*
X45919Y65082D01*
X45941Y65032D01*
X45975Y64965D01*
X46003Y64887D01*
X46030Y64793D01*
X46047Y64688D01*
X46053Y64577D01*
Y64571D01*
Y64566D01*
Y64549D01*
Y64527D01*
X46041Y64466D01*
X46030Y64388D01*
X46008Y64299D01*
X45980Y64205D01*
X45936Y64105D01*
X45875Y63999D01*
Y63994D01*
X45869Y63988D01*
X45842Y63955D01*
X45803Y63905D01*
X45747Y63850D01*
X45675Y63783D01*
X45586Y63711D01*
X45486Y63644D01*
X45370Y63583D01*
X45364D01*
X45353Y63578D01*
X45336Y63572D01*
X45314Y63561D01*
X45281Y63550D01*
X45242Y63533D01*
X45153Y63511D01*
X45048Y63483D01*
X44920Y63456D01*
X44782Y63439D01*
X44632Y63433D01*
X44543D01*
X44499Y63439D01*
X44449D01*
X44393Y63445D01*
X44326Y63450D01*
X44188Y63472D01*
X44043Y63494D01*
X43899Y63533D01*
X43760Y63583D01*
X43755D01*
X43744Y63589D01*
X43727Y63600D01*
X43705Y63611D01*
X43638Y63644D01*
X43561Y63694D01*
X43472Y63761D01*
X43377Y63838D01*
X43289Y63933D01*
X43205Y64038D01*
Y64044D01*
X43194Y64055D01*
X43189Y64072D01*
X43172Y64094D01*
X43161Y64122D01*
X43144Y64155D01*
X43106Y64238D01*
X43067Y64344D01*
X43033Y64460D01*
X43011Y64593D01*
X43000Y64732D01*
X43477Y64776D01*
Y64771D01*
Y64765D01*
X43483Y64749D01*
Y64727D01*
X43494Y64677D01*
X43511Y64604D01*
X43533Y64532D01*
X43555Y64449D01*
X43594Y64371D01*
X43633Y64299D01*
X43638Y64294D01*
X43655Y64271D01*
X43683Y64233D01*
X43727Y64194D01*
X43782Y64144D01*
X43844Y64094D01*
X43927Y64044D01*
X44016Y63999D01*
X44021D01*
X44027Y63994D01*
X44043Y63988D01*
X44060Y63983D01*
X44116Y63966D01*
X44188Y63944D01*
X44276Y63922D01*
X44376Y63905D01*
X44487Y63894D01*
X44609Y63889D01*
X44659D01*
X44715Y63894D01*
X44782Y63900D01*
X44859Y63911D01*
X44948Y63922D01*
X45037Y63944D01*
X45120Y63972D01*
X45131Y63977D01*
X45159Y63988D01*
X45198Y64011D01*
X45248Y64033D01*
X45298Y64072D01*
X45353Y64110D01*
X45409Y64155D01*
X45453Y64210D01*
X45459Y64216D01*
X45470Y64238D01*
X45486Y64266D01*
X45509Y64310D01*
X45531Y64355D01*
X45547Y64410D01*
X45559Y64471D01*
X45564Y64538D01*
Y64543D01*
Y64571D01*
X45559Y64604D01*
X45553Y64649D01*
X45536Y64693D01*
X45520Y64749D01*
X45492Y64804D01*
X45453Y64854D01*
X45448Y64860D01*
X45431Y64876D01*
X45409Y64899D01*
X45370Y64932D01*
X45325Y64965D01*
X45264Y65004D01*
X45192Y65043D01*
X45109Y65076D01*
X45103Y65082D01*
X45076Y65087D01*
X45031Y65104D01*
X45004Y65109D01*
X44965Y65121D01*
X44926Y65137D01*
X44876Y65148D01*
X44820Y65165D01*
X44754Y65182D01*
X44687Y65198D01*
X44609Y65220D01*
X44521Y65243D01*
X44426Y65265D01*
X44421D01*
X44404Y65271D01*
X44376Y65276D01*
X44343Y65287D01*
X44299Y65298D01*
X44249Y65309D01*
X44138Y65343D01*
X44016Y65381D01*
X43888Y65420D01*
X43777Y65459D01*
X43727Y65481D01*
X43683Y65504D01*
X43677D01*
X43672Y65509D01*
X43638Y65531D01*
X43588Y65559D01*
X43533Y65603D01*
X43466Y65653D01*
X43400Y65714D01*
X43333Y65787D01*
X43277Y65864D01*
X43272Y65875D01*
X43255Y65903D01*
X43233Y65948D01*
X43211Y66003D01*
X43189Y66075D01*
X43167Y66158D01*
X43150Y66247D01*
X43144Y66342D01*
Y66347D01*
Y66353D01*
Y66369D01*
Y66391D01*
X43155Y66447D01*
X43167Y66519D01*
X43183Y66602D01*
X43211Y66697D01*
X43250Y66791D01*
X43305Y66886D01*
Y66891D01*
X43311Y66897D01*
X43339Y66930D01*
X43377Y66974D01*
X43427Y67030D01*
X43494Y67091D01*
X43577Y67157D01*
X43677Y67219D01*
X43788Y67274D01*
X43794D01*
X43805Y67279D01*
X43821Y67285D01*
X43844Y67296D01*
X43871Y67307D01*
X43910Y67318D01*
X43993Y67341D01*
X44099Y67363D01*
X44221Y67385D01*
X44349Y67402D01*
X44493Y67407D01*
X44565D01*
X44604Y67402D01*
D02*
G37*
G36*
X67870Y67352D02*
X67942Y67341D01*
X68031Y67324D01*
X68130Y67296D01*
X68230Y67263D01*
X68330Y67219D01*
X68336D01*
X68341Y67213D01*
X68375Y67196D01*
X68424Y67163D01*
X68480Y67124D01*
X68547Y67069D01*
X68613Y67008D01*
X68680Y66935D01*
X68735Y66852D01*
X68741Y66841D01*
X68758Y66813D01*
X68780Y66763D01*
X68808Y66702D01*
X68835Y66630D01*
X68857Y66547D01*
X68874Y66453D01*
X68880Y66358D01*
Y66347D01*
Y66314D01*
X68874Y66269D01*
X68863Y66208D01*
X68846Y66136D01*
X68819Y66059D01*
X68785Y65981D01*
X68741Y65903D01*
X68735Y65892D01*
X68719Y65870D01*
X68685Y65831D01*
X68641Y65787D01*
X68585Y65737D01*
X68519Y65681D01*
X68441Y65631D01*
X68347Y65581D01*
X68352D01*
X68363Y65576D01*
X68380Y65570D01*
X68402Y65565D01*
X68463Y65542D01*
X68541Y65509D01*
X68630Y65465D01*
X68719Y65409D01*
X68802Y65337D01*
X68880Y65254D01*
X68885Y65243D01*
X68907Y65209D01*
X68941Y65154D01*
X68974Y65082D01*
X69007Y64993D01*
X69041Y64887D01*
X69063Y64765D01*
X69068Y64632D01*
Y64627D01*
Y64610D01*
Y64582D01*
X69063Y64549D01*
X69057Y64504D01*
X69046Y64455D01*
X69035Y64399D01*
X69024Y64338D01*
X68980Y64205D01*
X68946Y64133D01*
X68913Y64066D01*
X68869Y63994D01*
X68819Y63922D01*
X68763Y63850D01*
X68696Y63783D01*
X68691Y63778D01*
X68680Y63766D01*
X68658Y63750D01*
X68630Y63727D01*
X68597Y63700D01*
X68552Y63672D01*
X68502Y63639D01*
X68441Y63611D01*
X68380Y63578D01*
X68308Y63544D01*
X68236Y63517D01*
X68153Y63489D01*
X68064Y63467D01*
X67969Y63450D01*
X67875Y63439D01*
X67770Y63433D01*
X67720D01*
X67686Y63439D01*
X67642Y63445D01*
X67592Y63450D01*
X67536Y63461D01*
X67475Y63472D01*
X67342Y63506D01*
X67203Y63561D01*
X67131Y63594D01*
X67065Y63633D01*
X66998Y63683D01*
X66932Y63733D01*
X66926Y63739D01*
X66915Y63750D01*
X66898Y63766D01*
X66882Y63789D01*
X66854Y63816D01*
X66826Y63855D01*
X66793Y63894D01*
X66760Y63944D01*
X66726Y63999D01*
X66693Y64055D01*
X66632Y64188D01*
X66582Y64344D01*
X66565Y64427D01*
X66554Y64516D01*
X67026Y64577D01*
Y64571D01*
X67032Y64560D01*
X67037Y64538D01*
X67043Y64510D01*
X67048Y64477D01*
X67059Y64438D01*
X67087Y64355D01*
X67126Y64255D01*
X67176Y64161D01*
X67231Y64072D01*
X67298Y63994D01*
X67309Y63988D01*
X67331Y63966D01*
X67376Y63938D01*
X67431Y63911D01*
X67498Y63877D01*
X67581Y63850D01*
X67675Y63827D01*
X67775Y63822D01*
X67809D01*
X67831Y63827D01*
X67892Y63833D01*
X67969Y63850D01*
X68058Y63877D01*
X68153Y63916D01*
X68247Y63972D01*
X68336Y64050D01*
X68347Y64061D01*
X68375Y64094D01*
X68408Y64144D01*
X68452Y64210D01*
X68497Y64294D01*
X68530Y64388D01*
X68558Y64499D01*
X68569Y64621D01*
Y64627D01*
Y64638D01*
Y64654D01*
X68563Y64677D01*
X68558Y64738D01*
X68541Y64810D01*
X68519Y64899D01*
X68480Y64987D01*
X68424Y65076D01*
X68352Y65159D01*
X68341Y65171D01*
X68313Y65193D01*
X68269Y65226D01*
X68208Y65265D01*
X68130Y65304D01*
X68036Y65337D01*
X67931Y65359D01*
X67814Y65370D01*
X67764D01*
X67725Y65365D01*
X67675Y65359D01*
X67620Y65348D01*
X67553Y65337D01*
X67481Y65320D01*
X67536Y65737D01*
X67564D01*
X67586Y65731D01*
X67659D01*
X67720Y65742D01*
X67792Y65753D01*
X67875Y65770D01*
X67969Y65798D01*
X68058Y65837D01*
X68153Y65886D01*
X68158D01*
X68164Y65892D01*
X68191Y65914D01*
X68230Y65953D01*
X68275Y66003D01*
X68319Y66075D01*
X68358Y66158D01*
X68386Y66253D01*
X68397Y66308D01*
Y66369D01*
Y66375D01*
Y66380D01*
Y66414D01*
X68386Y66458D01*
X68375Y66519D01*
X68352Y66586D01*
X68325Y66658D01*
X68280Y66730D01*
X68219Y66797D01*
X68214Y66802D01*
X68186Y66825D01*
X68147Y66852D01*
X68097Y66886D01*
X68031Y66913D01*
X67953Y66941D01*
X67864Y66963D01*
X67764Y66969D01*
X67720D01*
X67670Y66958D01*
X67603Y66947D01*
X67531Y66924D01*
X67459Y66897D01*
X67381Y66852D01*
X67309Y66797D01*
X67303Y66791D01*
X67281Y66763D01*
X67248Y66724D01*
X67209Y66669D01*
X67170Y66597D01*
X67131Y66508D01*
X67098Y66403D01*
X67076Y66281D01*
X66604Y66364D01*
Y66369D01*
X66610Y66386D01*
X66615Y66408D01*
X66621Y66442D01*
X66632Y66480D01*
X66649Y66525D01*
X66682Y66630D01*
X66737Y66752D01*
X66804Y66874D01*
X66887Y66991D01*
X66993Y67096D01*
X66998Y67102D01*
X67009Y67107D01*
X67026Y67119D01*
X67048Y67135D01*
X67076Y67157D01*
X67115Y67180D01*
X67154Y67202D01*
X67203Y67230D01*
X67314Y67274D01*
X67442Y67318D01*
X67592Y67346D01*
X67670Y67357D01*
X67809D01*
X67870Y67352D01*
D02*
G37*
G36*
X55632D02*
X55704Y67341D01*
X55793Y67324D01*
X55893Y67296D01*
X55993Y67263D01*
X56092Y67219D01*
X56098D01*
X56103Y67213D01*
X56137Y67196D01*
X56187Y67163D01*
X56242Y67124D01*
X56309Y67069D01*
X56375Y67008D01*
X56442Y66935D01*
X56498Y66852D01*
X56503Y66841D01*
X56520Y66813D01*
X56542Y66763D01*
X56570Y66702D01*
X56598Y66630D01*
X56620Y66547D01*
X56636Y66453D01*
X56642Y66358D01*
Y66347D01*
Y66314D01*
X56636Y66269D01*
X56625Y66208D01*
X56609Y66136D01*
X56581Y66059D01*
X56548Y65981D01*
X56503Y65903D01*
X56498Y65892D01*
X56481Y65870D01*
X56448Y65831D01*
X56403Y65787D01*
X56348Y65737D01*
X56281Y65681D01*
X56203Y65631D01*
X56109Y65581D01*
X56115D01*
X56126Y65576D01*
X56142Y65570D01*
X56165Y65565D01*
X56226Y65542D01*
X56303Y65509D01*
X56392Y65465D01*
X56481Y65409D01*
X56564Y65337D01*
X56642Y65254D01*
X56647Y65243D01*
X56670Y65209D01*
X56703Y65154D01*
X56736Y65082D01*
X56770Y64993D01*
X56803Y64887D01*
X56825Y64765D01*
X56831Y64632D01*
Y64627D01*
Y64610D01*
Y64582D01*
X56825Y64549D01*
X56819Y64504D01*
X56808Y64455D01*
X56797Y64399D01*
X56786Y64338D01*
X56742Y64205D01*
X56709Y64133D01*
X56675Y64066D01*
X56631Y63994D01*
X56581Y63922D01*
X56525Y63850D01*
X56459Y63783D01*
X56453Y63778D01*
X56442Y63766D01*
X56420Y63750D01*
X56392Y63727D01*
X56359Y63700D01*
X56314Y63672D01*
X56265Y63639D01*
X56203Y63611D01*
X56142Y63578D01*
X56070Y63544D01*
X55998Y63517D01*
X55915Y63489D01*
X55826Y63467D01*
X55732Y63450D01*
X55637Y63439D01*
X55532Y63433D01*
X55482D01*
X55449Y63439D01*
X55404Y63445D01*
X55354Y63450D01*
X55299Y63461D01*
X55238Y63472D01*
X55105Y63506D01*
X54966Y63561D01*
X54894Y63594D01*
X54827Y63633D01*
X54760Y63683D01*
X54694Y63733D01*
X54688Y63739D01*
X54677Y63750D01*
X54661Y63766D01*
X54644Y63789D01*
X54616Y63816D01*
X54588Y63855D01*
X54555Y63894D01*
X54522Y63944D01*
X54488Y63999D01*
X54455Y64055D01*
X54394Y64188D01*
X54344Y64344D01*
X54327Y64427D01*
X54316Y64516D01*
X54788Y64577D01*
Y64571D01*
X54794Y64560D01*
X54799Y64538D01*
X54805Y64510D01*
X54810Y64477D01*
X54821Y64438D01*
X54849Y64355D01*
X54888Y64255D01*
X54938Y64161D01*
X54994Y64072D01*
X55060Y63994D01*
X55071Y63988D01*
X55093Y63966D01*
X55138Y63938D01*
X55193Y63911D01*
X55260Y63877D01*
X55343Y63850D01*
X55437Y63827D01*
X55537Y63822D01*
X55571D01*
X55593Y63827D01*
X55654Y63833D01*
X55732Y63850D01*
X55821Y63877D01*
X55915Y63916D01*
X56009Y63972D01*
X56098Y64050D01*
X56109Y64061D01*
X56137Y64094D01*
X56170Y64144D01*
X56214Y64210D01*
X56259Y64294D01*
X56292Y64388D01*
X56320Y64499D01*
X56331Y64621D01*
Y64627D01*
Y64638D01*
Y64654D01*
X56326Y64677D01*
X56320Y64738D01*
X56303Y64810D01*
X56281Y64899D01*
X56242Y64987D01*
X56187Y65076D01*
X56115Y65159D01*
X56103Y65171D01*
X56076Y65193D01*
X56031Y65226D01*
X55970Y65265D01*
X55893Y65304D01*
X55798Y65337D01*
X55693Y65359D01*
X55576Y65370D01*
X55526D01*
X55488Y65365D01*
X55437Y65359D01*
X55382Y65348D01*
X55315Y65337D01*
X55243Y65320D01*
X55299Y65737D01*
X55326D01*
X55349Y65731D01*
X55421D01*
X55482Y65742D01*
X55554Y65753D01*
X55637Y65770D01*
X55732Y65798D01*
X55821Y65837D01*
X55915Y65886D01*
X55920D01*
X55926Y65892D01*
X55954Y65914D01*
X55993Y65953D01*
X56037Y66003D01*
X56081Y66075D01*
X56120Y66158D01*
X56148Y66253D01*
X56159Y66308D01*
Y66369D01*
Y66375D01*
Y66380D01*
Y66414D01*
X56148Y66458D01*
X56137Y66519D01*
X56115Y66586D01*
X56087Y66658D01*
X56042Y66730D01*
X55981Y66797D01*
X55976Y66802D01*
X55948Y66825D01*
X55909Y66852D01*
X55859Y66886D01*
X55793Y66913D01*
X55715Y66941D01*
X55626Y66963D01*
X55526Y66969D01*
X55482D01*
X55432Y66958D01*
X55365Y66947D01*
X55293Y66924D01*
X55221Y66897D01*
X55143Y66852D01*
X55071Y66797D01*
X55066Y66791D01*
X55044Y66763D01*
X55010Y66724D01*
X54971Y66669D01*
X54932Y66597D01*
X54894Y66508D01*
X54860Y66403D01*
X54838Y66281D01*
X54366Y66364D01*
Y66369D01*
X54372Y66386D01*
X54378Y66408D01*
X54383Y66442D01*
X54394Y66480D01*
X54411Y66525D01*
X54444Y66630D01*
X54500Y66752D01*
X54566Y66874D01*
X54650Y66991D01*
X54755Y67096D01*
X54760Y67102D01*
X54772Y67107D01*
X54788Y67119D01*
X54810Y67135D01*
X54838Y67157D01*
X54877Y67180D01*
X54916Y67202D01*
X54966Y67230D01*
X55077Y67274D01*
X55204Y67318D01*
X55354Y67346D01*
X55432Y67357D01*
X55571D01*
X55632Y67352D01*
D02*
G37*
G36*
X85000Y33588D02*
X82323Y32556D01*
Y28858D01*
X85000Y27902D01*
Y26665D01*
X76177Y30031D01*
Y31306D01*
X85000Y34914D01*
Y33588D01*
D02*
G37*
G36*
Y19423D02*
X76177D01*
Y25811D01*
X77223D01*
Y20596D01*
X79913D01*
Y25480D01*
X80958D01*
Y20596D01*
X83955D01*
Y26015D01*
X85000D01*
Y19423D01*
D02*
G37*
G36*
Y12500D02*
X76177D01*
Y13673D01*
X83955D01*
Y18021D01*
X85000D01*
Y12500D01*
D02*
G37*
G36*
X103472Y84500D02*
X102987D01*
X101141Y87269D01*
Y84500D01*
X100692D01*
Y88029D01*
X101172D01*
X103023Y85255D01*
Y88029D01*
X103472D01*
Y84500D01*
D02*
G37*
G36*
X95000Y23495D02*
Y22995D01*
X92075Y22190D01*
X92070D01*
X92058Y22185D01*
X92042Y22179D01*
X92014Y22174D01*
X91953Y22157D01*
X91881Y22140D01*
X91803Y22118D01*
X91731Y22096D01*
X91670Y22079D01*
X91642Y22074D01*
X91626Y22068D01*
X91631D01*
X91637Y22063D01*
X91670Y22057D01*
X91720Y22046D01*
X91781Y22029D01*
X91848Y22013D01*
X91925Y21991D01*
X92003Y21974D01*
X92075Y21952D01*
X95000Y21141D01*
Y20608D01*
X91159Y19604D01*
Y20131D01*
X93679Y20703D01*
X93685D01*
X93696Y20708D01*
X93718Y20714D01*
X93746Y20720D01*
X93785Y20725D01*
X93823Y20736D01*
X93873Y20747D01*
X93929Y20758D01*
X94045Y20786D01*
X94179Y20814D01*
X94323Y20842D01*
X94467Y20869D01*
X94462D01*
X94439Y20875D01*
X94412Y20886D01*
X94367Y20892D01*
X94323Y20903D01*
X94267Y20919D01*
X94145Y20947D01*
X94023Y20980D01*
X93962Y20991D01*
X93907Y21008D01*
X93857Y21019D01*
X93812Y21030D01*
X93779Y21042D01*
X93757Y21047D01*
X91159Y21774D01*
Y22390D01*
X93107Y22934D01*
X93113D01*
X93141Y22945D01*
X93180Y22956D01*
X93230Y22967D01*
X93296Y22984D01*
X93368Y23006D01*
X93451Y23028D01*
X93546Y23051D01*
X93651Y23078D01*
X93757Y23100D01*
X93984Y23151D01*
X94223Y23200D01*
X94467Y23239D01*
X94462D01*
X94450Y23245D01*
X94428D01*
X94401Y23256D01*
X94367Y23261D01*
X94328Y23273D01*
X94279Y23278D01*
X94223Y23295D01*
X94101Y23323D01*
X93957Y23356D01*
X93801Y23389D01*
X93629Y23434D01*
X91159Y24033D01*
Y24549D01*
X95000Y23495D01*
D02*
G37*
G36*
Y16385D02*
X91159D01*
Y19165D01*
X91615D01*
Y16896D01*
X92786D01*
Y19021D01*
X93241D01*
Y16896D01*
X94545D01*
Y19254D01*
X95000D01*
Y16385D01*
D02*
G37*
G36*
X88515Y19765D02*
X88565D01*
X88626Y19759D01*
X88693Y19748D01*
X88765Y19743D01*
X88926Y19715D01*
X89104Y19671D01*
X89281Y19610D01*
X89370Y19576D01*
X89459Y19532D01*
X89464D01*
X89481Y19521D01*
X89503Y19510D01*
X89537Y19488D01*
X89575Y19465D01*
X89614Y19437D01*
X89720Y19360D01*
X89831Y19265D01*
X89947Y19154D01*
X90058Y19021D01*
X90158Y18866D01*
Y18860D01*
X90169Y18849D01*
X90180Y18821D01*
X90197Y18788D01*
X90214Y18749D01*
X90230Y18705D01*
X90253Y18649D01*
X90275Y18588D01*
X90297Y18522D01*
X90319Y18450D01*
X90352Y18289D01*
X90380Y18117D01*
X90391Y17933D01*
Y17928D01*
Y17911D01*
Y17878D01*
X90386Y17845D01*
Y17795D01*
X90375Y17739D01*
X90369Y17678D01*
X90358Y17606D01*
X90325Y17456D01*
X90280Y17295D01*
X90214Y17129D01*
X90175Y17045D01*
X90130Y16962D01*
X90125Y16957D01*
X90119Y16946D01*
X90103Y16923D01*
X90080Y16890D01*
X90058Y16857D01*
X90025Y16818D01*
X89942Y16724D01*
X89842Y16618D01*
X89720Y16507D01*
X89581Y16407D01*
X89420Y16313D01*
X89415D01*
X89398Y16302D01*
X89376Y16291D01*
X89342Y16280D01*
X89298Y16263D01*
X89248Y16246D01*
X89192Y16224D01*
X89131Y16207D01*
X89059Y16185D01*
X88987Y16163D01*
X88821Y16130D01*
X88649Y16107D01*
X88460Y16096D01*
X88415D01*
X88366Y16102D01*
X88299D01*
X88221Y16113D01*
X88127Y16124D01*
X88021Y16141D01*
X87910Y16163D01*
X87794Y16185D01*
X87672Y16218D01*
X87550Y16263D01*
X87422Y16313D01*
X87300Y16368D01*
X87178Y16441D01*
X87067Y16518D01*
X86961Y16607D01*
X86956Y16612D01*
X86939Y16629D01*
X86911Y16662D01*
X86878Y16701D01*
X86834Y16751D01*
X86789Y16812D01*
X86739Y16884D01*
X86689Y16968D01*
X86639Y17056D01*
X86589Y17156D01*
X86545Y17267D01*
X86501Y17384D01*
X86467Y17512D01*
X86440Y17645D01*
X86423Y17784D01*
X86418Y17933D01*
Y17939D01*
Y17956D01*
Y17983D01*
X86423Y18022D01*
Y18072D01*
X86429Y18122D01*
X86440Y18189D01*
X86451Y18255D01*
X86479Y18400D01*
X86523Y18566D01*
X86589Y18727D01*
X86628Y18810D01*
X86673Y18894D01*
X86678Y18899D01*
X86684Y18910D01*
X86700Y18933D01*
X86717Y18966D01*
X86745Y18999D01*
X86778Y19044D01*
X86856Y19138D01*
X86956Y19238D01*
X87078Y19349D01*
X87222Y19454D01*
X87383Y19543D01*
X87389D01*
X87405Y19554D01*
X87428Y19565D01*
X87461Y19576D01*
X87505Y19598D01*
X87555Y19615D01*
X87616Y19637D01*
X87683Y19659D01*
X87755Y19676D01*
X87833Y19698D01*
X87922Y19721D01*
X88010Y19737D01*
X88205Y19759D01*
X88415Y19771D01*
X88471D01*
X88515Y19765D01*
D02*
G37*
G36*
X95000Y26525D02*
X91159D01*
Y29305D01*
X91615D01*
Y27035D01*
X92786D01*
Y29161D01*
X93241D01*
Y27035D01*
X94545D01*
Y29394D01*
X95000D01*
Y26525D01*
D02*
G37*
G36*
X90325Y24904D02*
X86484D01*
Y27685D01*
X86939D01*
Y25415D01*
X88110D01*
Y27540D01*
X88565D01*
Y25415D01*
X89870D01*
Y27774D01*
X90325D01*
Y24904D01*
D02*
G37*
G36*
Y23583D02*
X87111D01*
X90325Y22462D01*
Y22007D01*
X87056Y20897D01*
X90325D01*
Y20409D01*
X86484D01*
Y21169D01*
X89209Y22079D01*
X89215D01*
X89226Y22085D01*
X89242Y22090D01*
X89270Y22102D01*
X89337Y22124D01*
X89420Y22151D01*
X89514Y22179D01*
X89609Y22212D01*
X89697Y22240D01*
X89775Y22263D01*
X89764Y22268D01*
X89736Y22274D01*
X89686Y22290D01*
X89620Y22312D01*
X89531Y22340D01*
X89426Y22379D01*
X89303Y22418D01*
X89159Y22468D01*
X86484Y23389D01*
Y24072D01*
X90325D01*
Y23583D01*
D02*
G37*
G36*
X89359Y15541D02*
X89437Y15530D01*
X89526Y15508D01*
X89620Y15480D01*
X89720Y15436D01*
X89825Y15375D01*
X89831D01*
X89836Y15369D01*
X89870Y15342D01*
X89920Y15303D01*
X89975Y15247D01*
X90042Y15175D01*
X90114Y15086D01*
X90180Y14986D01*
X90241Y14870D01*
Y14864D01*
X90247Y14853D01*
X90253Y14837D01*
X90264Y14814D01*
X90275Y14781D01*
X90291Y14742D01*
X90314Y14653D01*
X90341Y14548D01*
X90369Y14420D01*
X90386Y14281D01*
X90391Y14132D01*
Y14126D01*
Y14109D01*
Y14082D01*
Y14043D01*
X90386Y13998D01*
Y13949D01*
X90380Y13893D01*
X90375Y13826D01*
X90352Y13688D01*
X90330Y13543D01*
X90291Y13399D01*
X90241Y13260D01*
Y13255D01*
X90236Y13244D01*
X90225Y13227D01*
X90214Y13205D01*
X90180Y13138D01*
X90130Y13061D01*
X90064Y12972D01*
X89986Y12877D01*
X89892Y12789D01*
X89786Y12705D01*
X89781D01*
X89770Y12694D01*
X89753Y12689D01*
X89731Y12672D01*
X89703Y12661D01*
X89670Y12644D01*
X89587Y12606D01*
X89481Y12567D01*
X89364Y12533D01*
X89231Y12511D01*
X89093Y12500D01*
X89048Y12977D01*
X89059D01*
X89076Y12983D01*
X89098D01*
X89148Y12994D01*
X89220Y13011D01*
X89292Y13033D01*
X89376Y13055D01*
X89453Y13094D01*
X89526Y13133D01*
X89531Y13138D01*
X89553Y13155D01*
X89592Y13183D01*
X89631Y13227D01*
X89681Y13283D01*
X89731Y13344D01*
X89781Y13427D01*
X89825Y13516D01*
Y13521D01*
X89831Y13527D01*
X89836Y13543D01*
X89842Y13560D01*
X89859Y13615D01*
X89881Y13688D01*
X89903Y13777D01*
X89920Y13876D01*
X89931Y13987D01*
X89936Y14109D01*
Y14115D01*
Y14121D01*
Y14137D01*
Y14160D01*
X89931Y14215D01*
X89925Y14281D01*
X89914Y14359D01*
X89903Y14448D01*
X89881Y14537D01*
X89853Y14620D01*
X89847Y14631D01*
X89836Y14659D01*
X89814Y14698D01*
X89792Y14748D01*
X89753Y14798D01*
X89714Y14853D01*
X89670Y14909D01*
X89614Y14953D01*
X89609Y14959D01*
X89587Y14970D01*
X89559Y14986D01*
X89514Y15009D01*
X89470Y15031D01*
X89415Y15047D01*
X89353Y15058D01*
X89287Y15064D01*
X89253D01*
X89220Y15058D01*
X89176Y15053D01*
X89131Y15036D01*
X89076Y15020D01*
X89020Y14992D01*
X88971Y14953D01*
X88965Y14948D01*
X88948Y14931D01*
X88926Y14909D01*
X88893Y14870D01*
X88859Y14826D01*
X88821Y14764D01*
X88782Y14692D01*
X88749Y14609D01*
X88743Y14604D01*
X88737Y14576D01*
X88721Y14531D01*
X88715Y14504D01*
X88704Y14465D01*
X88687Y14426D01*
X88676Y14376D01*
X88660Y14320D01*
X88643Y14254D01*
X88626Y14187D01*
X88604Y14109D01*
X88582Y14021D01*
X88560Y13926D01*
Y13921D01*
X88554Y13904D01*
X88549Y13876D01*
X88538Y13843D01*
X88526Y13799D01*
X88515Y13749D01*
X88482Y13638D01*
X88443Y13516D01*
X88404Y13388D01*
X88366Y13277D01*
X88343Y13227D01*
X88321Y13183D01*
Y13177D01*
X88316Y13171D01*
X88293Y13138D01*
X88266Y13088D01*
X88221Y13033D01*
X88171Y12966D01*
X88110Y12900D01*
X88038Y12833D01*
X87960Y12777D01*
X87949Y12772D01*
X87922Y12755D01*
X87877Y12733D01*
X87822Y12711D01*
X87749Y12689D01*
X87666Y12666D01*
X87577Y12650D01*
X87483Y12644D01*
X87433D01*
X87378Y12655D01*
X87305Y12666D01*
X87222Y12683D01*
X87128Y12711D01*
X87033Y12750D01*
X86939Y12805D01*
X86934D01*
X86928Y12811D01*
X86895Y12839D01*
X86850Y12877D01*
X86795Y12927D01*
X86734Y12994D01*
X86667Y13077D01*
X86606Y13177D01*
X86551Y13288D01*
Y13294D01*
X86545Y13305D01*
X86540Y13321D01*
X86528Y13344D01*
X86517Y13371D01*
X86506Y13410D01*
X86484Y13494D01*
X86462Y13599D01*
X86440Y13721D01*
X86423Y13849D01*
X86418Y13993D01*
Y13998D01*
Y14010D01*
Y14037D01*
Y14065D01*
X86423Y14104D01*
Y14143D01*
X86434Y14248D01*
X86451Y14365D01*
X86479Y14487D01*
X86512Y14620D01*
X86556Y14742D01*
Y14748D01*
X86562Y14759D01*
X86573Y14775D01*
X86584Y14798D01*
X86612Y14853D01*
X86662Y14925D01*
X86717Y15009D01*
X86789Y15092D01*
X86873Y15170D01*
X86967Y15242D01*
X86972D01*
X86978Y15247D01*
X86995Y15258D01*
X87011Y15270D01*
X87067Y15297D01*
X87139Y15330D01*
X87228Y15369D01*
X87333Y15397D01*
X87444Y15425D01*
X87566Y15436D01*
X87605Y14948D01*
X87589D01*
X87572Y14942D01*
X87544Y14936D01*
X87483Y14920D01*
X87400Y14898D01*
X87311Y14864D01*
X87222Y14814D01*
X87139Y14753D01*
X87061Y14676D01*
X87056Y14664D01*
X87033Y14637D01*
X87000Y14581D01*
X86967Y14509D01*
X86934Y14415D01*
X86900Y14304D01*
X86878Y14165D01*
X86873Y14010D01*
Y14004D01*
Y13987D01*
Y13965D01*
Y13932D01*
X86878Y13899D01*
X86884Y13854D01*
X86895Y13754D01*
X86917Y13643D01*
X86945Y13532D01*
X86989Y13427D01*
X87017Y13383D01*
X87045Y13338D01*
X87050Y13327D01*
X87072Y13305D01*
X87111Y13271D01*
X87156Y13238D01*
X87217Y13199D01*
X87283Y13166D01*
X87361Y13144D01*
X87450Y13133D01*
X87483D01*
X87522Y13138D01*
X87566Y13149D01*
X87622Y13166D01*
X87677Y13194D01*
X87733Y13227D01*
X87788Y13277D01*
X87794Y13283D01*
X87810Y13310D01*
X87827Y13332D01*
X87838Y13355D01*
X87855Y13388D01*
X87877Y13427D01*
X87894Y13477D01*
X87916Y13532D01*
X87938Y13593D01*
X87966Y13666D01*
X87988Y13743D01*
X88016Y13832D01*
X88038Y13932D01*
X88066Y14043D01*
Y14048D01*
X88071Y14071D01*
X88077Y14104D01*
X88088Y14143D01*
X88099Y14193D01*
X88116Y14254D01*
X88132Y14315D01*
X88149Y14381D01*
X88188Y14526D01*
X88227Y14664D01*
X88249Y14731D01*
X88271Y14792D01*
X88288Y14848D01*
X88310Y14892D01*
Y14898D01*
X88316Y14909D01*
X88327Y14925D01*
X88338Y14948D01*
X88371Y15009D01*
X88415Y15081D01*
X88477Y15164D01*
X88543Y15247D01*
X88621Y15325D01*
X88704Y15392D01*
X88715Y15397D01*
X88743Y15419D01*
X88793Y15441D01*
X88859Y15475D01*
X88937Y15503D01*
X89031Y15530D01*
X89137Y15547D01*
X89248Y15552D01*
X89298D01*
X89359Y15541D01*
D02*
G37*
G36*
X25706Y19597D02*
X25752Y19592D01*
X25808Y19587D01*
X25864Y19582D01*
X25930Y19567D01*
X26068Y19536D01*
X26221Y19490D01*
X26298Y19459D01*
X26369Y19424D01*
X26440Y19378D01*
X26512Y19332D01*
X26517Y19327D01*
X26527Y19322D01*
X26548Y19307D01*
X26573Y19281D01*
X26599Y19255D01*
X26634Y19220D01*
X26670Y19179D01*
X26711Y19138D01*
X26752Y19087D01*
X26792Y19026D01*
X26838Y18965D01*
X26879Y18899D01*
X26915Y18822D01*
X26956Y18745D01*
X26986Y18664D01*
X27017Y18572D01*
X26558Y18465D01*
Y18470D01*
X26553Y18480D01*
X26542Y18501D01*
X26532Y18526D01*
X26522Y18557D01*
X26507Y18598D01*
X26466Y18679D01*
X26415Y18771D01*
X26354Y18863D01*
X26277Y18949D01*
X26196Y19026D01*
X26185Y19036D01*
X26155Y19057D01*
X26104Y19082D01*
X26037Y19118D01*
X25951Y19148D01*
X25854Y19179D01*
X25737Y19199D01*
X25609Y19205D01*
X25568D01*
X25543Y19199D01*
X25507D01*
X25466Y19194D01*
X25369Y19179D01*
X25262Y19159D01*
X25150Y19123D01*
X25033Y19072D01*
X24926Y19006D01*
X24921D01*
X24915Y18995D01*
X24880Y18970D01*
X24834Y18929D01*
X24778Y18868D01*
X24712Y18791D01*
X24650Y18705D01*
X24594Y18598D01*
X24543Y18480D01*
Y18475D01*
X24538Y18465D01*
X24533Y18450D01*
X24528Y18424D01*
X24518Y18394D01*
X24508Y18358D01*
X24492Y18271D01*
X24472Y18169D01*
X24451Y18057D01*
X24441Y17935D01*
X24436Y17802D01*
Y17797D01*
Y17782D01*
Y17756D01*
Y17726D01*
X24441Y17690D01*
Y17644D01*
X24446Y17593D01*
X24451Y17537D01*
X24467Y17414D01*
X24492Y17282D01*
X24523Y17149D01*
X24564Y17017D01*
Y17011D01*
X24569Y17001D01*
X24579Y16986D01*
X24589Y16961D01*
X24620Y16899D01*
X24666Y16828D01*
X24722Y16746D01*
X24793Y16660D01*
X24875Y16583D01*
X24972Y16512D01*
X24977D01*
X24987Y16507D01*
X25002Y16496D01*
X25023Y16486D01*
X25048Y16476D01*
X25079Y16461D01*
X25150Y16430D01*
X25242Y16399D01*
X25344Y16374D01*
X25456Y16354D01*
X25573Y16349D01*
X25609D01*
X25640Y16354D01*
X25675D01*
X25711Y16359D01*
X25803Y16379D01*
X25910Y16405D01*
X26017Y16445D01*
X26129Y16501D01*
X26185Y16532D01*
X26236Y16573D01*
X26241Y16578D01*
X26247Y16583D01*
X26262Y16598D01*
X26282Y16614D01*
X26303Y16639D01*
X26328Y16670D01*
X26359Y16700D01*
X26384Y16741D01*
X26415Y16787D01*
X26451Y16838D01*
X26481Y16889D01*
X26512Y16950D01*
X26537Y17017D01*
X26563Y17088D01*
X26588Y17165D01*
X26609Y17246D01*
X27078Y17129D01*
Y17124D01*
X27073Y17103D01*
X27063Y17073D01*
X27047Y17032D01*
X27032Y16986D01*
X27012Y16930D01*
X26986Y16869D01*
X26956Y16802D01*
X26884Y16660D01*
X26792Y16517D01*
X26736Y16445D01*
X26680Y16374D01*
X26619Y16313D01*
X26548Y16252D01*
X26542Y16247D01*
X26532Y16236D01*
X26507Y16226D01*
X26481Y16206D01*
X26440Y16180D01*
X26400Y16155D01*
X26344Y16129D01*
X26287Y16104D01*
X26221Y16073D01*
X26150Y16048D01*
X26073Y16022D01*
X25992Y15997D01*
X25905Y15976D01*
X25813Y15966D01*
X25716Y15956D01*
X25614Y15951D01*
X25558D01*
X25517Y15956D01*
X25471D01*
X25415Y15961D01*
X25354Y15971D01*
X25283Y15981D01*
X25135Y16007D01*
X24982Y16048D01*
X24829Y16104D01*
X24757Y16139D01*
X24686Y16180D01*
X24681Y16185D01*
X24671Y16190D01*
X24650Y16206D01*
X24630Y16226D01*
X24599Y16247D01*
X24564Y16277D01*
X24523Y16313D01*
X24482Y16354D01*
X24441Y16399D01*
X24395Y16445D01*
X24304Y16563D01*
X24217Y16700D01*
X24140Y16853D01*
Y16859D01*
X24130Y16874D01*
X24125Y16899D01*
X24110Y16930D01*
X24100Y16971D01*
X24084Y17022D01*
X24064Y17078D01*
X24048Y17139D01*
X24033Y17205D01*
X24013Y17282D01*
X23987Y17440D01*
X23967Y17618D01*
X23957Y17802D01*
Y17807D01*
Y17828D01*
Y17858D01*
X23962Y17894D01*
Y17945D01*
X23967Y17996D01*
X23972Y18062D01*
X23982Y18128D01*
X24008Y18276D01*
X24043Y18440D01*
X24094Y18603D01*
X24166Y18761D01*
X24171Y18766D01*
X24176Y18781D01*
X24186Y18802D01*
X24207Y18827D01*
X24227Y18863D01*
X24252Y18904D01*
X24319Y18995D01*
X24406Y19097D01*
X24508Y19199D01*
X24625Y19301D01*
X24762Y19388D01*
X24768Y19393D01*
X24783Y19398D01*
X24803Y19409D01*
X24829Y19424D01*
X24870Y19439D01*
X24910Y19454D01*
X24961Y19475D01*
X25017Y19495D01*
X25079Y19516D01*
X25145Y19536D01*
X25288Y19567D01*
X25451Y19592D01*
X25619Y19602D01*
X25670D01*
X25706Y19597D01*
D02*
G37*
G36*
X28730Y19551D02*
X28771Y19546D01*
X28822Y19541D01*
X28878Y19531D01*
X28934Y19521D01*
X29067Y19485D01*
X29199Y19434D01*
X29266Y19403D01*
X29332Y19368D01*
X29393Y19322D01*
X29449Y19271D01*
X29454Y19266D01*
X29465Y19261D01*
X29475Y19240D01*
X29495Y19220D01*
X29521Y19194D01*
X29546Y19159D01*
X29572Y19123D01*
X29602Y19077D01*
X29653Y18980D01*
X29704Y18858D01*
X29725Y18797D01*
X29735Y18725D01*
X29745Y18654D01*
X29750Y18577D01*
Y18567D01*
Y18541D01*
X29745Y18501D01*
X29740Y18445D01*
X29730Y18383D01*
X29710Y18312D01*
X29689Y18236D01*
X29658Y18159D01*
X29653Y18149D01*
X29643Y18123D01*
X29623Y18082D01*
X29592Y18026D01*
X29551Y17965D01*
X29500Y17889D01*
X29439Y17812D01*
X29368Y17726D01*
X29358Y17715D01*
X29332Y17685D01*
X29307Y17659D01*
X29281Y17634D01*
X29250Y17603D01*
X29210Y17562D01*
X29169Y17522D01*
X29118Y17476D01*
X29067Y17425D01*
X29006Y17368D01*
X28939Y17312D01*
X28868Y17246D01*
X28786Y17180D01*
X28705Y17108D01*
X28700Y17103D01*
X28690Y17093D01*
X28669Y17078D01*
X28644Y17057D01*
X28613Y17027D01*
X28577Y16996D01*
X28496Y16930D01*
X28409Y16853D01*
X28327Y16777D01*
X28256Y16711D01*
X28225Y16685D01*
X28200Y16660D01*
X28195Y16655D01*
X28179Y16639D01*
X28159Y16619D01*
X28134Y16588D01*
X28108Y16553D01*
X28078Y16517D01*
X28016Y16430D01*
X29755D01*
Y16012D01*
X27415D01*
Y16017D01*
Y16037D01*
Y16068D01*
X27420Y16109D01*
X27425Y16155D01*
X27435Y16206D01*
X27445Y16257D01*
X27466Y16313D01*
Y16318D01*
X27471Y16323D01*
X27481Y16354D01*
X27501Y16399D01*
X27532Y16461D01*
X27573Y16532D01*
X27624Y16614D01*
X27680Y16695D01*
X27751Y16782D01*
Y16787D01*
X27761Y16792D01*
X27787Y16823D01*
X27833Y16869D01*
X27899Y16935D01*
X27975Y17011D01*
X28072Y17103D01*
X28190Y17205D01*
X28317Y17312D01*
X28322Y17318D01*
X28343Y17333D01*
X28373Y17358D01*
X28409Y17389D01*
X28455Y17430D01*
X28511Y17476D01*
X28567Y17527D01*
X28633Y17583D01*
X28761Y17705D01*
X28888Y17828D01*
X28950Y17889D01*
X29006Y17950D01*
X29057Y18006D01*
X29098Y18062D01*
Y18067D01*
X29108Y18072D01*
X29118Y18088D01*
X29128Y18108D01*
X29164Y18164D01*
X29205Y18230D01*
X29240Y18312D01*
X29276Y18399D01*
X29296Y18496D01*
X29307Y18587D01*
Y18593D01*
Y18598D01*
X29302Y18628D01*
X29296Y18679D01*
X29281Y18735D01*
X29261Y18807D01*
X29225Y18878D01*
X29179Y18949D01*
X29118Y19021D01*
X29108Y19031D01*
X29082Y19051D01*
X29046Y19077D01*
X28990Y19113D01*
X28919Y19143D01*
X28837Y19174D01*
X28741Y19194D01*
X28633Y19199D01*
X28603D01*
X28582Y19194D01*
X28521Y19189D01*
X28450Y19174D01*
X28373Y19153D01*
X28287Y19118D01*
X28205Y19072D01*
X28128Y19011D01*
X28118Y19001D01*
X28098Y18975D01*
X28067Y18934D01*
X28037Y18873D01*
X28001Y18802D01*
X27970Y18710D01*
X27950Y18608D01*
X27940Y18490D01*
X27496Y18536D01*
Y18541D01*
X27501Y18557D01*
Y18582D01*
X27506Y18618D01*
X27516Y18659D01*
X27527Y18705D01*
X27542Y18761D01*
X27557Y18817D01*
X27598Y18939D01*
X27659Y19062D01*
X27695Y19123D01*
X27741Y19184D01*
X27787Y19240D01*
X27838Y19291D01*
X27843Y19296D01*
X27853Y19301D01*
X27868Y19317D01*
X27894Y19332D01*
X27924Y19352D01*
X27960Y19373D01*
X28001Y19398D01*
X28052Y19424D01*
X28108Y19449D01*
X28169Y19475D01*
X28236Y19495D01*
X28307Y19516D01*
X28383Y19531D01*
X28465Y19546D01*
X28552Y19551D01*
X28644Y19556D01*
X28695D01*
X28730Y19551D01*
D02*
G37*
G36*
X16749Y58085D02*
X16795Y58080D01*
X16851Y58075D01*
X16907Y58070D01*
X16974Y58055D01*
X17111Y58024D01*
X17264Y57978D01*
X17341Y57948D01*
X17412Y57912D01*
X17484Y57866D01*
X17555Y57820D01*
X17560Y57815D01*
X17570Y57810D01*
X17591Y57795D01*
X17616Y57769D01*
X17642Y57744D01*
X17677Y57708D01*
X17713Y57667D01*
X17754Y57626D01*
X17795Y57575D01*
X17836Y57514D01*
X17882Y57453D01*
X17922Y57387D01*
X17958Y57310D01*
X17999Y57234D01*
X18029Y57152D01*
X18060Y57060D01*
X17601Y56953D01*
Y56958D01*
X17596Y56968D01*
X17586Y56989D01*
X17575Y57014D01*
X17565Y57045D01*
X17550Y57086D01*
X17509Y57167D01*
X17458Y57259D01*
X17397Y57351D01*
X17321Y57438D01*
X17239Y57514D01*
X17229Y57524D01*
X17198Y57545D01*
X17147Y57570D01*
X17081Y57606D01*
X16994Y57636D01*
X16897Y57667D01*
X16780Y57687D01*
X16652Y57693D01*
X16612D01*
X16586Y57687D01*
X16550D01*
X16510Y57682D01*
X16413Y57667D01*
X16306Y57647D01*
X16193Y57611D01*
X16076Y57560D01*
X15969Y57494D01*
X15964D01*
X15959Y57484D01*
X15923Y57458D01*
X15877Y57417D01*
X15821Y57356D01*
X15755Y57279D01*
X15694Y57193D01*
X15638Y57086D01*
X15586Y56968D01*
Y56963D01*
X15581Y56953D01*
X15576Y56938D01*
X15571Y56912D01*
X15561Y56882D01*
X15551Y56846D01*
X15536Y56759D01*
X15515Y56657D01*
X15495Y56545D01*
X15484Y56423D01*
X15479Y56290D01*
Y56285D01*
Y56270D01*
Y56244D01*
Y56214D01*
X15484Y56178D01*
Y56132D01*
X15490Y56081D01*
X15495Y56025D01*
X15510Y55902D01*
X15536Y55770D01*
X15566Y55637D01*
X15607Y55505D01*
Y55500D01*
X15612Y55489D01*
X15622Y55474D01*
X15632Y55449D01*
X15663Y55387D01*
X15709Y55316D01*
X15765Y55234D01*
X15836Y55148D01*
X15918Y55071D01*
X16015Y55000D01*
X16020D01*
X16030Y54995D01*
X16046Y54984D01*
X16066Y54974D01*
X16091Y54964D01*
X16122Y54949D01*
X16193Y54918D01*
X16285Y54888D01*
X16387Y54862D01*
X16499Y54842D01*
X16617Y54837D01*
X16652D01*
X16683Y54842D01*
X16719D01*
X16754Y54847D01*
X16846Y54867D01*
X16953Y54893D01*
X17060Y54934D01*
X17173Y54990D01*
X17229Y55020D01*
X17280Y55061D01*
X17285Y55066D01*
X17290Y55071D01*
X17305Y55086D01*
X17326Y55102D01*
X17346Y55127D01*
X17371Y55158D01*
X17402Y55189D01*
X17428Y55229D01*
X17458Y55275D01*
X17494Y55326D01*
X17525Y55377D01*
X17555Y55438D01*
X17581Y55505D01*
X17606Y55576D01*
X17632Y55653D01*
X17652Y55734D01*
X18121Y55617D01*
Y55612D01*
X18116Y55591D01*
X18106Y55561D01*
X18091Y55520D01*
X18075Y55474D01*
X18055Y55418D01*
X18029Y55357D01*
X17999Y55291D01*
X17927Y55148D01*
X17836Y55005D01*
X17779Y54934D01*
X17723Y54862D01*
X17662Y54801D01*
X17591Y54740D01*
X17586Y54735D01*
X17575Y54724D01*
X17550Y54714D01*
X17525Y54694D01*
X17484Y54668D01*
X17443Y54643D01*
X17387Y54617D01*
X17331Y54592D01*
X17264Y54561D01*
X17193Y54536D01*
X17117Y54510D01*
X17035Y54485D01*
X16948Y54464D01*
X16856Y54454D01*
X16759Y54444D01*
X16657Y54439D01*
X16601D01*
X16561Y54444D01*
X16515D01*
X16459Y54449D01*
X16397Y54459D01*
X16326Y54469D01*
X16178Y54495D01*
X16025Y54536D01*
X15872Y54592D01*
X15801Y54628D01*
X15729Y54668D01*
X15724Y54673D01*
X15714Y54678D01*
X15694Y54694D01*
X15673Y54714D01*
X15643Y54735D01*
X15607Y54765D01*
X15566Y54801D01*
X15525Y54842D01*
X15484Y54888D01*
X15439Y54934D01*
X15347Y55051D01*
X15260Y55189D01*
X15184Y55342D01*
Y55347D01*
X15173Y55362D01*
X15168Y55387D01*
X15153Y55418D01*
X15143Y55459D01*
X15127Y55510D01*
X15107Y55566D01*
X15092Y55627D01*
X15077Y55693D01*
X15056Y55770D01*
X15031Y55928D01*
X15010Y56107D01*
X15000Y56290D01*
Y56295D01*
Y56316D01*
Y56346D01*
X15005Y56382D01*
Y56433D01*
X15010Y56484D01*
X15015Y56550D01*
X15025Y56616D01*
X15051Y56764D01*
X15087Y56928D01*
X15138Y57091D01*
X15209Y57249D01*
X15214Y57254D01*
X15219Y57269D01*
X15229Y57290D01*
X15250Y57315D01*
X15270Y57351D01*
X15296Y57392D01*
X15362Y57484D01*
X15449Y57586D01*
X15551Y57687D01*
X15668Y57789D01*
X15806Y57876D01*
X15811Y57881D01*
X15826Y57886D01*
X15847Y57897D01*
X15872Y57912D01*
X15913Y57927D01*
X15954Y57942D01*
X16005Y57963D01*
X16061Y57983D01*
X16122Y58004D01*
X16188Y58024D01*
X16331Y58055D01*
X16494Y58080D01*
X16663Y58090D01*
X16714D01*
X16749Y58085D01*
D02*
G37*
G36*
X95000Y14998D02*
X91986Y12988D01*
X95000D01*
Y12500D01*
X91159D01*
Y13022D01*
X94179Y15036D01*
X91159D01*
Y15525D01*
X95000D01*
Y14998D01*
D02*
G37*
G36*
X7249Y58085D02*
X7295Y58080D01*
X7351Y58075D01*
X7407Y58070D01*
X7474Y58055D01*
X7611Y58024D01*
X7764Y57978D01*
X7841Y57948D01*
X7912Y57912D01*
X7984Y57866D01*
X8055Y57820D01*
X8060Y57815D01*
X8070Y57810D01*
X8091Y57795D01*
X8116Y57769D01*
X8142Y57744D01*
X8178Y57708D01*
X8213Y57667D01*
X8254Y57626D01*
X8295Y57575D01*
X8336Y57514D01*
X8382Y57453D01*
X8422Y57387D01*
X8458Y57310D01*
X8499Y57234D01*
X8529Y57152D01*
X8560Y57060D01*
X8101Y56953D01*
Y56958D01*
X8096Y56968D01*
X8086Y56989D01*
X8076Y57014D01*
X8065Y57045D01*
X8050Y57086D01*
X8009Y57167D01*
X7958Y57259D01*
X7897Y57351D01*
X7820Y57438D01*
X7739Y57514D01*
X7729Y57524D01*
X7698Y57545D01*
X7647Y57570D01*
X7581Y57606D01*
X7494Y57636D01*
X7397Y57667D01*
X7280Y57687D01*
X7152Y57693D01*
X7112D01*
X7086Y57687D01*
X7050D01*
X7010Y57682D01*
X6913Y57667D01*
X6806Y57647D01*
X6693Y57611D01*
X6576Y57560D01*
X6469Y57494D01*
X6464D01*
X6459Y57484D01*
X6423Y57458D01*
X6377Y57417D01*
X6321Y57356D01*
X6255Y57279D01*
X6194Y57193D01*
X6137Y57086D01*
X6086Y56968D01*
Y56963D01*
X6081Y56953D01*
X6076Y56938D01*
X6071Y56912D01*
X6061Y56882D01*
X6051Y56846D01*
X6036Y56759D01*
X6015Y56657D01*
X5995Y56545D01*
X5985Y56423D01*
X5979Y56290D01*
Y56285D01*
Y56270D01*
Y56244D01*
Y56214D01*
X5985Y56178D01*
Y56132D01*
X5990Y56081D01*
X5995Y56025D01*
X6010Y55902D01*
X6036Y55770D01*
X6066Y55637D01*
X6107Y55505D01*
Y55500D01*
X6112Y55489D01*
X6122Y55474D01*
X6132Y55449D01*
X6163Y55387D01*
X6209Y55316D01*
X6265Y55234D01*
X6336Y55148D01*
X6418Y55071D01*
X6515Y55000D01*
X6520D01*
X6530Y54995D01*
X6545Y54984D01*
X6566Y54974D01*
X6591Y54964D01*
X6622Y54949D01*
X6693Y54918D01*
X6785Y54888D01*
X6887Y54862D01*
X6999Y54842D01*
X7117Y54837D01*
X7152D01*
X7183Y54842D01*
X7219D01*
X7254Y54847D01*
X7346Y54867D01*
X7453Y54893D01*
X7560Y54934D01*
X7673Y54990D01*
X7729Y55020D01*
X7780Y55061D01*
X7785Y55066D01*
X7790Y55071D01*
X7805Y55086D01*
X7826Y55102D01*
X7846Y55127D01*
X7871Y55158D01*
X7902Y55189D01*
X7928Y55229D01*
X7958Y55275D01*
X7994Y55326D01*
X8025Y55377D01*
X8055Y55438D01*
X8081Y55505D01*
X8106Y55576D01*
X8132Y55653D01*
X8152Y55734D01*
X8621Y55617D01*
Y55612D01*
X8616Y55591D01*
X8606Y55561D01*
X8591Y55520D01*
X8575Y55474D01*
X8555Y55418D01*
X8529Y55357D01*
X8499Y55291D01*
X8427Y55148D01*
X8336Y55005D01*
X8280Y54934D01*
X8223Y54862D01*
X8162Y54801D01*
X8091Y54740D01*
X8086Y54735D01*
X8076Y54724D01*
X8050Y54714D01*
X8025Y54694D01*
X7984Y54668D01*
X7943Y54643D01*
X7887Y54617D01*
X7831Y54592D01*
X7764Y54561D01*
X7693Y54536D01*
X7616Y54510D01*
X7535Y54485D01*
X7448Y54464D01*
X7356Y54454D01*
X7260Y54444D01*
X7158Y54439D01*
X7101D01*
X7061Y54444D01*
X7015D01*
X6959Y54449D01*
X6897Y54459D01*
X6826Y54469D01*
X6678Y54495D01*
X6525Y54536D01*
X6372Y54592D01*
X6301Y54628D01*
X6229Y54668D01*
X6224Y54673D01*
X6214Y54678D01*
X6194Y54694D01*
X6173Y54714D01*
X6143Y54735D01*
X6107Y54765D01*
X6066Y54801D01*
X6025Y54842D01*
X5985Y54888D01*
X5939Y54934D01*
X5847Y55051D01*
X5760Y55189D01*
X5684Y55342D01*
Y55347D01*
X5673Y55362D01*
X5668Y55387D01*
X5653Y55418D01*
X5643Y55459D01*
X5627Y55510D01*
X5607Y55566D01*
X5592Y55627D01*
X5576Y55693D01*
X5556Y55770D01*
X5531Y55928D01*
X5510Y56107D01*
X5500Y56290D01*
Y56295D01*
Y56316D01*
Y56346D01*
X5505Y56382D01*
Y56433D01*
X5510Y56484D01*
X5515Y56550D01*
X5525Y56616D01*
X5551Y56764D01*
X5587Y56928D01*
X5638Y57091D01*
X5709Y57249D01*
X5714Y57254D01*
X5719Y57269D01*
X5729Y57290D01*
X5750Y57315D01*
X5770Y57351D01*
X5796Y57392D01*
X5862Y57484D01*
X5949Y57586D01*
X6051Y57687D01*
X6168Y57789D01*
X6306Y57876D01*
X6311Y57881D01*
X6326Y57886D01*
X6347Y57897D01*
X6372Y57912D01*
X6413Y57927D01*
X6454Y57942D01*
X6505Y57963D01*
X6561Y57983D01*
X6622Y58004D01*
X6688Y58024D01*
X6831Y58055D01*
X6994Y58080D01*
X7163Y58090D01*
X7214D01*
X7249Y58085D01*
D02*
G37*
G36*
X10651Y54500D02*
X10217D01*
Y57259D01*
X10212Y57254D01*
X10187Y57234D01*
X10156Y57203D01*
X10105Y57167D01*
X10049Y57121D01*
X9978Y57070D01*
X9896Y57014D01*
X9804Y56958D01*
X9799D01*
X9794Y56953D01*
X9764Y56933D01*
X9713Y56907D01*
X9651Y56877D01*
X9580Y56841D01*
X9504Y56805D01*
X9427Y56770D01*
X9351Y56739D01*
Y57157D01*
X9356D01*
X9366Y57167D01*
X9386Y57172D01*
X9412Y57188D01*
X9442Y57203D01*
X9478Y57223D01*
X9565Y57274D01*
X9667Y57331D01*
X9769Y57402D01*
X9876Y57484D01*
X9983Y57570D01*
X9988Y57575D01*
X9993Y57580D01*
X10008Y57596D01*
X10029Y57611D01*
X10075Y57662D01*
X10136Y57723D01*
X10197Y57795D01*
X10263Y57876D01*
X10319Y57958D01*
X10370Y58044D01*
X10651D01*
Y54500D01*
D02*
G37*
G36*
X93174Y47881D02*
X93218D01*
X93324Y47876D01*
X93446Y47859D01*
X93574Y47842D01*
X93707Y47815D01*
X93840Y47781D01*
X93846D01*
X93857Y47776D01*
X93873Y47770D01*
X93896Y47765D01*
X93957Y47743D01*
X94034Y47709D01*
X94123Y47676D01*
X94212Y47631D01*
X94306Y47576D01*
X94395Y47521D01*
X94406Y47515D01*
X94434Y47493D01*
X94473Y47459D01*
X94523Y47415D01*
X94578Y47365D01*
X94634Y47304D01*
X94695Y47243D01*
X94745Y47171D01*
X94750Y47160D01*
X94767Y47137D01*
X94789Y47099D01*
X94817Y47043D01*
X94850Y46977D01*
X94878Y46899D01*
X94911Y46810D01*
X94939Y46710D01*
Y46705D01*
Y46699D01*
X94945Y46683D01*
X94950Y46666D01*
X94956Y46610D01*
X94967Y46533D01*
X94978Y46444D01*
X94989Y46338D01*
X94994Y46222D01*
X95000Y46094D01*
Y44712D01*
X91159D01*
Y46033D01*
Y46039D01*
Y46055D01*
Y46077D01*
Y46105D01*
Y46144D01*
Y46189D01*
X91165Y46288D01*
X91171Y46399D01*
X91182Y46510D01*
X91198Y46621D01*
X91215Y46716D01*
Y46721D01*
X91220Y46732D01*
Y46749D01*
X91232Y46771D01*
X91248Y46832D01*
X91276Y46910D01*
X91315Y46999D01*
X91365Y47093D01*
X91420Y47188D01*
X91492Y47276D01*
X91498Y47282D01*
X91504Y47287D01*
X91520Y47304D01*
X91537Y47326D01*
X91592Y47382D01*
X91670Y47448D01*
X91764Y47521D01*
X91875Y47598D01*
X92003Y47670D01*
X92147Y47731D01*
X92153D01*
X92164Y47737D01*
X92186Y47748D01*
X92219Y47754D01*
X92258Y47770D01*
X92303Y47781D01*
X92353Y47793D01*
X92414Y47809D01*
X92475Y47826D01*
X92547Y47837D01*
X92702Y47865D01*
X92874Y47881D01*
X93063Y47887D01*
X93135D01*
X93174Y47881D01*
D02*
G37*
G36*
X89797Y44418D02*
X89803Y44407D01*
X89820Y44385D01*
X89842Y44357D01*
X89864Y44324D01*
X89892Y44285D01*
X89925Y44235D01*
X89958Y44185D01*
X90030Y44068D01*
X90108Y43935D01*
X90180Y43796D01*
X90241Y43647D01*
Y43641D01*
X90247Y43630D01*
X90253Y43608D01*
X90264Y43580D01*
X90275Y43541D01*
X90291Y43497D01*
X90302Y43447D01*
X90314Y43397D01*
X90341Y43275D01*
X90369Y43136D01*
X90386Y42986D01*
X90391Y42831D01*
Y42825D01*
Y42803D01*
Y42775D01*
X90386Y42736D01*
Y42687D01*
X90380Y42625D01*
X90369Y42559D01*
X90364Y42487D01*
X90330Y42326D01*
X90291Y42154D01*
X90230Y41976D01*
X90197Y41887D01*
X90153Y41798D01*
X90147Y41793D01*
X90141Y41776D01*
X90125Y41754D01*
X90108Y41721D01*
X90080Y41682D01*
X90053Y41643D01*
X89975Y41538D01*
X89875Y41427D01*
X89753Y41310D01*
X89614Y41199D01*
X89453Y41099D01*
X89448D01*
X89431Y41088D01*
X89409Y41077D01*
X89370Y41060D01*
X89331Y41044D01*
X89276Y41027D01*
X89220Y41005D01*
X89154Y40983D01*
X89082Y40960D01*
X88998Y40938D01*
X88915Y40922D01*
X88826Y40905D01*
X88632Y40877D01*
X88427Y40866D01*
X88371D01*
X88332Y40872D01*
X88282D01*
X88221Y40877D01*
X88160Y40888D01*
X88088Y40894D01*
X88010Y40910D01*
X87927Y40922D01*
X87749Y40966D01*
X87566Y41021D01*
X87383Y41099D01*
X87378Y41105D01*
X87361Y41110D01*
X87339Y41121D01*
X87305Y41144D01*
X87261Y41166D01*
X87217Y41194D01*
X87111Y41271D01*
X86989Y41366D01*
X86873Y41482D01*
X86756Y41615D01*
X86706Y41693D01*
X86656Y41771D01*
X86651Y41776D01*
X86645Y41793D01*
X86634Y41815D01*
X86617Y41848D01*
X86601Y41893D01*
X86578Y41943D01*
X86556Y41998D01*
X86534Y42065D01*
X86512Y42137D01*
X86495Y42215D01*
X86473Y42298D01*
X86456Y42387D01*
X86429Y42581D01*
X86418Y42681D01*
Y42786D01*
Y42792D01*
Y42803D01*
Y42825D01*
Y42858D01*
X86423Y42892D01*
Y42936D01*
X86434Y43042D01*
X86451Y43158D01*
X86479Y43280D01*
X86512Y43413D01*
X86556Y43541D01*
Y43547D01*
X86562Y43558D01*
X86567Y43575D01*
X86578Y43597D01*
X86612Y43658D01*
X86651Y43735D01*
X86706Y43819D01*
X86773Y43907D01*
X86845Y43991D01*
X86934Y44068D01*
X86945Y44080D01*
X86978Y44102D01*
X87028Y44135D01*
X87100Y44179D01*
X87189Y44224D01*
X87300Y44274D01*
X87422Y44324D01*
X87561Y44363D01*
X87683Y43902D01*
X87677D01*
X87672Y43896D01*
X87655Y43891D01*
X87633Y43885D01*
X87583Y43869D01*
X87516Y43846D01*
X87439Y43813D01*
X87366Y43774D01*
X87289Y43735D01*
X87222Y43685D01*
X87217Y43680D01*
X87195Y43663D01*
X87167Y43630D01*
X87128Y43591D01*
X87084Y43541D01*
X87039Y43475D01*
X86995Y43402D01*
X86956Y43319D01*
X86950Y43308D01*
X86939Y43280D01*
X86923Y43230D01*
X86900Y43164D01*
X86884Y43086D01*
X86867Y42997D01*
X86856Y42897D01*
X86850Y42792D01*
Y42786D01*
Y42775D01*
Y42759D01*
Y42731D01*
X86856Y42703D01*
Y42670D01*
X86861Y42586D01*
X86878Y42492D01*
X86895Y42387D01*
X86923Y42287D01*
X86961Y42187D01*
X86967Y42176D01*
X86978Y42143D01*
X87006Y42098D01*
X87033Y42043D01*
X87078Y41976D01*
X87122Y41904D01*
X87178Y41837D01*
X87239Y41776D01*
X87244Y41771D01*
X87267Y41748D01*
X87305Y41721D01*
X87350Y41688D01*
X87405Y41649D01*
X87472Y41610D01*
X87544Y41571D01*
X87622Y41532D01*
X87627D01*
X87638Y41526D01*
X87655Y41521D01*
X87683Y41510D01*
X87716Y41499D01*
X87755Y41488D01*
X87799Y41471D01*
X87849Y41460D01*
X87966Y41432D01*
X88099Y41410D01*
X88238Y41393D01*
X88393Y41388D01*
X88443D01*
X88477Y41393D01*
X88521D01*
X88576Y41399D01*
X88632Y41404D01*
X88693Y41410D01*
X88832Y41432D01*
X88976Y41460D01*
X89120Y41504D01*
X89259Y41560D01*
X89265D01*
X89276Y41571D01*
X89292Y41576D01*
X89315Y41593D01*
X89376Y41632D01*
X89453Y41693D01*
X89537Y41765D01*
X89620Y41854D01*
X89697Y41959D01*
X89770Y42076D01*
Y42081D01*
X89775Y42093D01*
X89786Y42109D01*
X89797Y42137D01*
X89808Y42165D01*
X89820Y42204D01*
X89853Y42292D01*
X89881Y42403D01*
X89908Y42526D01*
X89931Y42659D01*
X89936Y42797D01*
Y42803D01*
Y42814D01*
Y42831D01*
Y42853D01*
X89931Y42886D01*
Y42919D01*
X89920Y43003D01*
X89908Y43103D01*
X89886Y43208D01*
X89853Y43325D01*
X89814Y43441D01*
Y43447D01*
X89808Y43458D01*
X89803Y43469D01*
X89792Y43491D01*
X89764Y43552D01*
X89731Y43619D01*
X89692Y43697D01*
X89648Y43780D01*
X89598Y43857D01*
X89542Y43924D01*
X88821D01*
Y42792D01*
X88366D01*
Y44424D01*
X89792D01*
X89797Y44418D01*
D02*
G37*
G36*
X93374Y42720D02*
X95000D01*
Y42209D01*
X93374D01*
X91159Y40727D01*
Y41343D01*
X92325Y42098D01*
X92330D01*
X92342Y42109D01*
X92358Y42120D01*
X92380Y42132D01*
X92408Y42154D01*
X92441Y42176D01*
X92525Y42226D01*
X92625Y42287D01*
X92736Y42353D01*
X92852Y42426D01*
X92974Y42492D01*
X92969D01*
X92958Y42498D01*
X92941Y42509D01*
X92919Y42526D01*
X92891Y42542D01*
X92858Y42564D01*
X92774Y42614D01*
X92674Y42675D01*
X92558Y42748D01*
X92430Y42831D01*
X92292Y42919D01*
X91159Y43658D01*
Y44251D01*
X93374Y42720D01*
D02*
G37*
G36*
X67386Y80272D02*
Y76728D01*
X65614Y78500D01*
X67386Y80272D01*
X67386Y80272D01*
D02*
G37*
G36*
X93374Y53753D02*
X95000D01*
Y53243D01*
X93374D01*
X91159Y51761D01*
Y52377D01*
X92325Y53132D01*
X92330D01*
X92342Y53143D01*
X92358Y53154D01*
X92380Y53165D01*
X92408Y53187D01*
X92441Y53209D01*
X92525Y53259D01*
X92625Y53320D01*
X92736Y53387D01*
X92852Y53459D01*
X92974Y53526D01*
X92969D01*
X92958Y53531D01*
X92941Y53542D01*
X92919Y53559D01*
X92891Y53575D01*
X92858Y53598D01*
X92774Y53648D01*
X92674Y53709D01*
X92558Y53781D01*
X92430Y53864D01*
X92292Y53953D01*
X91159Y54691D01*
Y55285D01*
X93374Y53753D01*
D02*
G37*
G36*
X95000Y51178D02*
X93835Y50728D01*
Y49119D01*
X95000Y48703D01*
Y48164D01*
X91159Y49630D01*
Y50185D01*
X95000Y51755D01*
Y51178D01*
D02*
G37*
G36*
Y40006D02*
X94201Y39501D01*
X94195D01*
X94184Y39490D01*
X94168Y39479D01*
X94145Y39462D01*
X94084Y39423D01*
X94007Y39373D01*
X93923Y39312D01*
X93835Y39251D01*
X93751Y39190D01*
X93674Y39134D01*
X93668Y39129D01*
X93646Y39112D01*
X93612Y39085D01*
X93574Y39046D01*
X93490Y38962D01*
X93451Y38918D01*
X93418Y38874D01*
X93413Y38868D01*
X93407Y38857D01*
X93396Y38835D01*
X93379Y38801D01*
X93363Y38768D01*
X93346Y38729D01*
X93318Y38640D01*
Y38635D01*
X93313Y38624D01*
Y38602D01*
X93307Y38574D01*
X93302Y38535D01*
Y38491D01*
X93296Y38430D01*
Y38363D01*
Y37775D01*
X95000D01*
Y37264D01*
X91159D01*
Y38962D01*
Y38968D01*
Y38985D01*
Y39012D01*
Y39046D01*
X91165Y39090D01*
Y39140D01*
X91171Y39257D01*
X91187Y39379D01*
X91204Y39512D01*
X91232Y39634D01*
X91248Y39695D01*
X91265Y39745D01*
Y39750D01*
X91270Y39756D01*
X91287Y39789D01*
X91309Y39839D01*
X91348Y39900D01*
X91398Y39967D01*
X91465Y40039D01*
X91542Y40106D01*
X91631Y40172D01*
X91637D01*
X91642Y40178D01*
X91676Y40200D01*
X91731Y40222D01*
X91803Y40255D01*
X91887Y40283D01*
X91986Y40311D01*
X92092Y40328D01*
X92208Y40333D01*
X92247D01*
X92275Y40328D01*
X92314D01*
X92353Y40322D01*
X92447Y40300D01*
X92558Y40267D01*
X92674Y40222D01*
X92791Y40156D01*
X92847Y40111D01*
X92902Y40067D01*
X92908Y40061D01*
X92913Y40056D01*
X92930Y40039D01*
X92946Y40017D01*
X92969Y39989D01*
X92991Y39956D01*
X93019Y39911D01*
X93052Y39867D01*
X93080Y39812D01*
X93107Y39750D01*
X93141Y39684D01*
X93168Y39612D01*
X93191Y39529D01*
X93218Y39445D01*
X93235Y39351D01*
X93252Y39251D01*
X93257Y39262D01*
X93268Y39284D01*
X93291Y39318D01*
X93313Y39362D01*
X93374Y39462D01*
X93413Y39512D01*
X93446Y39556D01*
X93457Y39567D01*
X93485Y39595D01*
X93529Y39639D01*
X93585Y39695D01*
X93663Y39756D01*
X93746Y39828D01*
X93846Y39900D01*
X93957Y39978D01*
X95000Y40639D01*
Y40006D01*
D02*
G37*
G36*
X90325Y34273D02*
X88515D01*
Y32286D01*
X90325D01*
Y31775D01*
X86484D01*
Y32286D01*
X88060D01*
Y34273D01*
X86484D01*
Y34783D01*
X90325D01*
Y34273D01*
D02*
G37*
G36*
X95000Y31720D02*
Y31187D01*
X91159Y29700D01*
Y30255D01*
X93951Y31253D01*
X93957D01*
X93968Y31259D01*
X93984Y31265D01*
X94007Y31276D01*
X94040Y31281D01*
X94073Y31292D01*
X94156Y31320D01*
X94251Y31353D01*
X94356Y31387D01*
X94578Y31453D01*
X94573D01*
X94561Y31459D01*
X94545Y31464D01*
X94523Y31470D01*
X94462Y31486D01*
X94378Y31514D01*
X94284Y31542D01*
X94179Y31575D01*
X94068Y31614D01*
X93951Y31659D01*
X91159Y32702D01*
Y33218D01*
X95000Y31720D01*
D02*
G37*
G36*
X86939Y29966D02*
X90325D01*
Y29455D01*
X86939D01*
Y28190D01*
X86484D01*
Y31231D01*
X86939D01*
Y29966D01*
D02*
G37*
G36*
X90325Y39617D02*
X87311Y37608D01*
X90325D01*
Y37120D01*
X86484D01*
Y37642D01*
X89503Y39656D01*
X86484D01*
Y40145D01*
X90325D01*
Y39617D01*
D02*
G37*
G36*
Y35716D02*
X86484D01*
Y36226D01*
X90325D01*
Y35716D01*
D02*
G37*
G36*
X95000Y33684D02*
X91159D01*
Y36465D01*
X91615D01*
Y34195D01*
X92786D01*
Y36321D01*
X93241D01*
Y34195D01*
X94545D01*
Y36554D01*
X95000D01*
Y33684D01*
D02*
G37*
G36*
X26349Y61085D02*
X26395Y61080D01*
X26451Y61075D01*
X26507Y61070D01*
X26574Y61055D01*
X26711Y61024D01*
X26864Y60978D01*
X26941Y60948D01*
X27012Y60912D01*
X27084Y60866D01*
X27155Y60820D01*
X27160Y60815D01*
X27170Y60810D01*
X27191Y60795D01*
X27216Y60769D01*
X27242Y60744D01*
X27277Y60708D01*
X27313Y60667D01*
X27354Y60626D01*
X27395Y60575D01*
X27436Y60514D01*
X27481Y60453D01*
X27522Y60387D01*
X27558Y60310D01*
X27599Y60234D01*
X27629Y60152D01*
X27660Y60060D01*
X27201Y59953D01*
Y59958D01*
X27196Y59968D01*
X27186Y59989D01*
X27176Y60014D01*
X27165Y60045D01*
X27150Y60086D01*
X27109Y60167D01*
X27058Y60259D01*
X26997Y60351D01*
X26921Y60438D01*
X26839Y60514D01*
X26829Y60524D01*
X26798Y60545D01*
X26747Y60570D01*
X26681Y60606D01*
X26594Y60637D01*
X26497Y60667D01*
X26380Y60688D01*
X26252Y60693D01*
X26212D01*
X26186Y60688D01*
X26150D01*
X26110Y60682D01*
X26013Y60667D01*
X25906Y60647D01*
X25793Y60611D01*
X25676Y60560D01*
X25569Y60494D01*
X25564D01*
X25559Y60483D01*
X25523Y60458D01*
X25477Y60417D01*
X25421Y60356D01*
X25355Y60280D01*
X25294Y60193D01*
X25238Y60086D01*
X25186Y59968D01*
Y59963D01*
X25181Y59953D01*
X25176Y59938D01*
X25171Y59912D01*
X25161Y59882D01*
X25151Y59846D01*
X25135Y59759D01*
X25115Y59657D01*
X25095Y59545D01*
X25084Y59423D01*
X25079Y59290D01*
Y59285D01*
Y59270D01*
Y59244D01*
Y59214D01*
X25084Y59178D01*
Y59132D01*
X25090Y59081D01*
X25095Y59025D01*
X25110Y58903D01*
X25135Y58770D01*
X25166Y58637D01*
X25207Y58505D01*
Y58500D01*
X25212Y58489D01*
X25222Y58474D01*
X25232Y58449D01*
X25263Y58387D01*
X25309Y58316D01*
X25365Y58234D01*
X25436Y58148D01*
X25518Y58071D01*
X25615Y58000D01*
X25620D01*
X25630Y57995D01*
X25646Y57985D01*
X25666Y57974D01*
X25691Y57964D01*
X25722Y57949D01*
X25793Y57918D01*
X25885Y57888D01*
X25987Y57862D01*
X26099Y57842D01*
X26217Y57837D01*
X26252D01*
X26283Y57842D01*
X26319D01*
X26354Y57847D01*
X26446Y57867D01*
X26553Y57893D01*
X26660Y57933D01*
X26773Y57990D01*
X26829Y58020D01*
X26880Y58061D01*
X26885Y58066D01*
X26890Y58071D01*
X26905Y58087D01*
X26926Y58102D01*
X26946Y58127D01*
X26972Y58158D01*
X27002Y58188D01*
X27028Y58229D01*
X27058Y58275D01*
X27094Y58326D01*
X27125Y58377D01*
X27155Y58438D01*
X27181Y58505D01*
X27206Y58576D01*
X27232Y58653D01*
X27252Y58734D01*
X27721Y58617D01*
Y58612D01*
X27716Y58591D01*
X27706Y58561D01*
X27691Y58520D01*
X27675Y58474D01*
X27655Y58418D01*
X27629Y58357D01*
X27599Y58290D01*
X27527Y58148D01*
X27436Y58005D01*
X27380Y57933D01*
X27323Y57862D01*
X27262Y57801D01*
X27191Y57740D01*
X27186Y57735D01*
X27176Y57724D01*
X27150Y57714D01*
X27125Y57694D01*
X27084Y57668D01*
X27043Y57643D01*
X26987Y57617D01*
X26931Y57592D01*
X26864Y57561D01*
X26793Y57536D01*
X26717Y57510D01*
X26635Y57485D01*
X26548Y57464D01*
X26456Y57454D01*
X26360Y57444D01*
X26258Y57439D01*
X26201D01*
X26161Y57444D01*
X26115D01*
X26059Y57449D01*
X25997Y57459D01*
X25926Y57469D01*
X25778Y57495D01*
X25625Y57536D01*
X25472Y57592D01*
X25401Y57627D01*
X25329Y57668D01*
X25324Y57673D01*
X25314Y57679D01*
X25294Y57694D01*
X25273Y57714D01*
X25243Y57735D01*
X25207Y57765D01*
X25166Y57801D01*
X25125Y57842D01*
X25084Y57888D01*
X25039Y57933D01*
X24947Y58051D01*
X24860Y58188D01*
X24784Y58341D01*
Y58347D01*
X24773Y58362D01*
X24768Y58387D01*
X24753Y58418D01*
X24743Y58459D01*
X24727Y58510D01*
X24707Y58566D01*
X24692Y58627D01*
X24677Y58693D01*
X24656Y58770D01*
X24631Y58928D01*
X24610Y59106D01*
X24600Y59290D01*
Y59295D01*
Y59316D01*
Y59346D01*
X24605Y59382D01*
Y59433D01*
X24610Y59484D01*
X24615Y59550D01*
X24625Y59617D01*
X24651Y59764D01*
X24687Y59928D01*
X24738Y60091D01*
X24809Y60249D01*
X24814Y60254D01*
X24819Y60269D01*
X24829Y60290D01*
X24850Y60315D01*
X24870Y60351D01*
X24896Y60392D01*
X24962Y60483D01*
X25049Y60585D01*
X25151Y60688D01*
X25268Y60790D01*
X25406Y60876D01*
X25411Y60881D01*
X25426Y60886D01*
X25447Y60897D01*
X25472Y60912D01*
X25513Y60927D01*
X25554Y60943D01*
X25605Y60963D01*
X25661Y60983D01*
X25722Y61004D01*
X25788Y61024D01*
X25931Y61055D01*
X26094Y61080D01*
X26263Y61090D01*
X26314D01*
X26349Y61085D01*
D02*
G37*
G36*
X31072Y57500D02*
X30587D01*
X28741Y60269D01*
Y57500D01*
X28292D01*
Y61029D01*
X28772D01*
X30623Y58255D01*
Y61029D01*
X31072D01*
Y57500D01*
D02*
G37*
G36*
X8834Y62142D02*
X8829Y62137D01*
X8819Y62126D01*
X8799Y62106D01*
X8778Y62075D01*
X8748Y62040D01*
X8707Y61999D01*
X8666Y61948D01*
X8620Y61887D01*
X8574Y61825D01*
X8518Y61754D01*
X8462Y61672D01*
X8406Y61591D01*
X8345Y61499D01*
X8284Y61402D01*
X8222Y61295D01*
X8161Y61188D01*
X8156Y61183D01*
X8146Y61162D01*
X8131Y61132D01*
X8105Y61086D01*
X8080Y61030D01*
X8049Y60969D01*
X8013Y60897D01*
X7978Y60816D01*
X7937Y60724D01*
X7891Y60632D01*
X7850Y60530D01*
X7809Y60423D01*
X7728Y60204D01*
X7651Y59969D01*
Y59964D01*
X7646Y59949D01*
X7641Y59923D01*
X7631Y59892D01*
X7621Y59852D01*
X7610Y59801D01*
X7595Y59745D01*
X7585Y59683D01*
X7570Y59612D01*
X7554Y59535D01*
X7529Y59372D01*
X7503Y59194D01*
X7488Y59000D01*
X7044D01*
Y59005D01*
Y59020D01*
Y59041D01*
X7049Y59071D01*
Y59112D01*
X7055Y59163D01*
X7060Y59219D01*
X7065Y59281D01*
X7075Y59352D01*
X7085Y59423D01*
X7100Y59510D01*
X7116Y59597D01*
X7131Y59689D01*
X7151Y59790D01*
X7202Y60000D01*
Y60005D01*
X7208Y60025D01*
X7218Y60056D01*
X7233Y60102D01*
X7248Y60153D01*
X7269Y60214D01*
X7289Y60285D01*
X7320Y60362D01*
X7350Y60448D01*
X7381Y60535D01*
X7457Y60729D01*
X7549Y60933D01*
X7651Y61137D01*
X7656Y61142D01*
X7666Y61162D01*
X7682Y61188D01*
X7702Y61229D01*
X7728Y61275D01*
X7763Y61331D01*
X7799Y61392D01*
X7840Y61458D01*
X7937Y61606D01*
X8039Y61759D01*
X8156Y61917D01*
X8279Y62065D01*
X6550D01*
Y62483D01*
X8834D01*
Y62142D01*
D02*
G37*
G36*
X16749Y62585D02*
X16795Y62580D01*
X16851Y62575D01*
X16907Y62570D01*
X16974Y62555D01*
X17111Y62524D01*
X17264Y62478D01*
X17341Y62448D01*
X17412Y62412D01*
X17484Y62366D01*
X17555Y62320D01*
X17560Y62315D01*
X17570Y62310D01*
X17591Y62295D01*
X17616Y62269D01*
X17642Y62244D01*
X17677Y62208D01*
X17713Y62167D01*
X17754Y62126D01*
X17795Y62075D01*
X17836Y62014D01*
X17882Y61953D01*
X17922Y61887D01*
X17958Y61810D01*
X17999Y61734D01*
X18029Y61652D01*
X18060Y61560D01*
X17601Y61453D01*
Y61458D01*
X17596Y61468D01*
X17586Y61489D01*
X17575Y61514D01*
X17565Y61545D01*
X17550Y61586D01*
X17509Y61667D01*
X17458Y61759D01*
X17397Y61851D01*
X17321Y61938D01*
X17239Y62014D01*
X17229Y62024D01*
X17198Y62045D01*
X17147Y62070D01*
X17081Y62106D01*
X16994Y62137D01*
X16897Y62167D01*
X16780Y62187D01*
X16652Y62193D01*
X16612D01*
X16586Y62187D01*
X16550D01*
X16510Y62182D01*
X16413Y62167D01*
X16306Y62147D01*
X16193Y62111D01*
X16076Y62060D01*
X15969Y61994D01*
X15964D01*
X15959Y61984D01*
X15923Y61958D01*
X15877Y61917D01*
X15821Y61856D01*
X15755Y61779D01*
X15694Y61693D01*
X15638Y61586D01*
X15586Y61468D01*
Y61463D01*
X15581Y61453D01*
X15576Y61438D01*
X15571Y61412D01*
X15561Y61382D01*
X15551Y61346D01*
X15536Y61259D01*
X15515Y61157D01*
X15495Y61045D01*
X15484Y60923D01*
X15479Y60790D01*
Y60785D01*
Y60770D01*
Y60744D01*
Y60714D01*
X15484Y60678D01*
Y60632D01*
X15490Y60581D01*
X15495Y60525D01*
X15510Y60403D01*
X15536Y60270D01*
X15566Y60137D01*
X15607Y60005D01*
Y60000D01*
X15612Y59989D01*
X15622Y59974D01*
X15632Y59949D01*
X15663Y59887D01*
X15709Y59816D01*
X15765Y59734D01*
X15836Y59648D01*
X15918Y59571D01*
X16015Y59500D01*
X16020D01*
X16030Y59495D01*
X16046Y59484D01*
X16066Y59474D01*
X16091Y59464D01*
X16122Y59449D01*
X16193Y59418D01*
X16285Y59388D01*
X16387Y59362D01*
X16499Y59342D01*
X16617Y59337D01*
X16652D01*
X16683Y59342D01*
X16719D01*
X16754Y59347D01*
X16846Y59367D01*
X16953Y59393D01*
X17060Y59434D01*
X17173Y59490D01*
X17229Y59520D01*
X17280Y59561D01*
X17285Y59566D01*
X17290Y59571D01*
X17305Y59587D01*
X17326Y59602D01*
X17346Y59627D01*
X17371Y59658D01*
X17402Y59689D01*
X17428Y59729D01*
X17458Y59775D01*
X17494Y59826D01*
X17525Y59877D01*
X17555Y59938D01*
X17581Y60005D01*
X17606Y60076D01*
X17632Y60153D01*
X17652Y60234D01*
X18121Y60117D01*
Y60112D01*
X18116Y60091D01*
X18106Y60061D01*
X18091Y60020D01*
X18075Y59974D01*
X18055Y59918D01*
X18029Y59857D01*
X17999Y59790D01*
X17927Y59648D01*
X17836Y59505D01*
X17779Y59434D01*
X17723Y59362D01*
X17662Y59301D01*
X17591Y59240D01*
X17586Y59235D01*
X17575Y59224D01*
X17550Y59214D01*
X17525Y59194D01*
X17484Y59168D01*
X17443Y59143D01*
X17387Y59117D01*
X17331Y59092D01*
X17264Y59061D01*
X17193Y59036D01*
X17117Y59010D01*
X17035Y58985D01*
X16948Y58964D01*
X16856Y58954D01*
X16759Y58944D01*
X16657Y58939D01*
X16601D01*
X16561Y58944D01*
X16515D01*
X16459Y58949D01*
X16397Y58959D01*
X16326Y58969D01*
X16178Y58995D01*
X16025Y59036D01*
X15872Y59092D01*
X15801Y59127D01*
X15729Y59168D01*
X15724Y59173D01*
X15714Y59179D01*
X15694Y59194D01*
X15673Y59214D01*
X15643Y59235D01*
X15607Y59265D01*
X15566Y59301D01*
X15525Y59342D01*
X15484Y59388D01*
X15439Y59434D01*
X15347Y59551D01*
X15260Y59689D01*
X15184Y59842D01*
Y59847D01*
X15173Y59862D01*
X15168Y59887D01*
X15153Y59918D01*
X15143Y59959D01*
X15127Y60010D01*
X15107Y60066D01*
X15092Y60127D01*
X15077Y60193D01*
X15056Y60270D01*
X15031Y60428D01*
X15010Y60606D01*
X15000Y60790D01*
Y60795D01*
Y60816D01*
Y60846D01*
X15005Y60882D01*
Y60933D01*
X15010Y60984D01*
X15015Y61050D01*
X15025Y61116D01*
X15051Y61264D01*
X15087Y61428D01*
X15138Y61591D01*
X15209Y61749D01*
X15214Y61754D01*
X15219Y61769D01*
X15229Y61790D01*
X15250Y61815D01*
X15270Y61851D01*
X15296Y61892D01*
X15362Y61984D01*
X15449Y62085D01*
X15551Y62187D01*
X15668Y62290D01*
X15806Y62376D01*
X15811Y62381D01*
X15826Y62386D01*
X15847Y62397D01*
X15872Y62412D01*
X15913Y62427D01*
X15954Y62442D01*
X16005Y62463D01*
X16061Y62483D01*
X16122Y62504D01*
X16188Y62524D01*
X16331Y62555D01*
X16494Y62580D01*
X16663Y62590D01*
X16714D01*
X16749Y62585D01*
D02*
G37*
G36*
X4749D02*
X4795Y62580D01*
X4851Y62575D01*
X4907Y62570D01*
X4974Y62555D01*
X5111Y62524D01*
X5264Y62478D01*
X5341Y62448D01*
X5412Y62412D01*
X5484Y62366D01*
X5555Y62320D01*
X5560Y62315D01*
X5570Y62310D01*
X5591Y62295D01*
X5616Y62269D01*
X5642Y62244D01*
X5677Y62208D01*
X5713Y62167D01*
X5754Y62126D01*
X5795Y62075D01*
X5836Y62014D01*
X5881Y61953D01*
X5922Y61887D01*
X5958Y61810D01*
X5999Y61734D01*
X6029Y61652D01*
X6060Y61560D01*
X5601Y61453D01*
Y61458D01*
X5596Y61468D01*
X5586Y61489D01*
X5576Y61514D01*
X5565Y61545D01*
X5550Y61586D01*
X5509Y61667D01*
X5458Y61759D01*
X5397Y61851D01*
X5320Y61938D01*
X5239Y62014D01*
X5229Y62024D01*
X5198Y62045D01*
X5147Y62070D01*
X5081Y62106D01*
X4994Y62137D01*
X4897Y62167D01*
X4780Y62187D01*
X4652Y62193D01*
X4612D01*
X4586Y62187D01*
X4550D01*
X4510Y62182D01*
X4413Y62167D01*
X4306Y62147D01*
X4193Y62111D01*
X4076Y62060D01*
X3969Y61994D01*
X3964D01*
X3959Y61984D01*
X3923Y61958D01*
X3877Y61917D01*
X3821Y61856D01*
X3755Y61779D01*
X3694Y61693D01*
X3638Y61586D01*
X3587Y61468D01*
Y61463D01*
X3581Y61453D01*
X3576Y61438D01*
X3571Y61412D01*
X3561Y61382D01*
X3551Y61346D01*
X3536Y61259D01*
X3515Y61157D01*
X3495Y61045D01*
X3484Y60923D01*
X3479Y60790D01*
Y60785D01*
Y60770D01*
Y60744D01*
Y60714D01*
X3484Y60678D01*
Y60632D01*
X3490Y60581D01*
X3495Y60525D01*
X3510Y60403D01*
X3536Y60270D01*
X3566Y60137D01*
X3607Y60005D01*
Y60000D01*
X3612Y59989D01*
X3622Y59974D01*
X3632Y59949D01*
X3663Y59887D01*
X3709Y59816D01*
X3765Y59734D01*
X3836Y59648D01*
X3918Y59571D01*
X4015Y59500D01*
X4020D01*
X4030Y59495D01*
X4045Y59484D01*
X4066Y59474D01*
X4091Y59464D01*
X4122Y59449D01*
X4193Y59418D01*
X4285Y59388D01*
X4387Y59362D01*
X4499Y59342D01*
X4617Y59337D01*
X4652D01*
X4683Y59342D01*
X4719D01*
X4754Y59347D01*
X4846Y59367D01*
X4953Y59393D01*
X5060Y59434D01*
X5173Y59490D01*
X5229Y59520D01*
X5280Y59561D01*
X5285Y59566D01*
X5290Y59571D01*
X5305Y59587D01*
X5326Y59602D01*
X5346Y59627D01*
X5372Y59658D01*
X5402Y59689D01*
X5428Y59729D01*
X5458Y59775D01*
X5494Y59826D01*
X5525Y59877D01*
X5555Y59938D01*
X5581Y60005D01*
X5606Y60076D01*
X5632Y60153D01*
X5652Y60234D01*
X6121Y60117D01*
Y60112D01*
X6116Y60091D01*
X6106Y60061D01*
X6091Y60020D01*
X6075Y59974D01*
X6055Y59918D01*
X6029Y59857D01*
X5999Y59790D01*
X5927Y59648D01*
X5836Y59505D01*
X5779Y59434D01*
X5723Y59362D01*
X5662Y59301D01*
X5591Y59240D01*
X5586Y59235D01*
X5576Y59224D01*
X5550Y59214D01*
X5525Y59194D01*
X5484Y59168D01*
X5443Y59143D01*
X5387Y59117D01*
X5331Y59092D01*
X5264Y59061D01*
X5193Y59036D01*
X5116Y59010D01*
X5035Y58985D01*
X4948Y58964D01*
X4856Y58954D01*
X4760Y58944D01*
X4657Y58939D01*
X4601D01*
X4561Y58944D01*
X4515D01*
X4459Y58949D01*
X4397Y58959D01*
X4326Y58969D01*
X4178Y58995D01*
X4025Y59036D01*
X3872Y59092D01*
X3801Y59127D01*
X3729Y59168D01*
X3724Y59173D01*
X3714Y59179D01*
X3694Y59194D01*
X3673Y59214D01*
X3643Y59235D01*
X3607Y59265D01*
X3566Y59301D01*
X3525Y59342D01*
X3484Y59388D01*
X3439Y59434D01*
X3347Y59551D01*
X3260Y59689D01*
X3184Y59842D01*
Y59847D01*
X3173Y59862D01*
X3168Y59887D01*
X3153Y59918D01*
X3143Y59959D01*
X3128Y60010D01*
X3107Y60066D01*
X3092Y60127D01*
X3077Y60193D01*
X3056Y60270D01*
X3031Y60428D01*
X3010Y60606D01*
X3000Y60790D01*
Y60795D01*
Y60816D01*
Y60846D01*
X3005Y60882D01*
Y60933D01*
X3010Y60984D01*
X3015Y61050D01*
X3025Y61116D01*
X3051Y61264D01*
X3087Y61428D01*
X3138Y61591D01*
X3209Y61749D01*
X3214Y61754D01*
X3219Y61769D01*
X3229Y61790D01*
X3250Y61815D01*
X3270Y61851D01*
X3296Y61892D01*
X3362Y61984D01*
X3449Y62085D01*
X3551Y62187D01*
X3668Y62290D01*
X3806Y62376D01*
X3811Y62381D01*
X3826Y62386D01*
X3847Y62397D01*
X3872Y62412D01*
X3913Y62427D01*
X3954Y62442D01*
X4005Y62463D01*
X4061Y62483D01*
X4122Y62504D01*
X4188Y62524D01*
X4331Y62555D01*
X4494Y62580D01*
X4663Y62590D01*
X4714D01*
X4749Y62585D01*
D02*
G37*
G36*
X12972Y12500D02*
X12487D01*
X10641Y15269D01*
Y12500D01*
X10192D01*
Y16029D01*
X10672D01*
X12523Y13255D01*
Y16029D01*
X12972D01*
Y12500D01*
D02*
G37*
G36*
X98749Y88085D02*
X98795Y88080D01*
X98851Y88075D01*
X98907Y88070D01*
X98974Y88055D01*
X99111Y88024D01*
X99264Y87978D01*
X99341Y87948D01*
X99412Y87912D01*
X99484Y87866D01*
X99555Y87820D01*
X99560Y87815D01*
X99570Y87810D01*
X99591Y87795D01*
X99616Y87769D01*
X99642Y87744D01*
X99677Y87708D01*
X99713Y87667D01*
X99754Y87626D01*
X99795Y87575D01*
X99836Y87514D01*
X99882Y87453D01*
X99922Y87387D01*
X99958Y87310D01*
X99999Y87234D01*
X100029Y87152D01*
X100060Y87060D01*
X99601Y86953D01*
Y86958D01*
X99596Y86968D01*
X99586Y86989D01*
X99576Y87014D01*
X99565Y87045D01*
X99550Y87086D01*
X99509Y87167D01*
X99458Y87259D01*
X99397Y87351D01*
X99321Y87438D01*
X99239Y87514D01*
X99229Y87524D01*
X99198Y87545D01*
X99147Y87570D01*
X99081Y87606D01*
X98994Y87637D01*
X98897Y87667D01*
X98780Y87687D01*
X98652Y87693D01*
X98612D01*
X98586Y87687D01*
X98550D01*
X98510Y87682D01*
X98413Y87667D01*
X98306Y87647D01*
X98193Y87611D01*
X98076Y87560D01*
X97969Y87494D01*
X97964D01*
X97959Y87484D01*
X97923Y87458D01*
X97877Y87417D01*
X97821Y87356D01*
X97755Y87279D01*
X97694Y87193D01*
X97637Y87086D01*
X97587Y86968D01*
Y86963D01*
X97581Y86953D01*
X97576Y86938D01*
X97571Y86912D01*
X97561Y86882D01*
X97551Y86846D01*
X97536Y86759D01*
X97515Y86657D01*
X97495Y86545D01*
X97484Y86423D01*
X97479Y86290D01*
Y86285D01*
Y86270D01*
Y86244D01*
Y86214D01*
X97484Y86178D01*
Y86132D01*
X97490Y86081D01*
X97495Y86025D01*
X97510Y85903D01*
X97536Y85770D01*
X97566Y85637D01*
X97607Y85505D01*
Y85500D01*
X97612Y85489D01*
X97622Y85474D01*
X97632Y85449D01*
X97663Y85387D01*
X97709Y85316D01*
X97765Y85234D01*
X97836Y85148D01*
X97918Y85071D01*
X98015Y85000D01*
X98020D01*
X98030Y84995D01*
X98045Y84984D01*
X98066Y84974D01*
X98091Y84964D01*
X98122Y84949D01*
X98193Y84918D01*
X98285Y84888D01*
X98387Y84862D01*
X98499Y84842D01*
X98617Y84837D01*
X98652D01*
X98683Y84842D01*
X98719D01*
X98754Y84847D01*
X98846Y84867D01*
X98953Y84893D01*
X99060Y84934D01*
X99173Y84990D01*
X99229Y85020D01*
X99280Y85061D01*
X99285Y85066D01*
X99290Y85071D01*
X99305Y85087D01*
X99326Y85102D01*
X99346Y85127D01*
X99371Y85158D01*
X99402Y85189D01*
X99428Y85229D01*
X99458Y85275D01*
X99494Y85326D01*
X99524Y85377D01*
X99555Y85438D01*
X99581Y85505D01*
X99606Y85576D01*
X99632Y85653D01*
X99652Y85734D01*
X100121Y85617D01*
Y85612D01*
X100116Y85591D01*
X100106Y85561D01*
X100091Y85520D01*
X100075Y85474D01*
X100055Y85418D01*
X100029Y85357D01*
X99999Y85290D01*
X99927Y85148D01*
X99836Y85005D01*
X99779Y84934D01*
X99723Y84862D01*
X99662Y84801D01*
X99591Y84740D01*
X99586Y84735D01*
X99576Y84724D01*
X99550Y84714D01*
X99524Y84694D01*
X99484Y84668D01*
X99443Y84643D01*
X99387Y84617D01*
X99331Y84592D01*
X99264Y84561D01*
X99193Y84536D01*
X99116Y84510D01*
X99035Y84485D01*
X98948Y84464D01*
X98856Y84454D01*
X98760Y84444D01*
X98658Y84439D01*
X98601D01*
X98561Y84444D01*
X98515D01*
X98459Y84449D01*
X98397Y84459D01*
X98326Y84469D01*
X98178Y84495D01*
X98025Y84536D01*
X97872Y84592D01*
X97801Y84627D01*
X97729Y84668D01*
X97724Y84673D01*
X97714Y84679D01*
X97694Y84694D01*
X97673Y84714D01*
X97643Y84735D01*
X97607Y84765D01*
X97566Y84801D01*
X97525Y84842D01*
X97484Y84888D01*
X97439Y84934D01*
X97347Y85051D01*
X97260Y85189D01*
X97184Y85342D01*
Y85347D01*
X97173Y85362D01*
X97168Y85387D01*
X97153Y85418D01*
X97143Y85459D01*
X97127Y85510D01*
X97107Y85566D01*
X97092Y85627D01*
X97076Y85693D01*
X97056Y85770D01*
X97031Y85928D01*
X97010Y86106D01*
X97000Y86290D01*
Y86295D01*
Y86316D01*
Y86346D01*
X97005Y86382D01*
Y86433D01*
X97010Y86484D01*
X97015Y86550D01*
X97026Y86616D01*
X97051Y86764D01*
X97087Y86928D01*
X97138Y87091D01*
X97209Y87249D01*
X97214Y87254D01*
X97219Y87269D01*
X97229Y87290D01*
X97250Y87315D01*
X97270Y87351D01*
X97296Y87392D01*
X97362Y87484D01*
X97449Y87586D01*
X97551Y87687D01*
X97668Y87789D01*
X97806Y87876D01*
X97811Y87881D01*
X97826Y87886D01*
X97847Y87897D01*
X97872Y87912D01*
X97913Y87927D01*
X97954Y87942D01*
X98005Y87963D01*
X98061Y87983D01*
X98122Y88004D01*
X98188Y88024D01*
X98331Y88055D01*
X98494Y88080D01*
X98663Y88090D01*
X98714D01*
X98749Y88085D01*
D02*
G37*
G36*
X14793Y16039D02*
X14859Y16029D01*
X14941Y16014D01*
X15032Y15988D01*
X15124Y15958D01*
X15216Y15917D01*
X15221D01*
X15226Y15912D01*
X15257Y15897D01*
X15303Y15866D01*
X15354Y15830D01*
X15415Y15779D01*
X15476Y15723D01*
X15537Y15657D01*
X15588Y15580D01*
X15593Y15570D01*
X15609Y15545D01*
X15629Y15499D01*
X15654Y15443D01*
X15680Y15376D01*
X15700Y15300D01*
X15716Y15213D01*
X15721Y15126D01*
Y15116D01*
Y15086D01*
X15716Y15045D01*
X15706Y14989D01*
X15690Y14922D01*
X15665Y14851D01*
X15634Y14780D01*
X15593Y14708D01*
X15588Y14698D01*
X15573Y14678D01*
X15542Y14642D01*
X15502Y14601D01*
X15450Y14555D01*
X15389Y14504D01*
X15318Y14458D01*
X15231Y14412D01*
X15236D01*
X15247Y14407D01*
X15262Y14402D01*
X15282Y14397D01*
X15338Y14377D01*
X15410Y14346D01*
X15491Y14305D01*
X15573Y14254D01*
X15649Y14188D01*
X15721Y14112D01*
X15726Y14101D01*
X15746Y14071D01*
X15777Y14020D01*
X15808Y13953D01*
X15838Y13872D01*
X15869Y13775D01*
X15889Y13663D01*
X15894Y13540D01*
Y13535D01*
Y13520D01*
Y13495D01*
X15889Y13464D01*
X15884Y13423D01*
X15874Y13377D01*
X15864Y13326D01*
X15853Y13270D01*
X15813Y13148D01*
X15782Y13081D01*
X15751Y13020D01*
X15711Y12954D01*
X15665Y12888D01*
X15614Y12821D01*
X15552Y12760D01*
X15547Y12755D01*
X15537Y12745D01*
X15517Y12730D01*
X15491Y12709D01*
X15461Y12684D01*
X15420Y12658D01*
X15374Y12628D01*
X15318Y12602D01*
X15262Y12571D01*
X15195Y12541D01*
X15129Y12515D01*
X15053Y12490D01*
X14971Y12469D01*
X14884Y12454D01*
X14798Y12444D01*
X14701Y12439D01*
X14655D01*
X14624Y12444D01*
X14583Y12449D01*
X14538Y12454D01*
X14487Y12464D01*
X14431Y12474D01*
X14308Y12505D01*
X14181Y12556D01*
X14114Y12587D01*
X14053Y12622D01*
X13992Y12668D01*
X13931Y12714D01*
X13926Y12719D01*
X13915Y12730D01*
X13900Y12745D01*
X13885Y12765D01*
X13859Y12791D01*
X13834Y12826D01*
X13803Y12862D01*
X13773Y12908D01*
X13742Y12959D01*
X13711Y13010D01*
X13655Y13132D01*
X13609Y13275D01*
X13594Y13352D01*
X13584Y13433D01*
X14017Y13489D01*
Y13484D01*
X14022Y13474D01*
X14028Y13454D01*
X14033Y13428D01*
X14038Y13398D01*
X14048Y13362D01*
X14074Y13285D01*
X14109Y13194D01*
X14155Y13107D01*
X14206Y13025D01*
X14267Y12954D01*
X14277Y12949D01*
X14298Y12928D01*
X14339Y12903D01*
X14390Y12877D01*
X14451Y12847D01*
X14527Y12821D01*
X14614Y12801D01*
X14706Y12796D01*
X14737D01*
X14757Y12801D01*
X14813Y12806D01*
X14884Y12821D01*
X14966Y12847D01*
X15053Y12882D01*
X15139Y12934D01*
X15221Y13005D01*
X15231Y13015D01*
X15257Y13046D01*
X15287Y13092D01*
X15328Y13153D01*
X15369Y13229D01*
X15400Y13316D01*
X15425Y13418D01*
X15435Y13530D01*
Y13535D01*
Y13545D01*
Y13561D01*
X15430Y13581D01*
X15425Y13637D01*
X15410Y13704D01*
X15389Y13785D01*
X15354Y13867D01*
X15303Y13948D01*
X15236Y14025D01*
X15226Y14035D01*
X15201Y14055D01*
X15160Y14086D01*
X15104Y14122D01*
X15032Y14157D01*
X14946Y14188D01*
X14849Y14209D01*
X14742Y14219D01*
X14696D01*
X14660Y14214D01*
X14614Y14209D01*
X14563Y14198D01*
X14502Y14188D01*
X14436Y14173D01*
X14487Y14555D01*
X14512D01*
X14533Y14550D01*
X14599D01*
X14655Y14560D01*
X14721Y14571D01*
X14798Y14586D01*
X14884Y14611D01*
X14966Y14647D01*
X15053Y14693D01*
X15058D01*
X15063Y14698D01*
X15088Y14718D01*
X15124Y14754D01*
X15165Y14800D01*
X15206Y14866D01*
X15241Y14943D01*
X15267Y15030D01*
X15277Y15081D01*
Y15137D01*
Y15142D01*
Y15147D01*
Y15178D01*
X15267Y15218D01*
X15257Y15274D01*
X15236Y15336D01*
X15211Y15402D01*
X15170Y15468D01*
X15114Y15529D01*
X15109Y15534D01*
X15083Y15555D01*
X15048Y15580D01*
X15002Y15611D01*
X14941Y15637D01*
X14869Y15662D01*
X14787Y15682D01*
X14696Y15687D01*
X14655D01*
X14609Y15677D01*
X14548Y15667D01*
X14481Y15647D01*
X14415Y15621D01*
X14344Y15580D01*
X14277Y15529D01*
X14272Y15524D01*
X14252Y15499D01*
X14221Y15463D01*
X14186Y15412D01*
X14150Y15346D01*
X14114Y15264D01*
X14084Y15167D01*
X14063Y15055D01*
X13630Y15132D01*
Y15137D01*
X13635Y15152D01*
X13640Y15172D01*
X13645Y15203D01*
X13655Y15239D01*
X13671Y15280D01*
X13701Y15376D01*
X13752Y15489D01*
X13813Y15601D01*
X13890Y15708D01*
X13987Y15805D01*
X13992Y15810D01*
X14002Y15815D01*
X14017Y15825D01*
X14038Y15841D01*
X14063Y15861D01*
X14099Y15881D01*
X14135Y15902D01*
X14181Y15927D01*
X14283Y15968D01*
X14400Y16009D01*
X14538Y16034D01*
X14609Y16045D01*
X14737D01*
X14793Y16039D01*
D02*
G37*
G36*
X32933Y61039D02*
X32974Y61034D01*
X33025Y61029D01*
X33081Y61019D01*
X33137Y61009D01*
X33270Y60973D01*
X33403Y60922D01*
X33469Y60891D01*
X33535Y60856D01*
X33596Y60810D01*
X33652Y60759D01*
X33658Y60754D01*
X33668Y60749D01*
X33678Y60728D01*
X33698Y60708D01*
X33724Y60682D01*
X33749Y60647D01*
X33775Y60611D01*
X33806Y60565D01*
X33856Y60468D01*
X33907Y60346D01*
X33928Y60285D01*
X33938Y60213D01*
X33948Y60142D01*
X33953Y60065D01*
Y60055D01*
Y60030D01*
X33948Y59989D01*
X33943Y59933D01*
X33933Y59872D01*
X33913Y59800D01*
X33892Y59724D01*
X33862Y59647D01*
X33856Y59637D01*
X33846Y59611D01*
X33826Y59571D01*
X33795Y59514D01*
X33755Y59453D01*
X33704Y59377D01*
X33642Y59300D01*
X33571Y59214D01*
X33561Y59203D01*
X33535Y59173D01*
X33510Y59147D01*
X33484Y59122D01*
X33454Y59091D01*
X33413Y59050D01*
X33372Y59010D01*
X33321Y58964D01*
X33270Y58913D01*
X33209Y58857D01*
X33143Y58801D01*
X33071Y58734D01*
X32989Y58668D01*
X32908Y58596D01*
X32903Y58591D01*
X32893Y58581D01*
X32872Y58566D01*
X32847Y58546D01*
X32816Y58515D01*
X32780Y58484D01*
X32699Y58418D01*
X32612Y58341D01*
X32531Y58265D01*
X32459Y58199D01*
X32429Y58173D01*
X32403Y58148D01*
X32398Y58143D01*
X32383Y58127D01*
X32362Y58107D01*
X32337Y58076D01*
X32311Y58041D01*
X32281Y58005D01*
X32219Y57918D01*
X33959D01*
Y57500D01*
X31618D01*
Y57505D01*
Y57525D01*
Y57556D01*
X31623Y57597D01*
X31628Y57643D01*
X31638Y57694D01*
X31648Y57745D01*
X31669Y57801D01*
Y57806D01*
X31674Y57811D01*
X31684Y57842D01*
X31704Y57888D01*
X31735Y57949D01*
X31776Y58020D01*
X31827Y58102D01*
X31883Y58183D01*
X31954Y58270D01*
Y58275D01*
X31964Y58280D01*
X31990Y58311D01*
X32036Y58357D01*
X32102Y58423D01*
X32179Y58500D01*
X32276Y58591D01*
X32393Y58693D01*
X32520Y58801D01*
X32525Y58806D01*
X32546Y58821D01*
X32576Y58846D01*
X32612Y58877D01*
X32658Y58918D01*
X32714Y58964D01*
X32770Y59015D01*
X32836Y59071D01*
X32964Y59193D01*
X33092Y59316D01*
X33153Y59377D01*
X33209Y59438D01*
X33260Y59494D01*
X33301Y59550D01*
Y59555D01*
X33311Y59560D01*
X33321Y59576D01*
X33331Y59596D01*
X33367Y59652D01*
X33408Y59719D01*
X33443Y59800D01*
X33479Y59887D01*
X33500Y59984D01*
X33510Y60075D01*
Y60081D01*
Y60086D01*
X33505Y60116D01*
X33500Y60167D01*
X33484Y60223D01*
X33464Y60295D01*
X33428Y60366D01*
X33382Y60438D01*
X33321Y60509D01*
X33311Y60519D01*
X33285Y60540D01*
X33250Y60565D01*
X33193Y60601D01*
X33122Y60631D01*
X33040Y60662D01*
X32944Y60682D01*
X32836Y60688D01*
X32806D01*
X32785Y60682D01*
X32724Y60677D01*
X32653Y60662D01*
X32576Y60642D01*
X32490Y60606D01*
X32408Y60560D01*
X32332Y60499D01*
X32321Y60489D01*
X32301Y60463D01*
X32270Y60422D01*
X32240Y60361D01*
X32204Y60290D01*
X32173Y60198D01*
X32153Y60096D01*
X32143Y59979D01*
X31699Y60024D01*
Y60030D01*
X31704Y60045D01*
Y60070D01*
X31709Y60106D01*
X31720Y60147D01*
X31730Y60193D01*
X31745Y60249D01*
X31760Y60305D01*
X31801Y60427D01*
X31862Y60550D01*
X31898Y60611D01*
X31944Y60672D01*
X31990Y60728D01*
X32041Y60779D01*
X32046Y60784D01*
X32056Y60790D01*
X32072Y60805D01*
X32097Y60820D01*
X32128Y60840D01*
X32163Y60861D01*
X32204Y60886D01*
X32255Y60912D01*
X32311Y60937D01*
X32372Y60963D01*
X32439Y60983D01*
X32510Y61004D01*
X32587Y61019D01*
X32668Y61034D01*
X32755Y61039D01*
X32847Y61045D01*
X32898D01*
X32933Y61039D01*
D02*
G37*
G36*
X8249Y16085D02*
X8295Y16080D01*
X8351Y16075D01*
X8407Y16070D01*
X8474Y16055D01*
X8611Y16024D01*
X8764Y15978D01*
X8841Y15948D01*
X8912Y15912D01*
X8984Y15866D01*
X9055Y15820D01*
X9060Y15815D01*
X9070Y15810D01*
X9091Y15795D01*
X9116Y15769D01*
X9142Y15744D01*
X9178Y15708D01*
X9213Y15667D01*
X9254Y15626D01*
X9295Y15575D01*
X9336Y15514D01*
X9381Y15453D01*
X9422Y15387D01*
X9458Y15310D01*
X9499Y15234D01*
X9529Y15152D01*
X9560Y15060D01*
X9101Y14953D01*
Y14958D01*
X9096Y14968D01*
X9086Y14989D01*
X9076Y15014D01*
X9065Y15045D01*
X9050Y15086D01*
X9009Y15167D01*
X8958Y15259D01*
X8897Y15351D01*
X8821Y15438D01*
X8739Y15514D01*
X8729Y15524D01*
X8698Y15545D01*
X8647Y15570D01*
X8581Y15606D01*
X8494Y15637D01*
X8397Y15667D01*
X8280Y15687D01*
X8152Y15693D01*
X8112D01*
X8086Y15687D01*
X8050D01*
X8010Y15682D01*
X7913Y15667D01*
X7806Y15647D01*
X7693Y15611D01*
X7576Y15560D01*
X7469Y15494D01*
X7464D01*
X7459Y15484D01*
X7423Y15458D01*
X7377Y15417D01*
X7321Y15356D01*
X7255Y15280D01*
X7194Y15193D01*
X7137Y15086D01*
X7086Y14968D01*
Y14963D01*
X7081Y14953D01*
X7076Y14938D01*
X7071Y14912D01*
X7061Y14882D01*
X7051Y14846D01*
X7035Y14759D01*
X7015Y14657D01*
X6995Y14545D01*
X6984Y14423D01*
X6979Y14290D01*
Y14285D01*
Y14270D01*
Y14244D01*
Y14214D01*
X6984Y14178D01*
Y14132D01*
X6990Y14081D01*
X6995Y14025D01*
X7010Y13903D01*
X7035Y13770D01*
X7066Y13637D01*
X7107Y13505D01*
Y13500D01*
X7112Y13489D01*
X7122Y13474D01*
X7132Y13449D01*
X7163Y13387D01*
X7209Y13316D01*
X7265Y13234D01*
X7336Y13148D01*
X7418Y13071D01*
X7515Y13000D01*
X7520D01*
X7530Y12995D01*
X7546Y12984D01*
X7566Y12974D01*
X7591Y12964D01*
X7622Y12949D01*
X7693Y12918D01*
X7785Y12888D01*
X7887Y12862D01*
X7999Y12842D01*
X8117Y12837D01*
X8152D01*
X8183Y12842D01*
X8219D01*
X8254Y12847D01*
X8346Y12867D01*
X8453Y12893D01*
X8560Y12934D01*
X8673Y12990D01*
X8729Y13020D01*
X8780Y13061D01*
X8785Y13066D01*
X8790Y13071D01*
X8805Y13086D01*
X8826Y13102D01*
X8846Y13127D01*
X8872Y13158D01*
X8902Y13189D01*
X8928Y13229D01*
X8958Y13275D01*
X8994Y13326D01*
X9025Y13377D01*
X9055Y13438D01*
X9081Y13505D01*
X9106Y13576D01*
X9132Y13653D01*
X9152Y13734D01*
X9621Y13617D01*
Y13612D01*
X9616Y13591D01*
X9606Y13561D01*
X9591Y13520D01*
X9575Y13474D01*
X9555Y13418D01*
X9529Y13357D01*
X9499Y13291D01*
X9427Y13148D01*
X9336Y13005D01*
X9279Y12934D01*
X9223Y12862D01*
X9162Y12801D01*
X9091Y12740D01*
X9086Y12735D01*
X9076Y12724D01*
X9050Y12714D01*
X9025Y12694D01*
X8984Y12668D01*
X8943Y12643D01*
X8887Y12617D01*
X8831Y12592D01*
X8764Y12561D01*
X8693Y12536D01*
X8617Y12510D01*
X8535Y12485D01*
X8448Y12464D01*
X8356Y12454D01*
X8259Y12444D01*
X8157Y12439D01*
X8101D01*
X8061Y12444D01*
X8015D01*
X7959Y12449D01*
X7897Y12459D01*
X7826Y12469D01*
X7678Y12495D01*
X7525Y12536D01*
X7372Y12592D01*
X7301Y12628D01*
X7229Y12668D01*
X7224Y12673D01*
X7214Y12678D01*
X7194Y12694D01*
X7173Y12714D01*
X7143Y12735D01*
X7107Y12765D01*
X7066Y12801D01*
X7025Y12842D01*
X6984Y12888D01*
X6939Y12934D01*
X6847Y13051D01*
X6760Y13189D01*
X6684Y13341D01*
Y13347D01*
X6673Y13362D01*
X6668Y13387D01*
X6653Y13418D01*
X6643Y13459D01*
X6628Y13510D01*
X6607Y13566D01*
X6592Y13627D01*
X6577Y13693D01*
X6556Y13770D01*
X6531Y13928D01*
X6510Y14107D01*
X6500Y14290D01*
Y14295D01*
Y14316D01*
Y14346D01*
X6505Y14382D01*
Y14433D01*
X6510Y14484D01*
X6515Y14550D01*
X6526Y14616D01*
X6551Y14764D01*
X6587Y14928D01*
X6638Y15091D01*
X6709Y15249D01*
X6714Y15254D01*
X6719Y15269D01*
X6729Y15290D01*
X6750Y15315D01*
X6770Y15351D01*
X6796Y15392D01*
X6862Y15484D01*
X6949Y15586D01*
X7051Y15687D01*
X7168Y15789D01*
X7306Y15876D01*
X7311Y15881D01*
X7326Y15886D01*
X7347Y15897D01*
X7372Y15912D01*
X7413Y15927D01*
X7454Y15943D01*
X7505Y15963D01*
X7561Y15983D01*
X7622Y16004D01*
X7688Y16024D01*
X7831Y16055D01*
X7994Y16080D01*
X8163Y16090D01*
X8214D01*
X8249Y16085D01*
D02*
G37*
G36*
X67192Y24570D02*
X65779D01*
X65590Y23617D01*
X65595Y23622D01*
X65605Y23627D01*
X65621Y23637D01*
X65646Y23652D01*
X65677Y23667D01*
X65713Y23688D01*
X65794Y23729D01*
X65896Y23769D01*
X66008Y23805D01*
X66131Y23831D01*
X66192Y23841D01*
X66304D01*
X66335Y23836D01*
X66376Y23831D01*
X66422Y23826D01*
X66473Y23815D01*
X66529Y23800D01*
X66651Y23764D01*
X66717Y23739D01*
X66784Y23703D01*
X66850Y23667D01*
X66916Y23627D01*
X66977Y23576D01*
X67039Y23520D01*
X67044Y23515D01*
X67054Y23504D01*
X67069Y23489D01*
X67090Y23463D01*
X67115Y23428D01*
X67141Y23392D01*
X67171Y23346D01*
X67202Y23295D01*
X67227Y23239D01*
X67258Y23178D01*
X67283Y23107D01*
X67309Y23035D01*
X67329Y22959D01*
X67345Y22872D01*
X67355Y22785D01*
X67360Y22693D01*
Y22688D01*
Y22673D01*
Y22648D01*
X67355Y22612D01*
X67350Y22571D01*
X67345Y22525D01*
X67334Y22469D01*
X67324Y22413D01*
X67294Y22280D01*
X67243Y22143D01*
X67212Y22071D01*
X67171Y22005D01*
X67130Y21934D01*
X67079Y21867D01*
X67074Y21862D01*
X67064Y21847D01*
X67044Y21826D01*
X67018Y21801D01*
X66983Y21770D01*
X66942Y21730D01*
X66891Y21694D01*
X66835Y21653D01*
X66773Y21612D01*
X66702Y21576D01*
X66625Y21541D01*
X66544Y21505D01*
X66457Y21480D01*
X66360Y21459D01*
X66258Y21444D01*
X66151Y21439D01*
X66105D01*
X66070Y21444D01*
X66029Y21449D01*
X65983Y21454D01*
X65927Y21459D01*
X65871Y21475D01*
X65743Y21505D01*
X65616Y21551D01*
X65549Y21582D01*
X65483Y21617D01*
X65422Y21658D01*
X65361Y21704D01*
X65356Y21709D01*
X65345Y21714D01*
X65335Y21735D01*
X65315Y21755D01*
X65289Y21780D01*
X65264Y21811D01*
X65233Y21852D01*
X65208Y21898D01*
X65177Y21944D01*
X65146Y22000D01*
X65090Y22122D01*
X65044Y22265D01*
X65029Y22342D01*
X65019Y22423D01*
X65473Y22459D01*
Y22454D01*
Y22444D01*
X65478Y22428D01*
X65483Y22403D01*
X65498Y22347D01*
X65519Y22270D01*
X65549Y22194D01*
X65590Y22107D01*
X65641Y22030D01*
X65702Y21959D01*
X65713Y21954D01*
X65733Y21934D01*
X65774Y21908D01*
X65830Y21877D01*
X65891Y21847D01*
X65968Y21821D01*
X66054Y21801D01*
X66151Y21796D01*
X66182D01*
X66202Y21801D01*
X66263Y21806D01*
X66335Y21826D01*
X66422Y21852D01*
X66508Y21893D01*
X66600Y21954D01*
X66641Y21990D01*
X66682Y22030D01*
X66687Y22036D01*
X66692Y22041D01*
X66702Y22056D01*
X66717Y22071D01*
X66753Y22127D01*
X66794Y22199D01*
X66830Y22285D01*
X66865Y22392D01*
X66891Y22520D01*
X66901Y22586D01*
Y22658D01*
Y22663D01*
Y22673D01*
Y22693D01*
X66896Y22719D01*
Y22749D01*
X66891Y22785D01*
X66875Y22867D01*
X66850Y22964D01*
X66814Y23061D01*
X66763Y23152D01*
X66692Y23239D01*
Y23244D01*
X66682Y23249D01*
X66656Y23275D01*
X66610Y23311D01*
X66549Y23351D01*
X66467Y23387D01*
X66376Y23423D01*
X66268Y23448D01*
X66207Y23458D01*
X66110D01*
X66070Y23453D01*
X66019Y23448D01*
X65957Y23433D01*
X65896Y23418D01*
X65830Y23392D01*
X65764Y23361D01*
X65759Y23356D01*
X65738Y23346D01*
X65707Y23321D01*
X65667Y23295D01*
X65626Y23259D01*
X65585Y23214D01*
X65539Y23168D01*
X65504Y23112D01*
X65096Y23168D01*
X65437Y24983D01*
X67192D01*
Y24570D01*
D02*
G37*
G36*
X65249Y73585D02*
X65295Y73580D01*
X65351Y73575D01*
X65407Y73570D01*
X65474Y73555D01*
X65611Y73524D01*
X65764Y73478D01*
X65841Y73448D01*
X65912Y73412D01*
X65984Y73366D01*
X66055Y73320D01*
X66060Y73315D01*
X66070Y73310D01*
X66091Y73295D01*
X66116Y73269D01*
X66142Y73244D01*
X66177Y73208D01*
X66213Y73167D01*
X66254Y73126D01*
X66295Y73075D01*
X66336Y73014D01*
X66382Y72953D01*
X66422Y72887D01*
X66458Y72810D01*
X66499Y72734D01*
X66529Y72652D01*
X66560Y72560D01*
X66101Y72453D01*
Y72458D01*
X66096Y72468D01*
X66086Y72489D01*
X66075Y72514D01*
X66065Y72545D01*
X66050Y72586D01*
X66009Y72667D01*
X65958Y72759D01*
X65897Y72851D01*
X65820Y72938D01*
X65739Y73014D01*
X65729Y73024D01*
X65698Y73045D01*
X65647Y73070D01*
X65581Y73106D01*
X65494Y73137D01*
X65397Y73167D01*
X65280Y73188D01*
X65152Y73193D01*
X65112D01*
X65086Y73188D01*
X65050D01*
X65010Y73182D01*
X64913Y73167D01*
X64806Y73147D01*
X64693Y73111D01*
X64576Y73060D01*
X64469Y72994D01*
X64464D01*
X64459Y72983D01*
X64423Y72958D01*
X64377Y72917D01*
X64321Y72856D01*
X64255Y72780D01*
X64194Y72693D01*
X64138Y72586D01*
X64087Y72468D01*
Y72463D01*
X64081Y72453D01*
X64076Y72438D01*
X64071Y72412D01*
X64061Y72382D01*
X64051Y72346D01*
X64035Y72259D01*
X64015Y72157D01*
X63995Y72045D01*
X63985Y71923D01*
X63979Y71790D01*
Y71785D01*
Y71770D01*
Y71744D01*
Y71714D01*
X63985Y71678D01*
Y71632D01*
X63990Y71581D01*
X63995Y71525D01*
X64010Y71403D01*
X64035Y71270D01*
X64066Y71137D01*
X64107Y71005D01*
Y71000D01*
X64112Y70989D01*
X64122Y70974D01*
X64132Y70949D01*
X64163Y70887D01*
X64209Y70816D01*
X64265Y70734D01*
X64336Y70648D01*
X64418Y70571D01*
X64515Y70500D01*
X64520D01*
X64530Y70495D01*
X64546Y70485D01*
X64566Y70474D01*
X64591Y70464D01*
X64622Y70449D01*
X64693Y70418D01*
X64785Y70388D01*
X64887Y70362D01*
X64999Y70342D01*
X65117Y70337D01*
X65152D01*
X65183Y70342D01*
X65219D01*
X65254Y70347D01*
X65346Y70367D01*
X65453Y70393D01*
X65560Y70433D01*
X65673Y70490D01*
X65729Y70520D01*
X65780Y70561D01*
X65785Y70566D01*
X65790Y70571D01*
X65805Y70587D01*
X65826Y70602D01*
X65846Y70627D01*
X65872Y70658D01*
X65902Y70688D01*
X65928Y70729D01*
X65958Y70775D01*
X65994Y70826D01*
X66025Y70877D01*
X66055Y70938D01*
X66081Y71005D01*
X66106Y71076D01*
X66132Y71153D01*
X66152Y71234D01*
X66621Y71117D01*
Y71112D01*
X66616Y71091D01*
X66606Y71061D01*
X66591Y71020D01*
X66575Y70974D01*
X66555Y70918D01*
X66529Y70857D01*
X66499Y70790D01*
X66427Y70648D01*
X66336Y70505D01*
X66280Y70433D01*
X66223Y70362D01*
X66162Y70301D01*
X66091Y70240D01*
X66086Y70235D01*
X66075Y70224D01*
X66050Y70214D01*
X66025Y70194D01*
X65984Y70168D01*
X65943Y70143D01*
X65887Y70117D01*
X65831Y70092D01*
X65764Y70061D01*
X65693Y70036D01*
X65617Y70010D01*
X65535Y69985D01*
X65448Y69964D01*
X65356Y69954D01*
X65259Y69944D01*
X65158Y69939D01*
X65101D01*
X65061Y69944D01*
X65015D01*
X64959Y69949D01*
X64897Y69959D01*
X64826Y69969D01*
X64678Y69995D01*
X64525Y70036D01*
X64372Y70092D01*
X64301Y70127D01*
X64229Y70168D01*
X64224Y70173D01*
X64214Y70179D01*
X64194Y70194D01*
X64173Y70214D01*
X64143Y70235D01*
X64107Y70265D01*
X64066Y70301D01*
X64025Y70342D01*
X63985Y70388D01*
X63939Y70433D01*
X63847Y70551D01*
X63760Y70688D01*
X63684Y70841D01*
Y70847D01*
X63673Y70862D01*
X63668Y70887D01*
X63653Y70918D01*
X63643Y70959D01*
X63627Y71010D01*
X63607Y71066D01*
X63592Y71127D01*
X63577Y71193D01*
X63556Y71270D01*
X63531Y71428D01*
X63510Y71606D01*
X63500Y71790D01*
Y71795D01*
Y71816D01*
Y71846D01*
X63505Y71882D01*
Y71933D01*
X63510Y71984D01*
X63515Y72050D01*
X63525Y72117D01*
X63551Y72264D01*
X63587Y72428D01*
X63638Y72591D01*
X63709Y72749D01*
X63714Y72754D01*
X63719Y72769D01*
X63730Y72790D01*
X63750Y72815D01*
X63770Y72851D01*
X63796Y72892D01*
X63862Y72983D01*
X63949Y73085D01*
X64051Y73188D01*
X64168Y73290D01*
X64306Y73376D01*
X64311Y73381D01*
X64326Y73386D01*
X64347Y73397D01*
X64372Y73412D01*
X64413Y73427D01*
X64454Y73443D01*
X64505Y73463D01*
X64561Y73483D01*
X64622Y73504D01*
X64688Y73524D01*
X64831Y73555D01*
X64994Y73580D01*
X65163Y73590D01*
X65214D01*
X65249Y73585D01*
D02*
G37*
G36*
X68840Y71244D02*
X69319D01*
Y70847D01*
X68840D01*
Y70000D01*
X68406D01*
Y70847D01*
X66871D01*
Y71244D01*
X68488Y73529D01*
X68840D01*
Y71244D01*
D02*
G37*
G36*
X63249Y25085D02*
X63295Y25080D01*
X63351Y25075D01*
X63407Y25070D01*
X63474Y25055D01*
X63611Y25024D01*
X63764Y24978D01*
X63841Y24948D01*
X63912Y24912D01*
X63984Y24866D01*
X64055Y24820D01*
X64060Y24815D01*
X64070Y24810D01*
X64091Y24795D01*
X64116Y24769D01*
X64142Y24744D01*
X64178Y24708D01*
X64213Y24667D01*
X64254Y24626D01*
X64295Y24575D01*
X64336Y24514D01*
X64381Y24453D01*
X64422Y24387D01*
X64458Y24310D01*
X64499Y24234D01*
X64529Y24152D01*
X64560Y24060D01*
X64101Y23953D01*
Y23958D01*
X64096Y23968D01*
X64086Y23989D01*
X64075Y24014D01*
X64065Y24045D01*
X64050Y24086D01*
X64009Y24167D01*
X63958Y24259D01*
X63897Y24351D01*
X63820Y24438D01*
X63739Y24514D01*
X63729Y24524D01*
X63698Y24545D01*
X63647Y24570D01*
X63581Y24606D01*
X63494Y24636D01*
X63397Y24667D01*
X63280Y24688D01*
X63152Y24693D01*
X63112D01*
X63086Y24688D01*
X63050D01*
X63010Y24682D01*
X62913Y24667D01*
X62806Y24647D01*
X62693Y24611D01*
X62576Y24560D01*
X62469Y24494D01*
X62464D01*
X62459Y24484D01*
X62423Y24458D01*
X62377Y24417D01*
X62321Y24356D01*
X62255Y24280D01*
X62194Y24193D01*
X62138Y24086D01*
X62086Y23968D01*
Y23963D01*
X62081Y23953D01*
X62076Y23938D01*
X62071Y23912D01*
X62061Y23882D01*
X62051Y23846D01*
X62036Y23759D01*
X62015Y23657D01*
X61995Y23545D01*
X61984Y23423D01*
X61979Y23290D01*
Y23285D01*
Y23270D01*
Y23244D01*
Y23214D01*
X61984Y23178D01*
Y23132D01*
X61990Y23081D01*
X61995Y23025D01*
X62010Y22903D01*
X62036Y22770D01*
X62066Y22637D01*
X62107Y22505D01*
Y22500D01*
X62112Y22489D01*
X62122Y22474D01*
X62132Y22449D01*
X62163Y22387D01*
X62209Y22316D01*
X62265Y22234D01*
X62336Y22148D01*
X62418Y22071D01*
X62515Y22000D01*
X62520D01*
X62530Y21995D01*
X62546Y21984D01*
X62566Y21974D01*
X62591Y21964D01*
X62622Y21949D01*
X62693Y21918D01*
X62785Y21888D01*
X62887Y21862D01*
X62999Y21842D01*
X63117Y21837D01*
X63152D01*
X63183Y21842D01*
X63219D01*
X63254Y21847D01*
X63346Y21867D01*
X63453Y21893D01*
X63560Y21934D01*
X63673Y21990D01*
X63729Y22020D01*
X63780Y22061D01*
X63785Y22066D01*
X63790Y22071D01*
X63805Y22086D01*
X63826Y22102D01*
X63846Y22127D01*
X63872Y22158D01*
X63902Y22188D01*
X63928Y22229D01*
X63958Y22275D01*
X63994Y22326D01*
X64025Y22377D01*
X64055Y22438D01*
X64081Y22505D01*
X64106Y22576D01*
X64132Y22653D01*
X64152Y22734D01*
X64621Y22617D01*
Y22612D01*
X64616Y22591D01*
X64606Y22561D01*
X64591Y22520D01*
X64575Y22474D01*
X64555Y22418D01*
X64529Y22357D01*
X64499Y22290D01*
X64427Y22148D01*
X64336Y22005D01*
X64280Y21934D01*
X64223Y21862D01*
X64162Y21801D01*
X64091Y21740D01*
X64086Y21735D01*
X64075Y21724D01*
X64050Y21714D01*
X64025Y21694D01*
X63984Y21668D01*
X63943Y21643D01*
X63887Y21617D01*
X63831Y21592D01*
X63764Y21561D01*
X63693Y21536D01*
X63617Y21510D01*
X63535Y21485D01*
X63448Y21464D01*
X63356Y21454D01*
X63260Y21444D01*
X63157Y21439D01*
X63101D01*
X63061Y21444D01*
X63015D01*
X62959Y21449D01*
X62897Y21459D01*
X62826Y21469D01*
X62678Y21495D01*
X62525Y21536D01*
X62372Y21592D01*
X62301Y21628D01*
X62229Y21668D01*
X62224Y21673D01*
X62214Y21678D01*
X62194Y21694D01*
X62173Y21714D01*
X62143Y21735D01*
X62107Y21765D01*
X62066Y21801D01*
X62025Y21842D01*
X61984Y21888D01*
X61939Y21934D01*
X61847Y22051D01*
X61760Y22188D01*
X61684Y22342D01*
Y22347D01*
X61673Y22362D01*
X61668Y22387D01*
X61653Y22418D01*
X61643Y22459D01*
X61628Y22510D01*
X61607Y22566D01*
X61592Y22627D01*
X61576Y22693D01*
X61556Y22770D01*
X61531Y22928D01*
X61510Y23107D01*
X61500Y23290D01*
Y23295D01*
Y23316D01*
Y23346D01*
X61505Y23382D01*
Y23433D01*
X61510Y23484D01*
X61515Y23550D01*
X61525Y23617D01*
X61551Y23764D01*
X61587Y23928D01*
X61638Y24091D01*
X61709Y24249D01*
X61714Y24254D01*
X61719Y24269D01*
X61730Y24290D01*
X61750Y24315D01*
X61770Y24351D01*
X61796Y24392D01*
X61862Y24484D01*
X61949Y24586D01*
X62051Y24688D01*
X62168Y24790D01*
X62306Y24876D01*
X62311Y24881D01*
X62326Y24886D01*
X62347Y24897D01*
X62372Y24912D01*
X62413Y24927D01*
X62454Y24942D01*
X62505Y24963D01*
X62561Y24983D01*
X62622Y25004D01*
X62688Y25024D01*
X62831Y25055D01*
X62994Y25080D01*
X63163Y25090D01*
X63214D01*
X63249Y25085D01*
D02*
G37*
G36*
X19733Y58039D02*
X19799Y58029D01*
X19881Y58014D01*
X19973Y57988D01*
X20064Y57958D01*
X20156Y57917D01*
X20161D01*
X20166Y57912D01*
X20197Y57897D01*
X20243Y57866D01*
X20294Y57830D01*
X20355Y57779D01*
X20416Y57723D01*
X20477Y57657D01*
X20528Y57580D01*
X20534Y57570D01*
X20549Y57545D01*
X20569Y57499D01*
X20595Y57443D01*
X20620Y57376D01*
X20641Y57300D01*
X20656Y57213D01*
X20661Y57126D01*
Y57116D01*
Y57086D01*
X20656Y57045D01*
X20646Y56989D01*
X20630Y56923D01*
X20605Y56851D01*
X20574Y56780D01*
X20534Y56708D01*
X20528Y56698D01*
X20513Y56678D01*
X20482Y56642D01*
X20442Y56601D01*
X20391Y56555D01*
X20330Y56504D01*
X20258Y56458D01*
X20171Y56413D01*
X20177D01*
X20187Y56407D01*
X20202Y56402D01*
X20222Y56397D01*
X20279Y56377D01*
X20350Y56346D01*
X20432Y56305D01*
X20513Y56254D01*
X20590Y56188D01*
X20661Y56112D01*
X20666Y56101D01*
X20686Y56071D01*
X20717Y56020D01*
X20748Y55954D01*
X20778Y55872D01*
X20809Y55775D01*
X20829Y55663D01*
X20834Y55540D01*
Y55535D01*
Y55520D01*
Y55494D01*
X20829Y55464D01*
X20824Y55423D01*
X20814Y55377D01*
X20804Y55326D01*
X20794Y55270D01*
X20753Y55148D01*
X20722Y55081D01*
X20692Y55020D01*
X20651Y54954D01*
X20605Y54888D01*
X20554Y54821D01*
X20493Y54760D01*
X20488Y54755D01*
X20477Y54745D01*
X20457Y54729D01*
X20432Y54709D01*
X20401Y54684D01*
X20360Y54658D01*
X20314Y54628D01*
X20258Y54602D01*
X20202Y54571D01*
X20136Y54541D01*
X20069Y54515D01*
X19993Y54490D01*
X19911Y54469D01*
X19825Y54454D01*
X19738Y54444D01*
X19641Y54439D01*
X19595D01*
X19565Y54444D01*
X19524Y54449D01*
X19478Y54454D01*
X19427Y54464D01*
X19371Y54475D01*
X19248Y54505D01*
X19121Y54556D01*
X19054Y54587D01*
X18993Y54622D01*
X18932Y54668D01*
X18871Y54714D01*
X18866Y54719D01*
X18856Y54729D01*
X18840Y54745D01*
X18825Y54765D01*
X18800Y54791D01*
X18774Y54826D01*
X18743Y54862D01*
X18713Y54908D01*
X18682Y54959D01*
X18652Y55010D01*
X18596Y55132D01*
X18550Y55275D01*
X18534Y55352D01*
X18524Y55433D01*
X18958Y55489D01*
Y55484D01*
X18963Y55474D01*
X18968Y55454D01*
X18973Y55428D01*
X18978Y55398D01*
X18988Y55362D01*
X19014Y55285D01*
X19049Y55194D01*
X19095Y55107D01*
X19146Y55025D01*
X19207Y54954D01*
X19218Y54949D01*
X19238Y54928D01*
X19279Y54903D01*
X19330Y54877D01*
X19391Y54847D01*
X19468Y54821D01*
X19554Y54801D01*
X19646Y54796D01*
X19677D01*
X19697Y54801D01*
X19753Y54806D01*
X19825Y54821D01*
X19906Y54847D01*
X19993Y54883D01*
X20080Y54934D01*
X20161Y55005D01*
X20171Y55015D01*
X20197Y55046D01*
X20227Y55092D01*
X20268Y55153D01*
X20309Y55229D01*
X20340Y55316D01*
X20365Y55418D01*
X20375Y55530D01*
Y55535D01*
Y55546D01*
Y55561D01*
X20370Y55581D01*
X20365Y55637D01*
X20350Y55704D01*
X20330Y55785D01*
X20294Y55867D01*
X20243Y55948D01*
X20177Y56025D01*
X20166Y56035D01*
X20141Y56055D01*
X20100Y56086D01*
X20044Y56122D01*
X19973Y56157D01*
X19886Y56188D01*
X19789Y56208D01*
X19682Y56219D01*
X19636D01*
X19600Y56214D01*
X19554Y56208D01*
X19503Y56198D01*
X19442Y56188D01*
X19376Y56173D01*
X19427Y56555D01*
X19452D01*
X19473Y56550D01*
X19539D01*
X19595Y56560D01*
X19661Y56571D01*
X19738Y56586D01*
X19825Y56611D01*
X19906Y56647D01*
X19993Y56693D01*
X19998D01*
X20003Y56698D01*
X20029Y56718D01*
X20064Y56754D01*
X20105Y56800D01*
X20146Y56866D01*
X20182Y56943D01*
X20207Y57030D01*
X20217Y57081D01*
Y57137D01*
Y57142D01*
Y57147D01*
Y57178D01*
X20207Y57218D01*
X20197Y57274D01*
X20177Y57336D01*
X20151Y57402D01*
X20110Y57468D01*
X20054Y57529D01*
X20049Y57534D01*
X20023Y57555D01*
X19988Y57580D01*
X19942Y57611D01*
X19881Y57636D01*
X19809Y57662D01*
X19728Y57682D01*
X19636Y57687D01*
X19595D01*
X19549Y57677D01*
X19488Y57667D01*
X19422Y57647D01*
X19355Y57621D01*
X19284Y57580D01*
X19218Y57529D01*
X19213Y57524D01*
X19192Y57499D01*
X19162Y57463D01*
X19126Y57412D01*
X19090Y57346D01*
X19054Y57264D01*
X19024Y57167D01*
X19004Y57055D01*
X18570Y57132D01*
Y57137D01*
X18575Y57152D01*
X18580Y57172D01*
X18585Y57203D01*
X18596Y57239D01*
X18611Y57279D01*
X18641Y57376D01*
X18692Y57489D01*
X18754Y57601D01*
X18830Y57708D01*
X18927Y57805D01*
X18932Y57810D01*
X18942Y57815D01*
X18958Y57825D01*
X18978Y57841D01*
X19004Y57861D01*
X19039Y57881D01*
X19075Y57902D01*
X19121Y57927D01*
X19223Y57968D01*
X19340Y58009D01*
X19478Y58034D01*
X19549Y58044D01*
X19677D01*
X19733Y58039D01*
D02*
G37*
G36*
X19840Y62539D02*
X19876D01*
X19916Y62534D01*
X20013Y62514D01*
X20120Y62488D01*
X20233Y62448D01*
X20345Y62386D01*
X20401Y62351D01*
X20452Y62310D01*
X20457Y62305D01*
X20462Y62300D01*
X20477Y62284D01*
X20493Y62269D01*
X20518Y62244D01*
X20539Y62213D01*
X20595Y62142D01*
X20651Y62050D01*
X20702Y61938D01*
X20748Y61810D01*
X20778Y61667D01*
X20345Y61632D01*
Y61637D01*
X20340Y61642D01*
X20335Y61672D01*
X20319Y61718D01*
X20299Y61774D01*
X20279Y61836D01*
X20248Y61897D01*
X20212Y61953D01*
X20177Y61999D01*
X20166Y62009D01*
X20146Y62029D01*
X20110Y62060D01*
X20059Y62096D01*
X19993Y62126D01*
X19921Y62157D01*
X19835Y62177D01*
X19743Y62187D01*
X19707D01*
X19667Y62182D01*
X19621Y62172D01*
X19559Y62157D01*
X19498Y62137D01*
X19437Y62111D01*
X19376Y62070D01*
X19366Y62065D01*
X19340Y62045D01*
X19304Y62009D01*
X19259Y61958D01*
X19207Y61897D01*
X19151Y61825D01*
X19100Y61734D01*
X19049Y61632D01*
Y61626D01*
X19044Y61616D01*
X19039Y61601D01*
X19029Y61581D01*
X19024Y61550D01*
X19014Y61514D01*
X19004Y61474D01*
X18993Y61422D01*
X18978Y61366D01*
X18968Y61305D01*
X18958Y61239D01*
X18952Y61168D01*
X18942Y61086D01*
X18937Y61004D01*
X18932Y60913D01*
Y60821D01*
X18937Y60826D01*
X18958Y60856D01*
X18993Y60897D01*
X19039Y60948D01*
X19090Y61009D01*
X19157Y61066D01*
X19228Y61122D01*
X19309Y61173D01*
X19315D01*
X19320Y61178D01*
X19350Y61193D01*
X19396Y61208D01*
X19457Y61234D01*
X19529Y61254D01*
X19610Y61269D01*
X19697Y61285D01*
X19789Y61290D01*
X19830D01*
X19860Y61285D01*
X19901Y61280D01*
X19942Y61275D01*
X19993Y61264D01*
X20044Y61249D01*
X20161Y61213D01*
X20222Y61188D01*
X20284Y61152D01*
X20345Y61116D01*
X20411Y61076D01*
X20472Y61025D01*
X20528Y60969D01*
X20534Y60963D01*
X20544Y60953D01*
X20559Y60938D01*
X20574Y60913D01*
X20600Y60877D01*
X20625Y60841D01*
X20651Y60795D01*
X20681Y60744D01*
X20712Y60688D01*
X20738Y60627D01*
X20763Y60555D01*
X20788Y60484D01*
X20804Y60408D01*
X20819Y60321D01*
X20829Y60234D01*
X20834Y60142D01*
Y60137D01*
Y60127D01*
Y60112D01*
Y60086D01*
X20829Y60056D01*
Y60025D01*
X20814Y59943D01*
X20799Y59847D01*
X20773Y59745D01*
X20738Y59632D01*
X20686Y59525D01*
Y59520D01*
X20681Y59515D01*
X20671Y59500D01*
X20661Y59479D01*
X20630Y59428D01*
X20584Y59362D01*
X20528Y59291D01*
X20462Y59219D01*
X20380Y59148D01*
X20294Y59087D01*
X20289D01*
X20284Y59082D01*
X20268Y59071D01*
X20248Y59066D01*
X20197Y59041D01*
X20131Y59015D01*
X20044Y58985D01*
X19947Y58964D01*
X19840Y58944D01*
X19723Y58939D01*
X19697D01*
X19672Y58944D01*
X19631D01*
X19585Y58949D01*
X19534Y58959D01*
X19473Y58974D01*
X19411Y58990D01*
X19340Y59010D01*
X19269Y59036D01*
X19197Y59066D01*
X19121Y59107D01*
X19049Y59153D01*
X18978Y59204D01*
X18907Y59265D01*
X18840Y59337D01*
X18835Y59342D01*
X18825Y59357D01*
X18810Y59377D01*
X18789Y59413D01*
X18759Y59459D01*
X18733Y59510D01*
X18703Y59576D01*
X18672Y59648D01*
X18636Y59734D01*
X18606Y59831D01*
X18580Y59938D01*
X18555Y60056D01*
X18529Y60188D01*
X18514Y60331D01*
X18504Y60484D01*
X18499Y60647D01*
Y60652D01*
Y60658D01*
Y60673D01*
Y60693D01*
X18504Y60744D01*
Y60816D01*
X18509Y60897D01*
X18519Y60994D01*
X18529Y61101D01*
X18544Y61219D01*
X18565Y61336D01*
X18590Y61463D01*
X18621Y61586D01*
X18657Y61708D01*
X18703Y61825D01*
X18754Y61938D01*
X18810Y62045D01*
X18876Y62137D01*
X18881Y62142D01*
X18891Y62152D01*
X18912Y62172D01*
X18937Y62203D01*
X18968Y62233D01*
X19009Y62264D01*
X19060Y62305D01*
X19111Y62340D01*
X19172Y62376D01*
X19238Y62417D01*
X19315Y62448D01*
X19391Y62483D01*
X19478Y62509D01*
X19570Y62529D01*
X19667Y62539D01*
X19769Y62545D01*
X19809D01*
X19840Y62539D01*
D02*
G37*
%LPC*%
G36*
X3722Y87018D02*
X3671D01*
X3630Y87013D01*
X3584D01*
X3533Y87008D01*
X3472Y87003D01*
X3411Y86998D01*
X3273Y86972D01*
X3130Y86942D01*
X2998Y86896D01*
X2931Y86865D01*
X2875Y86835D01*
X2870D01*
X2860Y86824D01*
X2844Y86814D01*
X2824Y86804D01*
X2773Y86763D01*
X2712Y86712D01*
X2646Y86646D01*
X2579Y86569D01*
X2523Y86483D01*
X2477Y86391D01*
X2472Y86381D01*
X2467Y86355D01*
X2452Y86309D01*
X2437Y86243D01*
X2426Y86161D01*
X2411Y86059D01*
X2406Y85998D01*
Y85932D01*
X2401Y85865D01*
Y85789D01*
Y85049D01*
X5094D01*
Y85799D01*
Y85804D01*
Y85814D01*
Y85835D01*
Y85855D01*
Y85886D01*
X5088Y85922D01*
X5083Y85998D01*
X5078Y86085D01*
X5068Y86177D01*
X5053Y86268D01*
X5032Y86345D01*
X5027Y86355D01*
X5022Y86381D01*
X5007Y86416D01*
X4986Y86462D01*
X4956Y86513D01*
X4925Y86564D01*
X4890Y86615D01*
X4849Y86666D01*
X4839Y86671D01*
X4818Y86692D01*
X4783Y86722D01*
X4732Y86758D01*
X4665Y86799D01*
X4589Y86845D01*
X4502Y86885D01*
X4405Y86921D01*
X4400D01*
X4390Y86926D01*
X4374Y86931D01*
X4354Y86936D01*
X4329Y86942D01*
X4293Y86952D01*
X4257Y86962D01*
X4216Y86972D01*
X4114Y86988D01*
X3997Y87003D01*
X3864Y87013D01*
X3722Y87018D01*
D02*
G37*
G36*
X93046Y73989D02*
X92077Y73622D01*
X92072D01*
X92057Y73617D01*
X92032Y73607D01*
X92001Y73597D01*
X91965Y73581D01*
X91919Y73566D01*
X91868Y73551D01*
X91817Y73531D01*
X91700Y73490D01*
X91578Y73449D01*
X91455Y73408D01*
X91338Y73372D01*
X91343D01*
X91353Y73367D01*
X91374D01*
X91394Y73357D01*
X91430Y73352D01*
X91466Y73342D01*
X91552Y73321D01*
X91654Y73296D01*
X91766Y73260D01*
X91889Y73225D01*
X92016Y73179D01*
X93046Y72796D01*
Y73989D01*
D02*
G37*
G36*
X91940Y69583D02*
X91930D01*
X91899Y69578D01*
X91853Y69573D01*
X91792Y69563D01*
X91731Y69537D01*
X91659Y69507D01*
X91593Y69461D01*
X91527Y69399D01*
X91522Y69389D01*
X91501Y69364D01*
X91476Y69323D01*
X91445Y69257D01*
X91414Y69180D01*
X91389Y69078D01*
X91369Y68961D01*
X91364Y68823D01*
Y67711D01*
X92531D01*
Y68711D01*
Y68716D01*
Y68726D01*
Y68742D01*
Y68762D01*
X92526Y68823D01*
X92521Y68895D01*
X92516Y68976D01*
X92506Y69058D01*
X92491Y69139D01*
X92470Y69211D01*
X92465Y69221D01*
X92455Y69241D01*
X92440Y69272D01*
X92419Y69313D01*
X92389Y69359D01*
X92353Y69405D01*
X92307Y69450D01*
X92256Y69486D01*
X92251Y69491D01*
X92230Y69502D01*
X92200Y69517D01*
X92159Y69537D01*
X92113Y69552D01*
X92062Y69568D01*
X92001Y69578D01*
X91940Y69583D01*
D02*
G37*
G36*
X105466Y87325D02*
X104354Y85744D01*
X105466D01*
Y87325D01*
D02*
G37*
G36*
X80839Y79611D02*
X80023D01*
Y76918D01*
X80859D01*
X80895Y76923D01*
X80971Y76928D01*
X81058Y76933D01*
X81150Y76944D01*
X81242Y76959D01*
X81318Y76979D01*
X81328Y76985D01*
X81354Y76990D01*
X81390Y77005D01*
X81436Y77025D01*
X81487Y77056D01*
X81538Y77087D01*
X81589Y77122D01*
X81640Y77163D01*
X81645Y77173D01*
X81665Y77194D01*
X81696Y77229D01*
X81731Y77280D01*
X81772Y77347D01*
X81818Y77423D01*
X81859Y77510D01*
X81895Y77607D01*
Y77612D01*
X81900Y77622D01*
X81905Y77637D01*
X81910Y77658D01*
X81915Y77683D01*
X81925Y77719D01*
X81935Y77755D01*
X81946Y77795D01*
X81961Y77897D01*
X81976Y78015D01*
X81986Y78147D01*
X81991Y78290D01*
Y78295D01*
Y78316D01*
Y78341D01*
X81986Y78382D01*
Y78428D01*
X81981Y78479D01*
X81976Y78540D01*
X81971Y78601D01*
X81946Y78739D01*
X81915Y78882D01*
X81869Y79014D01*
X81839Y79081D01*
X81808Y79137D01*
Y79142D01*
X81798Y79152D01*
X81788Y79167D01*
X81777Y79188D01*
X81736Y79239D01*
X81686Y79300D01*
X81619Y79366D01*
X81543Y79432D01*
X81456Y79489D01*
X81364Y79535D01*
X81354Y79540D01*
X81328Y79545D01*
X81283Y79560D01*
X81216Y79575D01*
X81135Y79585D01*
X81033Y79601D01*
X80971Y79606D01*
X80905D01*
X80839Y79611D01*
D02*
G37*
G36*
X80081Y86637D02*
X78969D01*
Y85469D01*
X80020D01*
X80081Y85474D01*
X80152Y85479D01*
X80234Y85484D01*
X80316Y85494D01*
X80397Y85509D01*
X80469Y85530D01*
X80479Y85535D01*
X80499Y85545D01*
X80530Y85560D01*
X80571Y85581D01*
X80616Y85611D01*
X80662Y85647D01*
X80708Y85693D01*
X80744Y85744D01*
X80749Y85749D01*
X80759Y85769D01*
X80775Y85800D01*
X80795Y85841D01*
X80810Y85887D01*
X80826Y85938D01*
X80836Y85999D01*
X80841Y86060D01*
Y86065D01*
Y86070D01*
X80836Y86101D01*
X80831Y86147D01*
X80821Y86208D01*
X80795Y86269D01*
X80764Y86341D01*
X80718Y86407D01*
X80657Y86473D01*
X80647Y86478D01*
X80622Y86499D01*
X80581Y86524D01*
X80515Y86555D01*
X80438Y86585D01*
X80336Y86611D01*
X80219Y86631D01*
X80081Y86637D01*
D02*
G37*
G36*
X38081Y30136D02*
X36969D01*
Y28969D01*
X38020D01*
X38081Y28974D01*
X38152Y28979D01*
X38234Y28984D01*
X38316Y28994D01*
X38397Y29009D01*
X38469Y29030D01*
X38479Y29035D01*
X38499Y29045D01*
X38530Y29060D01*
X38571Y29081D01*
X38616Y29111D01*
X38662Y29147D01*
X38708Y29193D01*
X38744Y29244D01*
X38749Y29249D01*
X38759Y29269D01*
X38775Y29300D01*
X38795Y29341D01*
X38810Y29387D01*
X38826Y29438D01*
X38836Y29499D01*
X38841Y29560D01*
Y29565D01*
Y29570D01*
X38836Y29601D01*
X38831Y29647D01*
X38820Y29708D01*
X38795Y29769D01*
X38764Y29841D01*
X38719Y29907D01*
X38657Y29973D01*
X38647Y29978D01*
X38622Y29999D01*
X38581Y30024D01*
X38515Y30055D01*
X38438Y30086D01*
X38336Y30111D01*
X38219Y30131D01*
X38081Y30136D01*
D02*
G37*
G36*
X22581Y73637D02*
X21469D01*
Y72469D01*
X22520D01*
X22581Y72474D01*
X22652Y72479D01*
X22734Y72484D01*
X22816Y72494D01*
X22897Y72509D01*
X22969Y72530D01*
X22979Y72535D01*
X22999Y72545D01*
X23030Y72560D01*
X23071Y72581D01*
X23117Y72611D01*
X23162Y72647D01*
X23208Y72693D01*
X23244Y72744D01*
X23249Y72749D01*
X23259Y72769D01*
X23275Y72800D01*
X23295Y72841D01*
X23310Y72887D01*
X23326Y72938D01*
X23336Y72999D01*
X23341Y73060D01*
Y73065D01*
Y73070D01*
X23336Y73101D01*
X23331Y73147D01*
X23321Y73208D01*
X23295Y73269D01*
X23264Y73341D01*
X23219Y73407D01*
X23157Y73473D01*
X23147Y73478D01*
X23122Y73499D01*
X23081Y73524D01*
X23015Y73555D01*
X22938Y73585D01*
X22836Y73611D01*
X22719Y73631D01*
X22581Y73637D01*
D02*
G37*
G36*
X77310Y66575D02*
X76100Y64854D01*
X77310D01*
Y66575D01*
D02*
G37*
G36*
X70783Y66969D02*
X70750D01*
X70728Y66963D01*
X70667Y66952D01*
X70595Y66935D01*
X70511Y66902D01*
X70423Y66852D01*
X70378Y66819D01*
X70334Y66786D01*
X70295Y66741D01*
X70256Y66691D01*
Y66686D01*
X70245Y66675D01*
X70234Y66652D01*
X70217Y66625D01*
X70201Y66580D01*
X70178Y66530D01*
X70162Y66469D01*
X70139Y66397D01*
X70117Y66314D01*
X70095Y66220D01*
X70073Y66114D01*
X70056Y65997D01*
X70040Y65864D01*
X70029Y65720D01*
X70023Y65565D01*
X70017Y65393D01*
Y65381D01*
Y65354D01*
Y65304D01*
X70023Y65237D01*
Y65165D01*
X70029Y65076D01*
X70034Y64982D01*
X70045Y64882D01*
X70073Y64666D01*
X70090Y64560D01*
X70112Y64460D01*
X70134Y64366D01*
X70167Y64277D01*
X70201Y64199D01*
X70239Y64133D01*
Y64127D01*
X70250Y64122D01*
X70278Y64083D01*
X70328Y64033D01*
X70389Y63977D01*
X70473Y63922D01*
X70567Y63872D01*
X70672Y63833D01*
X70728Y63827D01*
X70789Y63822D01*
X70822D01*
X70844Y63827D01*
X70900Y63838D01*
X70977Y63861D01*
X71061Y63900D01*
X71155Y63955D01*
X71200Y63988D01*
X71244Y64033D01*
X71288Y64077D01*
X71333Y64133D01*
Y64138D01*
X71344Y64149D01*
X71355Y64166D01*
X71366Y64194D01*
X71388Y64233D01*
X71405Y64283D01*
X71427Y64338D01*
X71449Y64405D01*
X71466Y64488D01*
X71488Y64577D01*
X71510Y64682D01*
X71527Y64793D01*
X71538Y64926D01*
X71549Y65065D01*
X71560Y65220D01*
Y65393D01*
Y65398D01*
Y65404D01*
Y65431D01*
Y65481D01*
X71555Y65548D01*
Y65620D01*
X71549Y65709D01*
X71544Y65803D01*
X71533Y65909D01*
X71505Y66120D01*
X71488Y66225D01*
X71466Y66325D01*
X71444Y66419D01*
X71411Y66508D01*
X71377Y66586D01*
X71338Y66652D01*
Y66658D01*
X71327Y66663D01*
X71316Y66680D01*
X71299Y66702D01*
X71250Y66752D01*
X71188Y66813D01*
X71105Y66869D01*
X71011Y66919D01*
X70961Y66941D01*
X70905Y66958D01*
X70844Y66963D01*
X70783Y66969D01*
D02*
G37*
G36*
X64811D02*
X64778D01*
X64756Y66963D01*
X64695Y66952D01*
X64623Y66935D01*
X64539Y66902D01*
X64451Y66852D01*
X64406Y66819D01*
X64362Y66786D01*
X64323Y66741D01*
X64284Y66691D01*
Y66686D01*
X64273Y66675D01*
X64262Y66652D01*
X64245Y66625D01*
X64229Y66580D01*
X64207Y66530D01*
X64190Y66469D01*
X64168Y66397D01*
X64145Y66314D01*
X64123Y66220D01*
X64101Y66114D01*
X64085Y65997D01*
X64068Y65864D01*
X64057Y65720D01*
X64051Y65565D01*
X64046Y65393D01*
Y65381D01*
Y65354D01*
Y65304D01*
X64051Y65237D01*
Y65165D01*
X64057Y65076D01*
X64062Y64982D01*
X64073Y64882D01*
X64101Y64666D01*
X64118Y64560D01*
X64140Y64460D01*
X64162Y64366D01*
X64196Y64277D01*
X64229Y64199D01*
X64268Y64133D01*
Y64127D01*
X64279Y64122D01*
X64306Y64083D01*
X64356Y64033D01*
X64417Y63977D01*
X64501Y63922D01*
X64595Y63872D01*
X64701Y63833D01*
X64756Y63827D01*
X64817Y63822D01*
X64850D01*
X64873Y63827D01*
X64928Y63838D01*
X65006Y63861D01*
X65089Y63900D01*
X65183Y63955D01*
X65228Y63988D01*
X65272Y64033D01*
X65316Y64077D01*
X65361Y64133D01*
Y64138D01*
X65372Y64149D01*
X65383Y64166D01*
X65394Y64194D01*
X65416Y64233D01*
X65433Y64283D01*
X65455Y64338D01*
X65478Y64405D01*
X65494Y64488D01*
X65516Y64577D01*
X65539Y64682D01*
X65555Y64793D01*
X65566Y64926D01*
X65577Y65065D01*
X65588Y65220D01*
Y65393D01*
Y65398D01*
Y65404D01*
Y65431D01*
Y65481D01*
X65583Y65548D01*
Y65620D01*
X65577Y65709D01*
X65572Y65803D01*
X65561Y65909D01*
X65533Y66120D01*
X65516Y66225D01*
X65494Y66325D01*
X65472Y66419D01*
X65439Y66508D01*
X65405Y66586D01*
X65367Y66652D01*
Y66658D01*
X65355Y66663D01*
X65344Y66680D01*
X65328Y66702D01*
X65278Y66752D01*
X65217Y66813D01*
X65133Y66869D01*
X65039Y66919D01*
X64989Y66941D01*
X64934Y66958D01*
X64873Y66963D01*
X64811Y66969D01*
D02*
G37*
G36*
X78600Y41723D02*
X78574D01*
X78497Y41710D01*
X78383Y41697D01*
X78230Y41672D01*
X78077Y41608D01*
X77898Y41532D01*
X77732Y41417D01*
X77567Y41264D01*
X77554Y41238D01*
X77503Y41175D01*
X77439Y41073D01*
X77363Y40907D01*
X77286Y40716D01*
X77223Y40461D01*
X77171Y40167D01*
X77159Y39823D01*
Y37044D01*
X80079D01*
Y39543D01*
Y39555D01*
Y39581D01*
Y39619D01*
Y39670D01*
X80066Y39823D01*
X80053Y40002D01*
X80040Y40206D01*
X80015Y40410D01*
X79976Y40614D01*
X79926Y40792D01*
X79913Y40818D01*
X79887Y40869D01*
X79849Y40945D01*
X79798Y41047D01*
X79721Y41162D01*
X79632Y41277D01*
X79518Y41392D01*
X79390Y41481D01*
X79377Y41493D01*
X79326Y41519D01*
X79250Y41557D01*
X79148Y41608D01*
X79033Y41647D01*
X78905Y41685D01*
X78752Y41710D01*
X78600Y41723D01*
D02*
G37*
G36*
X81366Y32186D02*
X78944Y31268D01*
X78931D01*
X78893Y31255D01*
X78829Y31230D01*
X78752Y31204D01*
X78663Y31166D01*
X78549Y31128D01*
X78421Y31089D01*
X78294Y31038D01*
X78000Y30937D01*
X77694Y30834D01*
X77388Y30733D01*
X77095Y30643D01*
X77108D01*
X77133Y30630D01*
X77184D01*
X77235Y30605D01*
X77324Y30592D01*
X77414Y30567D01*
X77631Y30516D01*
X77886Y30452D01*
X78166Y30363D01*
X78472Y30274D01*
X78791Y30159D01*
X81366Y29202D01*
Y32186D01*
D02*
G37*
G36*
X88410Y19249D02*
X88332D01*
X88293Y19243D01*
X88243D01*
X88194Y19238D01*
X88132Y19227D01*
X88005Y19210D01*
X87872Y19182D01*
X87727Y19143D01*
X87594Y19088D01*
X87589D01*
X87577Y19082D01*
X87561Y19071D01*
X87539Y19060D01*
X87472Y19021D01*
X87394Y18971D01*
X87305Y18905D01*
X87217Y18821D01*
X87128Y18727D01*
X87050Y18622D01*
Y18616D01*
X87039Y18611D01*
X87033Y18594D01*
X87017Y18566D01*
X87006Y18538D01*
X86989Y18505D01*
X86950Y18422D01*
X86917Y18322D01*
X86884Y18205D01*
X86861Y18072D01*
X86856Y17933D01*
Y17928D01*
Y17911D01*
Y17884D01*
X86861Y17845D01*
X86867Y17795D01*
X86878Y17745D01*
X86889Y17684D01*
X86900Y17617D01*
X86945Y17473D01*
X86978Y17395D01*
X87011Y17317D01*
X87056Y17234D01*
X87106Y17156D01*
X87161Y17079D01*
X87228Y17007D01*
X87233Y17001D01*
X87244Y16990D01*
X87267Y16973D01*
X87300Y16946D01*
X87339Y16918D01*
X87389Y16884D01*
X87450Y16851D01*
X87522Y16812D01*
X87600Y16779D01*
X87694Y16740D01*
X87794Y16707D01*
X87905Y16679D01*
X88027Y16651D01*
X88166Y16635D01*
X88310Y16624D01*
X88465Y16618D01*
X88532D01*
X88582Y16624D01*
X88638Y16629D01*
X88704Y16640D01*
X88782Y16651D01*
X88859Y16662D01*
X89037Y16707D01*
X89126Y16740D01*
X89220Y16773D01*
X89309Y16818D01*
X89398Y16868D01*
X89481Y16923D01*
X89559Y16990D01*
X89564Y16996D01*
X89575Y17007D01*
X89598Y17029D01*
X89620Y17056D01*
X89653Y17095D01*
X89686Y17140D01*
X89720Y17190D01*
X89759Y17245D01*
X89797Y17312D01*
X89831Y17384D01*
X89864Y17462D01*
X89897Y17545D01*
X89920Y17634D01*
X89942Y17723D01*
X89953Y17822D01*
X89958Y17928D01*
Y17933D01*
Y17956D01*
X89953Y17983D01*
Y18022D01*
X89947Y18072D01*
X89936Y18128D01*
X89925Y18194D01*
X89908Y18261D01*
X89886Y18339D01*
X89859Y18411D01*
X89831Y18494D01*
X89792Y18572D01*
X89742Y18649D01*
X89692Y18727D01*
X89631Y18805D01*
X89559Y18877D01*
X89553Y18882D01*
X89542Y18894D01*
X89514Y18910D01*
X89481Y18938D01*
X89442Y18966D01*
X89392Y18993D01*
X89331Y19027D01*
X89265Y19066D01*
X89187Y19099D01*
X89098Y19132D01*
X89004Y19160D01*
X88904Y19193D01*
X88793Y19216D01*
X88671Y19232D01*
X88543Y19243D01*
X88410Y19249D01*
D02*
G37*
G36*
X93052Y47365D02*
X92997D01*
X92952Y47360D01*
X92902D01*
X92847Y47354D01*
X92780Y47348D01*
X92713Y47343D01*
X92563Y47315D01*
X92408Y47282D01*
X92264Y47232D01*
X92192Y47199D01*
X92131Y47165D01*
X92125D01*
X92114Y47154D01*
X92097Y47143D01*
X92075Y47132D01*
X92020Y47088D01*
X91953Y47032D01*
X91881Y46960D01*
X91809Y46877D01*
X91748Y46782D01*
X91698Y46683D01*
X91692Y46671D01*
X91687Y46644D01*
X91670Y46594D01*
X91653Y46521D01*
X91642Y46433D01*
X91626Y46322D01*
X91620Y46255D01*
Y46183D01*
X91615Y46111D01*
Y46028D01*
Y45223D01*
X94545D01*
Y46039D01*
Y46044D01*
Y46055D01*
Y46077D01*
Y46100D01*
Y46133D01*
X94539Y46172D01*
X94534Y46255D01*
X94528Y46349D01*
X94517Y46449D01*
X94500Y46549D01*
X94478Y46633D01*
X94473Y46644D01*
X94467Y46671D01*
X94450Y46710D01*
X94428Y46760D01*
X94395Y46816D01*
X94362Y46871D01*
X94323Y46927D01*
X94279Y46982D01*
X94267Y46988D01*
X94245Y47010D01*
X94206Y47043D01*
X94151Y47082D01*
X94079Y47126D01*
X93995Y47176D01*
X93901Y47221D01*
X93796Y47260D01*
X93790D01*
X93779Y47265D01*
X93762Y47271D01*
X93740Y47276D01*
X93712Y47282D01*
X93674Y47293D01*
X93635Y47304D01*
X93590Y47315D01*
X93479Y47332D01*
X93352Y47348D01*
X93207Y47360D01*
X93052Y47365D01*
D02*
G37*
G36*
X93418Y50568D02*
X92364Y50168D01*
X92358D01*
X92342Y50162D01*
X92314Y50151D01*
X92281Y50140D01*
X92242Y50124D01*
X92192Y50107D01*
X92136Y50090D01*
X92081Y50068D01*
X91953Y50024D01*
X91820Y49979D01*
X91687Y49935D01*
X91559Y49896D01*
X91565D01*
X91576Y49890D01*
X91598D01*
X91620Y49879D01*
X91659Y49874D01*
X91698Y49863D01*
X91792Y49840D01*
X91903Y49813D01*
X92025Y49774D01*
X92158Y49735D01*
X92297Y49685D01*
X93418Y49269D01*
Y50568D01*
D02*
G37*
G36*
X92214Y39812D02*
X92203D01*
X92169Y39806D01*
X92120Y39801D01*
X92053Y39789D01*
X91986Y39762D01*
X91909Y39728D01*
X91837Y39678D01*
X91764Y39612D01*
X91759Y39601D01*
X91737Y39573D01*
X91709Y39529D01*
X91676Y39456D01*
X91642Y39373D01*
X91615Y39262D01*
X91592Y39134D01*
X91587Y38985D01*
Y37775D01*
X92858D01*
Y38862D01*
Y38868D01*
Y38879D01*
Y38896D01*
Y38918D01*
X92852Y38985D01*
X92847Y39062D01*
X92841Y39151D01*
X92830Y39240D01*
X92813Y39329D01*
X92791Y39406D01*
X92786Y39417D01*
X92774Y39440D01*
X92758Y39473D01*
X92736Y39517D01*
X92702Y39567D01*
X92664Y39617D01*
X92614Y39667D01*
X92558Y39706D01*
X92552Y39712D01*
X92530Y39723D01*
X92497Y39739D01*
X92453Y39762D01*
X92403Y39778D01*
X92347Y39795D01*
X92281Y39806D01*
X92214Y39812D01*
D02*
G37*
G36*
X68406Y72825D02*
X67294Y71244D01*
X68406D01*
Y72825D01*
D02*
G37*
G36*
X19702Y60907D02*
X19672D01*
X19651Y60902D01*
X19600Y60897D01*
X19529Y60882D01*
X19452Y60856D01*
X19366Y60816D01*
X19284Y60765D01*
X19202Y60693D01*
X19192Y60683D01*
X19172Y60658D01*
X19136Y60612D01*
X19100Y60545D01*
X19065Y60469D01*
X19029Y60372D01*
X19009Y60265D01*
X18998Y60142D01*
Y60132D01*
Y60107D01*
X19004Y60061D01*
X19009Y60005D01*
X19019Y59938D01*
X19039Y59867D01*
X19060Y59790D01*
X19090Y59714D01*
X19095Y59704D01*
X19111Y59678D01*
X19131Y59643D01*
X19162Y59597D01*
X19197Y59551D01*
X19243Y59495D01*
X19294Y59449D01*
X19355Y59403D01*
X19366Y59398D01*
X19386Y59388D01*
X19422Y59367D01*
X19468Y59352D01*
X19519Y59332D01*
X19580Y59311D01*
X19646Y59301D01*
X19717Y59296D01*
X19743D01*
X19763Y59301D01*
X19814Y59306D01*
X19881Y59321D01*
X19952Y59352D01*
X20034Y59388D01*
X20115Y59444D01*
X20156Y59474D01*
X20192Y59515D01*
Y59520D01*
X20202Y59525D01*
X20222Y59556D01*
X20253Y59607D01*
X20294Y59673D01*
X20330Y59760D01*
X20360Y59862D01*
X20380Y59979D01*
X20391Y60117D01*
Y60122D01*
Y60132D01*
Y60153D01*
X20386Y60178D01*
Y60209D01*
X20380Y60244D01*
X20365Y60326D01*
X20345Y60418D01*
X20309Y60515D01*
X20258Y60606D01*
X20192Y60693D01*
X20182Y60703D01*
X20156Y60729D01*
X20115Y60760D01*
X20059Y60800D01*
X19988Y60841D01*
X19906Y60872D01*
X19809Y60897D01*
X19702Y60907D01*
D02*
G37*
%LPD*%
D16*
X6500Y77000D02*
Y87000D01*
X56500D01*
X6500Y77000D02*
X56500D01*
Y87000D01*
X9087Y69244D02*
X19913D01*
X9087Y74756D02*
X19913D01*
X9087Y69244D02*
Y74756D01*
X19913Y69244D02*
Y74756D01*
X15087Y63244D02*
X25913D01*
X15087Y68756D02*
X25913D01*
X15087Y63244D02*
Y68756D01*
X25913Y63244D02*
Y68756D01*
X37087Y20244D02*
X47913D01*
X37087Y25756D02*
X47913D01*
X37087Y20244D02*
Y25756D01*
X47913Y20244D02*
Y25756D01*
X44434Y62305D02*
X75572D01*
Y26634D02*
Y62305D01*
X44434Y29637D02*
Y62305D01*
Y29637D02*
X47437Y26634D01*
X75572D01*
X6089Y27184D02*
Y40195D01*
X7731Y41837D01*
X21865D01*
X6089Y27184D02*
X21865D01*
Y41837D01*
X11256Y42587D02*
Y53413D01*
X5744Y42587D02*
Y53413D01*
Y42587D02*
X11256D01*
X5744Y53413D02*
X11256D01*
X20756Y42587D02*
Y53413D01*
X15244Y42587D02*
Y53413D01*
Y42587D02*
X20756D01*
X15244Y53413D02*
X20756D01*
X12043Y22768D02*
X22870D01*
X12043Y17256D02*
X22870D01*
Y22768D01*
X12043Y17256D02*
Y22768D01*
X66587Y87756D02*
X77413D01*
X66587Y82244D02*
X77413D01*
Y87756D01*
X66587Y82244D02*
Y87756D01*
X60398Y75646D02*
X72602D01*
X60398Y81354D02*
X72602D01*
X60398Y75646D02*
Y81354D01*
X72602Y75646D02*
Y81354D01*
X65713Y76827D02*
Y80173D01*
X52087Y69244D02*
X62913D01*
X52087Y74756D02*
X62913D01*
X52087Y69244D02*
Y74756D01*
X62913Y69244D02*
Y74756D01*
X55244Y14087D02*
Y24913D01*
X60756Y14087D02*
Y24913D01*
X55244D02*
X60756D01*
X55244Y14087D02*
X60756D01*
X3087Y68756D02*
X13913D01*
X3087Y63244D02*
X13913D01*
Y68756D01*
X3087Y63244D02*
Y68756D01*
X0Y0D02*
Y100000D01*
X110000D01*
Y0D02*
Y100000D01*
X0Y0D02*
X110000D01*
D22*
X25000Y25000D02*
X35000D01*
X25000D02*
Y55000D01*
X35000D01*
Y25000D02*
Y55000D01*
X106000Y17500D02*
Y77500D01*
X96000Y17500D02*
Y77500D01*
Y17500D02*
X106000D01*
X96000Y77500D02*
X106000D01*
X14000Y99000D02*
X106500D01*
X6500D02*
X14000D01*
X6500Y89000D02*
Y99000D01*
Y89000D02*
X106500D01*
Y99000D01*
X14000Y11000D02*
X106500D01*
X6500D02*
X14000D01*
X6500Y1000D02*
Y11000D01*
Y1000D02*
X106500D01*
Y11000D01*
M02*
