G04 Layer_Physical_Order=2*
G04 Layer_Color=16711680*
%FSLAX25Y25*%
%MOIN*%
G70*
G01*
G75*
%ADD15C,0.01575*%
%ADD16C,0.00394*%
%ADD17C,0.05905*%
%ADD18R,0.05905X0.05905*%
%ADD19R,0.05905X0.05905*%
%ADD20C,0.01968*%
%ADD21C,0.03150*%
G36*
X108780Y45954D02*
X108318Y45799D01*
X108280Y45798D01*
X105289Y48789D01*
X104697Y49184D01*
X104131Y49296D01*
X104053Y49393D01*
X103958Y49610D01*
X103928Y49822D01*
X104453Y50507D01*
X104851Y51468D01*
X104987Y52500D01*
X104851Y53532D01*
X104453Y54493D01*
X103819Y55319D01*
X102993Y55953D01*
X102032Y56351D01*
X101000Y56487D01*
X99968Y56351D01*
X99007Y55953D01*
X98181Y55319D01*
X98010Y55097D01*
X61317D01*
Y74779D01*
X61229Y75452D01*
X60970Y76078D01*
X60557Y76616D01*
X55472Y81700D01*
Y84953D01*
X55395Y85343D01*
X55174Y85674D01*
X54843Y85895D01*
X54453Y85972D01*
X54097D01*
Y91010D01*
X54319Y91181D01*
X54953Y92007D01*
X55351Y92968D01*
X55487Y94000D01*
X55351Y95032D01*
X54953Y95993D01*
X54319Y96819D01*
X53493Y97453D01*
X52532Y97851D01*
X51500Y97987D01*
X50468Y97851D01*
X49507Y97453D01*
X48681Y96819D01*
X48047Y95993D01*
X47649Y95032D01*
X47513Y94000D01*
X47649Y92968D01*
X48047Y92007D01*
X48681Y91181D01*
X48903Y91010D01*
Y85972D01*
X48547D01*
X48157Y85895D01*
X47826Y85674D01*
X47605Y85343D01*
X47528Y84953D01*
Y79047D01*
X47605Y78657D01*
X47826Y78326D01*
X48157Y78105D01*
X48547Y78028D01*
X51800D01*
X56124Y73704D01*
Y55097D01*
X32597D01*
Y68000D01*
X32509Y68672D01*
X32249Y69298D01*
X31836Y69836D01*
X27836Y73836D01*
X27299Y74249D01*
X26672Y74509D01*
X26000Y74597D01*
X19500D01*
X18828Y74509D01*
X18202Y74249D01*
X17664Y73836D01*
X17251Y73299D01*
X16992Y72672D01*
X16903Y72000D01*
X16992Y71328D01*
X17251Y70701D01*
X17664Y70164D01*
X18202Y69751D01*
X18828Y69491D01*
X19500Y69403D01*
X24924D01*
X27403Y66924D01*
Y52990D01*
X27181Y52819D01*
X26547Y51993D01*
X26149Y51032D01*
X26013Y50000D01*
X26149Y48968D01*
X26547Y48007D01*
X27181Y47181D01*
X28007Y46547D01*
X28968Y46149D01*
X30000Y46013D01*
X31032Y46149D01*
X31993Y46547D01*
X32819Y47181D01*
X33453Y48007D01*
X33851Y48968D01*
X33974Y49903D01*
X56124D01*
Y26076D01*
X49664Y19616D01*
X49251Y19078D01*
X48992Y18452D01*
X48903Y17779D01*
Y8990D01*
X48681Y8819D01*
X48047Y7993D01*
X47649Y7032D01*
X47513Y6000D01*
X47649Y4968D01*
X48047Y4007D01*
X48681Y3181D01*
X49507Y2547D01*
X50468Y2149D01*
X51500Y2013D01*
X52532Y2149D01*
X53493Y2547D01*
X54319Y3181D01*
X54953Y4007D01*
X55351Y4968D01*
X55487Y6000D01*
X55351Y7032D01*
X54953Y7993D01*
X54319Y8819D01*
X54097Y8990D01*
Y16704D01*
X60557Y23164D01*
X60970Y23701D01*
X61229Y24328D01*
X61317Y25000D01*
Y49903D01*
X97567D01*
X97636Y49803D01*
X97409Y49248D01*
X97087Y49184D01*
X96495Y48789D01*
X96495Y48789D01*
X85711Y38005D01*
X85316Y37413D01*
X85178Y36716D01*
X85178Y36716D01*
Y12255D01*
X82703Y9780D01*
X82532Y9851D01*
X81500Y9987D01*
X80468Y9851D01*
X79507Y9453D01*
X78681Y8819D01*
X78047Y7993D01*
X77649Y7032D01*
X77513Y6000D01*
X77649Y4968D01*
X78047Y4007D01*
X78681Y3181D01*
X79507Y2547D01*
X80468Y2149D01*
X81500Y2013D01*
X82532Y2149D01*
X83493Y2547D01*
X84319Y3181D01*
X84953Y4007D01*
X85351Y4968D01*
X85487Y6000D01*
X85351Y7032D01*
X85280Y7203D01*
X88289Y10211D01*
X88289Y10211D01*
X88684Y10803D01*
X88822Y11500D01*
X88822Y11500D01*
Y35961D01*
X96760Y43898D01*
X97184Y43615D01*
X97149Y43532D01*
X97013Y42500D01*
X97149Y41468D01*
X97220Y41297D01*
X90211Y34289D01*
X89816Y33697D01*
X89678Y33000D01*
X89678Y33000D01*
Y9524D01*
X89507Y9453D01*
X88681Y8819D01*
X88047Y7993D01*
X87649Y7032D01*
X87513Y6000D01*
X87649Y4968D01*
X88047Y4007D01*
X88681Y3181D01*
X89507Y2547D01*
X90468Y2149D01*
X91500Y2013D01*
X92532Y2149D01*
X93493Y2547D01*
X94319Y3181D01*
X94953Y4007D01*
X95351Y4968D01*
X95487Y6000D01*
X95351Y7032D01*
X94953Y7993D01*
X94319Y8819D01*
X93493Y9453D01*
X93322Y9524D01*
Y32245D01*
X99797Y38720D01*
X99968Y38649D01*
X101000Y38513D01*
X102032Y38649D01*
X102993Y39047D01*
X103819Y39681D01*
X104453Y40507D01*
X104678Y41049D01*
X105178Y40950D01*
Y39255D01*
X102203Y36280D01*
X102032Y36351D01*
X101000Y36487D01*
X99968Y36351D01*
X99007Y35953D01*
X98181Y35319D01*
X97547Y34493D01*
X97149Y33532D01*
X97013Y32500D01*
X97149Y31468D01*
X97547Y30507D01*
X98181Y29681D01*
X99007Y29047D01*
X99968Y28649D01*
X101000Y28513D01*
X102032Y28649D01*
X102993Y29047D01*
X103819Y29681D01*
X104453Y30507D01*
X104851Y31468D01*
X104987Y32500D01*
X104851Y33532D01*
X104780Y33703D01*
X108280Y37202D01*
X108318Y37201D01*
X108780Y37046D01*
Y1220D01*
X1220D01*
Y98780D01*
X108780D01*
Y45954D01*
D02*
G37*
%LPC*%
G36*
X103953Y26472D02*
X98047D01*
X97657Y26395D01*
X97326Y26174D01*
X97105Y25843D01*
X97028Y25453D01*
Y19547D01*
X97105Y19157D01*
X97326Y18826D01*
X97657Y18605D01*
X98047Y18528D01*
X103953D01*
X104343Y18605D01*
X104674Y18826D01*
X104895Y19157D01*
X104972Y19547D01*
Y25453D01*
X104895Y25843D01*
X104674Y26174D01*
X104343Y26395D01*
X103953Y26472D01*
D02*
G37*
G36*
X14453Y9972D02*
X8547D01*
X8157Y9895D01*
X7826Y9674D01*
X7605Y9343D01*
X7528Y8953D01*
Y3047D01*
X7605Y2657D01*
X7826Y2326D01*
X8157Y2105D01*
X8547Y2028D01*
X14453D01*
X14843Y2105D01*
X15174Y2326D01*
X15395Y2657D01*
X15472Y3047D01*
Y8953D01*
X15395Y9343D01*
X15174Y9674D01*
X14843Y9895D01*
X14453Y9972D01*
D02*
G37*
G36*
X11500Y85987D02*
X10468Y85851D01*
X9507Y85453D01*
X8681Y84819D01*
X8047Y83993D01*
X7649Y83032D01*
X7513Y82000D01*
X7649Y80968D01*
X8047Y80007D01*
X8681Y79181D01*
X9507Y78547D01*
X10468Y78149D01*
X11500Y78013D01*
X12532Y78149D01*
X13493Y78547D01*
X14319Y79181D01*
X14953Y80007D01*
X15351Y80968D01*
X15487Y82000D01*
X15351Y83032D01*
X14953Y83993D01*
X14319Y84819D01*
X13493Y85453D01*
X12532Y85851D01*
X11500Y85987D01*
D02*
G37*
G36*
X30000Y43987D02*
X28968Y43851D01*
X28007Y43453D01*
X27181Y42819D01*
X26547Y41993D01*
X26149Y41032D01*
X26013Y40000D01*
X26149Y38968D01*
X26547Y38007D01*
X27181Y37181D01*
X28007Y36547D01*
X28968Y36149D01*
X30000Y36013D01*
X31032Y36149D01*
X31993Y36547D01*
X32819Y37181D01*
X33453Y38007D01*
X33851Y38968D01*
X33987Y40000D01*
X33851Y41032D01*
X33453Y41993D01*
X32819Y42819D01*
X31993Y43453D01*
X31032Y43851D01*
X30000Y43987D01*
D02*
G37*
G36*
X31500Y9987D02*
X30468Y9851D01*
X29507Y9453D01*
X28681Y8819D01*
X28047Y7993D01*
X27649Y7032D01*
X27513Y6000D01*
X27649Y4968D01*
X28047Y4007D01*
X28681Y3181D01*
X29507Y2547D01*
X30468Y2149D01*
X31500Y2013D01*
X32532Y2149D01*
X33493Y2547D01*
X34319Y3181D01*
X34953Y4007D01*
X35351Y4968D01*
X35487Y6000D01*
X35351Y7032D01*
X34953Y7993D01*
X34319Y8819D01*
X33493Y9453D01*
X32532Y9851D01*
X31500Y9987D01*
D02*
G37*
G36*
X21500D02*
X20468Y9851D01*
X19507Y9453D01*
X18681Y8819D01*
X18047Y7993D01*
X17649Y7032D01*
X17513Y6000D01*
X17649Y4968D01*
X18047Y4007D01*
X18681Y3181D01*
X19507Y2547D01*
X20468Y2149D01*
X21500Y2013D01*
X22532Y2149D01*
X23493Y2547D01*
X24319Y3181D01*
X24953Y4007D01*
X25351Y4968D01*
X25487Y6000D01*
X25351Y7032D01*
X24953Y7993D01*
X24319Y8819D01*
X23493Y9453D01*
X22532Y9851D01*
X21500Y9987D01*
D02*
G37*
G36*
X61500D02*
X60468Y9851D01*
X59507Y9453D01*
X58681Y8819D01*
X58047Y7993D01*
X57649Y7032D01*
X57513Y6000D01*
X57649Y4968D01*
X58047Y4007D01*
X58681Y3181D01*
X59507Y2547D01*
X60468Y2149D01*
X61500Y2013D01*
X62532Y2149D01*
X63493Y2547D01*
X64319Y3181D01*
X64953Y4007D01*
X65351Y4968D01*
X65487Y6000D01*
X65351Y7032D01*
X64953Y7993D01*
X64319Y8819D01*
X63493Y9453D01*
X62532Y9851D01*
X61500Y9987D01*
D02*
G37*
G36*
X101500D02*
X100468Y9851D01*
X99507Y9453D01*
X98681Y8819D01*
X98047Y7993D01*
X97649Y7032D01*
X97513Y6000D01*
X97649Y4968D01*
X98047Y4007D01*
X98681Y3181D01*
X99507Y2547D01*
X100468Y2149D01*
X101500Y2013D01*
X102532Y2149D01*
X103493Y2547D01*
X104319Y3181D01*
X104953Y4007D01*
X105351Y4968D01*
X105487Y6000D01*
X105351Y7032D01*
X104953Y7993D01*
X104319Y8819D01*
X103493Y9453D01*
X102532Y9851D01*
X101500Y9987D01*
D02*
G37*
G36*
X71500D02*
X70468Y9851D01*
X69507Y9453D01*
X68681Y8819D01*
X68047Y7993D01*
X67649Y7032D01*
X67513Y6000D01*
X67649Y4968D01*
X68047Y4007D01*
X68681Y3181D01*
X69507Y2547D01*
X70468Y2149D01*
X71500Y2013D01*
X72532Y2149D01*
X73493Y2547D01*
X74319Y3181D01*
X74953Y4007D01*
X75351Y4968D01*
X75487Y6000D01*
X75351Y7032D01*
X74953Y7993D01*
X74319Y8819D01*
X73493Y9453D01*
X72532Y9851D01*
X71500Y9987D01*
D02*
G37*
G36*
X81500Y97987D02*
X80468Y97851D01*
X79507Y97453D01*
X78681Y96819D01*
X78047Y95993D01*
X77649Y95032D01*
X77513Y94000D01*
X77649Y92968D01*
X78047Y92007D01*
X78681Y91181D01*
X79507Y90547D01*
X80468Y90149D01*
X81500Y90013D01*
X82532Y90149D01*
X83493Y90547D01*
X84319Y91181D01*
X84953Y92007D01*
X85351Y92968D01*
X85487Y94000D01*
X85351Y95032D01*
X84953Y95993D01*
X84319Y96819D01*
X83493Y97453D01*
X82532Y97851D01*
X81500Y97987D01*
D02*
G37*
G36*
X71500D02*
X70468Y97851D01*
X69507Y97453D01*
X68681Y96819D01*
X68047Y95993D01*
X67649Y95032D01*
X67513Y94000D01*
X67649Y92968D01*
X68047Y92007D01*
X68681Y91181D01*
X69507Y90547D01*
X70468Y90149D01*
X71500Y90013D01*
X72532Y90149D01*
X73493Y90547D01*
X74319Y91181D01*
X74953Y92007D01*
X75351Y92968D01*
X75487Y94000D01*
X75351Y95032D01*
X74953Y95993D01*
X74319Y96819D01*
X73493Y97453D01*
X72532Y97851D01*
X71500Y97987D01*
D02*
G37*
G36*
X91500D02*
X90468Y97851D01*
X89507Y97453D01*
X88681Y96819D01*
X88047Y95993D01*
X87649Y95032D01*
X87513Y94000D01*
X87649Y92968D01*
X88047Y92007D01*
X88681Y91181D01*
X89507Y90547D01*
X90468Y90149D01*
X91500Y90013D01*
X92532Y90149D01*
X93493Y90547D01*
X94319Y91181D01*
X94953Y92007D01*
X95351Y92968D01*
X95487Y94000D01*
X95351Y95032D01*
X94953Y95993D01*
X94319Y96819D01*
X93493Y97453D01*
X92532Y97851D01*
X91500Y97987D01*
D02*
G37*
G36*
X14453Y97972D02*
X8547D01*
X8157Y97895D01*
X7826Y97674D01*
X7605Y97343D01*
X7528Y96953D01*
Y91047D01*
X7605Y90657D01*
X7826Y90326D01*
X8157Y90105D01*
X8547Y90028D01*
X14453D01*
X14843Y90105D01*
X15174Y90326D01*
X15395Y90657D01*
X15472Y91047D01*
Y96953D01*
X15395Y97343D01*
X15174Y97674D01*
X14843Y97895D01*
X14453Y97972D01*
D02*
G37*
G36*
X101500Y97987D02*
X100468Y97851D01*
X99507Y97453D01*
X98681Y96819D01*
X98047Y95993D01*
X97649Y95032D01*
X97513Y94000D01*
X97649Y92968D01*
X98047Y92007D01*
X98681Y91181D01*
X99507Y90547D01*
X100468Y90149D01*
X101500Y90013D01*
X102532Y90149D01*
X103493Y90547D01*
X104319Y91181D01*
X104953Y92007D01*
X105351Y92968D01*
X105487Y94000D01*
X105351Y95032D01*
X104953Y95993D01*
X104319Y96819D01*
X103493Y97453D01*
X102532Y97851D01*
X101500Y97987D01*
D02*
G37*
G36*
X31500Y85987D02*
X30468Y85851D01*
X29507Y85453D01*
X28681Y84819D01*
X28047Y83993D01*
X27649Y83032D01*
X27513Y82000D01*
X27649Y80968D01*
X28047Y80007D01*
X28681Y79181D01*
X29507Y78547D01*
X30468Y78149D01*
X31500Y78013D01*
X32532Y78149D01*
X33493Y78547D01*
X34319Y79181D01*
X34953Y80007D01*
X35351Y80968D01*
X35487Y82000D01*
X35351Y83032D01*
X34953Y83993D01*
X34319Y84819D01*
X33493Y85453D01*
X32532Y85851D01*
X31500Y85987D01*
D02*
G37*
G36*
X21500D02*
X20468Y85851D01*
X19507Y85453D01*
X18681Y84819D01*
X18047Y83993D01*
X17649Y83032D01*
X17513Y82000D01*
X17649Y80968D01*
X18047Y80007D01*
X18681Y79181D01*
X19507Y78547D01*
X20468Y78149D01*
X21500Y78013D01*
X22532Y78149D01*
X23493Y78547D01*
X24319Y79181D01*
X24953Y80007D01*
X25351Y80968D01*
X25487Y82000D01*
X25351Y83032D01*
X24953Y83993D01*
X24319Y84819D01*
X23493Y85453D01*
X22532Y85851D01*
X21500Y85987D01*
D02*
G37*
G36*
Y97987D02*
X20468Y97851D01*
X19507Y97453D01*
X18681Y96819D01*
X18047Y95993D01*
X17649Y95032D01*
X17513Y94000D01*
X17649Y92968D01*
X18047Y92007D01*
X18681Y91181D01*
X19507Y90547D01*
X20468Y90149D01*
X21500Y90013D01*
X22532Y90149D01*
X23493Y90547D01*
X24319Y91181D01*
X24953Y92007D01*
X25351Y92968D01*
X25487Y94000D01*
X25351Y95032D01*
X24953Y95993D01*
X24319Y96819D01*
X23493Y97453D01*
X22532Y97851D01*
X21500Y97987D01*
D02*
G37*
G36*
X41500D02*
X40468Y97851D01*
X39507Y97453D01*
X38681Y96819D01*
X38047Y95993D01*
X37649Y95032D01*
X37513Y94000D01*
X37649Y92968D01*
X38047Y92007D01*
X38681Y91181D01*
X39507Y90547D01*
X40468Y90149D01*
X41500Y90013D01*
X42532Y90149D01*
X43493Y90547D01*
X44319Y91181D01*
X44953Y92007D01*
X45351Y92968D01*
X45487Y94000D01*
X45351Y95032D01*
X44953Y95993D01*
X44319Y96819D01*
X43493Y97453D01*
X42532Y97851D01*
X41500Y97987D01*
D02*
G37*
G36*
X31500D02*
X30468Y97851D01*
X29507Y97453D01*
X28681Y96819D01*
X28047Y95993D01*
X27649Y95032D01*
X27513Y94000D01*
X27649Y92968D01*
X28047Y92007D01*
X28681Y91181D01*
X29507Y90547D01*
X30468Y90149D01*
X31500Y90013D01*
X32532Y90149D01*
X33493Y90547D01*
X34319Y91181D01*
X34953Y92007D01*
X35351Y92968D01*
X35487Y94000D01*
X35351Y95032D01*
X34953Y95993D01*
X34319Y96819D01*
X33493Y97453D01*
X32532Y97851D01*
X31500Y97987D01*
D02*
G37*
%LPD*%
D15*
X91500Y6000D02*
Y33000D01*
X101000Y42500D01*
X97784Y47500D02*
X104000D01*
X107000Y44500D01*
Y38500D02*
Y44500D01*
X101000Y32500D02*
X107000Y38500D01*
X81500Y6000D02*
X87000Y11500D01*
Y36716D01*
X97784Y47500D01*
D16*
X0Y0D02*
Y100000D01*
X110000D01*
Y0D02*
Y100000D01*
X0Y0D02*
X110000D01*
D17*
X30000Y50000D02*
D03*
Y40000D02*
D03*
X41500Y82000D02*
D03*
X31500D02*
D03*
X21500D02*
D03*
X11500D02*
D03*
X101000Y72500D02*
D03*
Y62500D02*
D03*
Y52500D02*
D03*
Y42500D02*
D03*
Y32500D02*
D03*
X31500Y94000D02*
D03*
X101500D02*
D03*
X91500D02*
D03*
X81500D02*
D03*
X71500D02*
D03*
X61500D02*
D03*
X51500D02*
D03*
X41500D02*
D03*
X21500D02*
D03*
X31500Y6000D02*
D03*
X101500D02*
D03*
X91500D02*
D03*
X81500D02*
D03*
X71500D02*
D03*
X61500D02*
D03*
X51500D02*
D03*
X41500D02*
D03*
X21500D02*
D03*
D18*
X30000Y30000D02*
D03*
X101000Y22500D02*
D03*
D19*
X51500Y82000D02*
D03*
X11500Y94000D02*
D03*
Y6000D02*
D03*
D20*
X7000Y34500D02*
D03*
X58720Y25000D02*
D03*
X19500Y72000D02*
D03*
X5000Y68000D02*
D03*
X24000D02*
D03*
X62500Y74500D02*
D03*
X56500Y14500D02*
D03*
X12000Y25000D02*
D03*
X16000Y51000D02*
D03*
X6500D02*
D03*
X4980Y86850D02*
D03*
X34508Y27795D02*
D03*
X64035Y47480D02*
D03*
Y86850D02*
D03*
X83720Y47480D02*
D03*
X93563Y67165D02*
D03*
X40500Y40000D02*
D03*
X17000Y77000D02*
D03*
D21*
X51500Y17779D02*
X58720Y25000D01*
X51500Y6000D02*
Y17779D01*
Y82000D02*
X58720Y74779D01*
X51500Y82000D02*
Y94000D01*
X58720Y52500D02*
X101000D01*
X58720Y25000D02*
Y52500D01*
Y74779D01*
X32500Y52500D02*
X58720D01*
X30000Y50000D02*
X32500Y52500D01*
X30000Y50000D02*
Y68000D01*
X26000Y72000D02*
X30000Y68000D01*
X19500Y72000D02*
X26000D01*
M02*
